<?xml version="1.0" encoding="UTF-8"?>
<svg width="24px" height="24px" viewBox="0 0 24 24" version="1.1" xmlns="http://www.w3.org/2000/svg" xmlns:xlink="http://www.w3.org/1999/xlink">
    <!-- Generator: Sketch 64 (93537) - https://sketch.com -->
    <title>ic-db_action_share_24</title>
    <desc>Created with Sketch.</desc>
    <g id="Symbols:Icon" stroke="none" stroke-width="1" fill="none" fill-rule="evenodd">
        <g id="24dp-Icon/Action/Share" fill="#282D37">
            <path d="M16.5078531,3 C18.4297218,3 20,4.57027818 20,6.49214695 C20,8.43747504 18.4297218,10.0078531 16.5078531,10.0078531 C15.4062625,10.0078531 14.4687874,9.49214695 13.812525,8.71878744 L13.812525,8.71878744 L8.8906562,11.1562625 C8.96093438,11.437475 9.00785305,11.7187874 9.00785305,12 C9.00785305,12.2812126 8.96093438,12.562525 8.8906562,12.8202782 L8.8906562,12.8202782 L13.8359843,15.2578531 C14.4687874,14.4843937 15.4297218,13.9921469 16.5078531,13.9921469 C18.4297218,13.9921469 20,15.562525 20,17.5078531 C20,19.4297218 18.4297218,21 16.5078531,21 C14.562525,21 12.9921469,19.4297218 12.9921469,17.5078531 C12.9921469,17.3671969 13.0204978,17.1737322 13.0390656,17.0859843 L13.0390656,17.0859843 L7.88280314,14.5546719 C7.25,15.1406562 6.42972182,15.4922468 5.49214695,15.4922468 C3.57027818,15.4922468 2,13.9453281 2,12 C2,10.0781312 3.57027818,8.50775323 5.49214695,8.50775323 C6.40626248,8.50775323 7.25,8.8593438 7.8593438,9.4453281 L7.8593438,9.4453281 L13.0390656,6.8906562 C13.00772,6.7651737 12.9921469,6.63280314 12.9921469,6.49214695 C12.9921469,4.57027818 14.562525,3 16.5078531,3 Z M16.4960324,15.9843937 C15.6588415,15.9843937 14.9843937,16.6588415 14.9843937,17.4960324 C14.9843937,18.3099459 15.6588415,18.9843937 16.4960324,18.9843937 C17.3099459,18.9843937 17.9843937,18.3099459 17.9843937,17.4960324 C17.9843937,16.6588415 17.3099459,15.9843937 16.4960324,15.9843937 Z M5.49214695,10.5 C4.67186876,10.5 3.99214695,11.1797218 3.99214695,12 C3.99214695,12.8202782 4.67186876,13.5 5.49214695,13.5 C6.33588447,13.5 7.01560628,12.8202782 7.01560628,12 C7.01560628,11.1797218 6.33588447,10.5 5.49214695,10.5 Z M16.5116387,5 C15.6744478,5 15,5.67444778 15,6.48836134 C15,7.32555222 15.6744478,8 16.5116387,8 C17.3255522,8 18,7.32555222 18,6.48836134 C18,5.67444778 17.3255522,5 16.5116387,5 Z" id="🎨-Color"></path>
        </g>
    </g>
</svg>