<?xml version="1.0" encoding="UTF-8"?>
<svg width="24px" height="24px" viewBox="0 0 24 24" version="1.1" xmlns="http://www.w3.org/2000/svg" xmlns:xlink="http://www.w3.org/1999/xlink">
    <!-- Generator: Sketch 64 (93537) - https://sketch.com -->
    <title>ic-db_action_filter_24</title>
    <desc>Created with Sketch.</desc>
    <g id="Symbols:Icon" stroke="none" stroke-width="1" fill="none" fill-rule="evenodd">
        <g id="24dp-Icon/Action/Filter" fill="#282D37">
            <path d="M8.03125,12.9688 C9.75,12.9688 11.40625,14.1874 11.875,16 L20.96875,16 C21.53125,16 21.96875,16.4687 21.96875,17 C21.96875,17.5624 21.53125,18 20.96875,18 L11.90625,18 C11.46875,19.75 9.90625,20.9688 8.03125,20.9688 C6.1875,20.9688 4.59375,19.7812 4.15625,18 L3,18 C2.46875,18 2,17.5624 2,17 C2,16.4687 2.46875,16 3,16 L4.15625,16 C4.625,14.25 6.21875,12.9688 8.03125,12.9688 Z M8,15 C6.875,15 6,15.9375 6,17 C6,18.125 6.90625,19 8,19 C9.09375,19 10,18.125 10,17 C10,15.9062 9.09375,15 8,15 Z M16.03125,3 C17.75,3 19.40625,4.1562 19.90625,6 L21,6 C21.5625,6 22,6.4688 22,7 C22,7.5625 21.5625,8 21,8 L19.90625,8 C19.46875,9.75 17.90625,11 16.03125,11 C14.21875,11 12.59375,9.7812 12.15625,8 L3,8 C2.4375,8 2,7.5625 2,7 C2,6.4688 2.4375,6 3,6 L12.15625,6 C12.625,4.25 14.21875,3 16.03125,3 Z M16,5 C14.90625,5 14,5.9063 14,7 C14,8.0938 14.90625,9 16,9 C17.09375,9 18,8.125 18,7 C18,5.9063 17.09375,5 16,5 Z" id="🎨-Color"></path>
        </g>
    </g>
</svg>