<?xml version="1.0" encoding="UTF-8"?>
<svg width="24px" height="24px" viewBox="0 0 24 24" version="1.1" xmlns="http://www.w3.org/2000/svg" xmlns:xlink="http://www.w3.org/1999/xlink">
    <!-- Generator: Sketch 64 (93537) - https://sketch.com -->
    <title>ic-db_action_swap-horizontal_24</title>
    <desc>Created with Sketch.</desc>
    <g id="Symbols:Icon" stroke="none" stroke-width="1" fill="none" fill-rule="evenodd">
        <g id="24dp-Icon/Action/Swap-Horizontal" fill="#282D37">
            <path d="M7.0216,2 C6.7006,2 6.4767,2.08585 6.2812,2.28125 L2.2812,6.28125 C2.0938,6.46875 2,6.75 2,7 C2,7.25 2.0945,7.49927 2.2812,7.6875 L6.2812,11.71875 C6.4842,11.92327 6.75,12 7,12 C7.5625,12 8,11.53125 8,11 C8,10.75 7.9062,10.5 7.7188,10.3125 L5.4062,8 L14,8 C14.5625,8 15,7.53125 15,7 C15,6.4375 14.5625,6 14,6 L5.4062,6 L7.7188,3.6875 C7.9076,3.49864 8,3.25 8,3 C8,2.46875 7.5938,2 7.0216,2 Z M17,12 C16.4375,12 16,12.4375 16,13 C16,13.25 16.1102,13.48239 16.3125,13.6875 L18.5938,16 L10,16 C9.4688,16 9,16.4375 9,17 C9,17.53125 9.4688,18 10,18 L18.5938,18 L16.3125,20.3125 C16.1102,20.51761 16,20.75 16,21 C16,21.5625 16.4375,22 17,22 C17.25,22 17.515,21.92248 17.7188,21.71875 L21.7188,17.71875 C21.9225,17.51502 22,17.25 22,17 C22,16.75 21.9225,16.48498 21.7188,16.28125 L17.7188,12.28125 C17.515,12.07752 17.25,12 17,12 Z" id="🎨-Color"></path>
        </g>
    </g>
</svg>