<?xml version="1.0" encoding="UTF-8"?>
<svg width="24px" height="24px" viewBox="0 0 24 24" version="1.1" xmlns="http://www.w3.org/2000/svg" xmlns:xlink="http://www.w3.org/1999/xlink">
    <!-- Generator: Sketch 64 (93537) - https://sketch.com -->
    <title>ic-db_action_shopping-bag_24</title>
    <desc>Created with Sketch.</desc>
    <g id="Symbols:Icon" stroke="none" stroke-width="1" fill="none" fill-rule="evenodd">
        <g id="24dp-Icon/Action/Shopping-Bag" fill="#282D37">
            <path d="M12,2 C14.1875,2 15.96875,3.5625 15.96875,6 L15.96875,6 L18,6 C18.5,6 18.9375,6.4062 18.96875,6.9375 L18.96875,6.9375 L20.03125,19.9062 C20.0625,20.5 19.59375,21 19.03125,21 L19.03125,21 L4.96875,21 C4.40625,21 3.9375,20.5 3.96875,19.9062 L3.96875,19.9062 L5,6.9375 C5.03125,6.4062 5.46875,6 6,6 L6,6 L8,6 C8,3.5625 9.8125,2 12,2 Z M17.0625,8 L6.90625,8 L6.0625,19 L17.9375,19 L17.0625,8 Z M11.96875,4 C10.84375,4 10,4.8438 10,6 L10,6 L13.96875,6 C13.96875,4.75 13.03125,4 11.96875,4 Z M13.96875,11 C13.96875,12.1875 13.09375,13 12,13 C10.96875,13 9.96875,12.25 9.96875,11 C9.96875,10.4375 9.5,10 9,10 C8.4375,10 8,10.4375 8,11 C8,13.2188 9.78125,15 11.96875,15 C14.1875,15 15.96875,13.2188 15.96875,11 C15.96875,10.4375 15.5,10 14.96875,10 C14.40625,10 13.96875,10.4375 13.96875,11 Z" id="🎨-Color"></path>
        </g>
    </g>
</svg>