<?xml version="1.0" encoding="UTF-8"?>
<svg width="24px" height="24px" viewBox="0 0 24 24" version="1.1" xmlns="http://www.w3.org/2000/svg" xmlns:xlink="http://www.w3.org/1999/xlink">
    <!-- Generator: Sketch 64 (93537) - https://sketch.com -->
    <title>ic-db_action_send_24</title>
    <desc>Created with Sketch.</desc>
    <g id="Symbols:Icon" stroke="none" stroke-width="1" fill="none" fill-rule="evenodd">
        <g id="24dp-Icon/Action/Send" fill="#282D37">
            <path d="M20.6665468,3.31009038 C20.9581674,3.57738339 21.0310466,3.99053845 20.9095122,4.37946945 L14.566117,20.8576381 C14.298824,21.5625173 13.6669276,22 12.9378244,22 L12.8648416,22 C12.1114107,21.9756724 11.4551867,21.4895345 11.2364454,20.7604313 L9.34075616,14.6357775 L3.24042995,12.7400883 C2.51132668,12.5213469 2.02518882,11.8894505 2.00096475,11.1360197 C1.97663715,10.3582612 2.41411981,9.70203719 3.11889549,9.41041659 L19.5971677,3.06702145 C19.9616676,2.92115939 20.3748226,3.01836625 20.6665468,3.31009038 Z M17.3125475,8.07364099 L11.3094282,14.1254155 L12.9620484,19.4479833 L17.3125475,8.07364099 Z M15.9028926,6.66398613 L4.52855035,11.0388128 L9.8754457,12.6914331 L15.9028926,6.66398613 Z" id="🎨-Color"></path>
        </g>
    </g>
</svg>