<?xml version="1.0" encoding="UTF-8"?>
<svg width="24px" height="24px" viewBox="0 0 24 24" version="1.1" xmlns="http://www.w3.org/2000/svg" xmlns:xlink="http://www.w3.org/1999/xlink">
    <!-- Generator: Sketch 64 (93537) - https://sketch.com -->
    <title>ic-db_action_send_24</title>
    <desc>Created with Sketch.</desc>
    <g id="Symbols" stroke="none" stroke-width="1" fill="none" fill-rule="evenodd">
        <g id="24dp-Icon/Action/Send" fill="#282D37">
            <path d="M21.1665468,2.81009038 C21.4581674,3.07738339 21.5310466,3.49053845 21.4095122,3.87946945 L15.066117,20.3576381 C14.798824,21.0625173 14.1669276,21.5 13.4378244,21.5 L13.3648416,21.5 C12.6114107,21.4756724 11.9551867,20.9895345 11.7364454,20.2604313 L9.84075616,14.1357775 L3.74042995,12.2400883 C3.01132668,12.0213469 2.52518882,11.3894505 2.50096475,10.6360197 C2.47663715,9.85826119 2.91411981,9.20203719 3.61889549,8.91041659 L20.0971677,2.56702145 C20.4616676,2.42115939 20.8748226,2.51836625 21.1665468,2.81009038 Z M17.8125475,7.57364099 L11.8094282,13.6254155 L13.4620484,18.9479833 L17.8125475,7.57364099 Z M16.4028926,6.16398613 L5.02855035,10.5388128 L10.3754457,12.1914331 L16.4028926,6.16398613 Z" id="🎨-Color"></path>
        </g>
    </g>
</svg>