<?xml version="1.0" encoding="UTF-8"?>
<svg width="24px" height="24px" viewBox="0 0 24 24" version="1.1" xmlns="http://www.w3.org/2000/svg" xmlns:xlink="http://www.w3.org/1999/xlink">
    <!-- Generator: Sketch 64 (93537) - https://sketch.com -->
    <title>ic-db_action_log-out_24</title>
    <desc>Created with Sketch.</desc>
    <g id="Symbols:Icon" stroke="none" stroke-width="1" fill="none" fill-rule="evenodd">
        <g id="24dp-Icon/Action/Log-Out" fill="#282D37">
            <path d="M4,18 C4,19.6562 5.3438,21 7,21 L11,21 C11.5625,21 12,20.5625 12,20 C12,19.4375 11.5625,19 11,19 L7,19 C6.4375,19 6,18.5625 6,18 L6,6 C6,5.4375 6.4375,5 7,5 L11,5 C11.5625,5 12,4.5625 12,4 C12,3.4375 11.5625,3 11,3 L7,3 C5.3438,3 4,4.3438 4,6 L4,18 Z M9.5,12 C9.5,12.5312 9.9375,13 10.5,13 L18.0938,13 L15.8125,15.2812 C15.625,15.4688 15.5312,15.75 15.5312,16 C15.5312,16.5625 15.9688,17 16.5,17 C16.75,17 17.0312,16.875 17.2188,16.6875 L21.2188,12.7188 C21.4062,12.5312 21.5,12.25 21.5,12 C21.5,11.75 21.4062,11.4688 21.2188,11.2812 L17.2188,7.3125 C17.0312,7.0938 16.75,7 16.5312,7 C16.2812,7 16,7.0938 15.8125,7.3125 C15.625,7.5 15.5312,7.75 15.5312,8 C15.5312,8.25 15.625,8.5 15.8125,8.7188 L18.0938,11 L10.5,11 C9.9375,11 9.5,11.4375 9.5,12 Z" id="🎨-Color"></path>
        </g>
    </g>
</svg>