<?xml version="1.0" encoding="UTF-8"?>
<svg width="24px" height="24px" viewBox="0 0 24 24" version="1.1" xmlns="http://www.w3.org/2000/svg" xmlns:xlink="http://www.w3.org/1999/xlink">
    <!-- Generator: Sketch 64 (93537) - https://sketch.com -->
    <title>ic-db_action_star_24</title>
    <desc>Created with Sketch.</desc>
    <g id="Symbols" stroke="none" stroke-width="1" fill="none" fill-rule="evenodd">
        <g id="24dp-Icon/Action/Star" fill="#282D37">
            <path d="M12,2.5 C12.375,2.5 12.7188,2.7187 12.9062,3.0625 L15.4375,8.2187 L21.1562,9.0625 C21.5625,9.125 22,9.4375 22,10 C22,10.2813 21.9062,10.5625 21.7188,10.75 L17.5938,14.7813 L18.5625,20.4687 C18.6875,21.0937 18.1562,21.625 17.5625,21.625 C17.4062,21.625 17.25,21.5937 17.0938,21.5 L12,18.8437 L6.9062,21.5 C6.75,21.5937 6.5938,21.625 6.4375,21.625 C5.8125,21.625 5.3125,21 5.4375,20.4687 L6.4375,14.7813 L2.2812,10.75 C2.0938,10.5625 2,10.2813 2,10 C2,9.5313 2.375,9.125 2.8438,9.0625 L8.5625,8.2187 L11.0938,3.0625 C11.2812,2.75 11.625,2.5 12,2.5 Z M12,5.75 L10.125,9.5625 C9.9688,9.875 9.6875,10.0937 9.375,10.125 L5.125,10.75 L8.1875,13.7187 C8.4375,13.9687 8.5312,14.2187 8.4688,14.5937 L7.75,18.8125 L11.5312,16.8125 C11.6875,16.75 11.8438,16.7187 12,16.7187 C12.1562,16.7187 12.3125,16.75 12.4688,16.8125 L16.25,18.8125 L15.5312,14.5937 C15.4688,14.2813 15.5625,13.9375 15.8125,13.7187 L18.875,10.75 L14.6562,10.125 C14.3125,10.0625 14.0312,9.875 13.875,9.5625 L12,5.75 Z" id="🎨-Color"></path>
        </g>
    </g>
</svg>