<?xml version="1.0" encoding="UTF-8"?>
<svg width="24px" height="24px" viewBox="0 0 24 24" version="1.1" xmlns="http://www.w3.org/2000/svg" xmlns:xlink="http://www.w3.org/1999/xlink">
    <!-- Generator: Sketch 64 (93537) - https://sketch.com -->
    <title>ic-db_action_zoom-out_24</title>
    <desc>Created with Sketch.</desc>
    <g id="Symbols" stroke="none" stroke-width="1" fill="none" fill-rule="evenodd">
        <g id="24dp-Icon/Action/Zoom-Out" fill="#282D37">
            <path d="M10,2 C14.4375,2 18.0312,5.59375 18.0312,10 C18.0312,11.875 17.4062,13.5625 16.3438,14.9375 L21.7188,20.28125 C21.9062,20.48437 22,20.74218 22,21 C22,21.57826 21.5749,21.99734 21.0076,21.99734 C20.786,21.99734 20.5636,21.92635 20.375,21.78125 L14.9375,16.34375 C13.5625,17.40625 11.875,18.03125 10,18.03125 C5.5938,18.03125 2,14.4375 2,10 C2,5.59375 5.5938,2 10,2 Z M10,4 C6.6875,4 4,6.6875 4,10 C4,13.34375 6.6875,16.03125 10,16.03125 C13.3438,16.03125 16.0312,13.34375 16.0312,10 C16.0312,6.6875 13.3438,4 10,4 Z M13,9 L7,9 C6.4375,9 6,9.4375 6,10 C6,10.5625 6.4375,11 7,11 L13,11 C13.5625,11 14.0312,10.5625 14.0312,10 C14.0312,9.4375 13.5625,9 13,9 Z" id="🎨-Color"></path>
        </g>
    </g>
</svg>