<?xml version="1.0" encoding="UTF-8"?>
<svg width="24px" height="24px" viewBox="0 0 24 24" version="1.1" xmlns="http://www.w3.org/2000/svg" xmlns:xlink="http://www.w3.org/1999/xlink">
    <!-- Generator: Sketch 64 (93537) - https://sketch.com -->
    <title>ic-db_action_info-circle_24</title>
    <desc>Created with Sketch.</desc>
    <g id="Symbols" stroke="none" stroke-width="1" fill="none" fill-rule="evenodd">
        <g id="24dp-Icon/Action/Info-Circle" fill="#282D37">
            <path d="M12,2 C17.53125,2 22,6.4688 22,12 C22,17.5312 17.53125,22 12,22 C6.46875,22 2,17.5312 2,12 C2,6.4688 6.46875,2 12,2 Z M12,4 C7.5625,4 4,7.5625 4,12 C4,16.4062 7.59375,20 12,20 C16.40625,20 20,16.4062 20,12 C20,7.5625 16.40625,4 12,4 Z M12,10 C12.59375,10 13,10.4375 13,11 L13,15 L14.03125,15 C14.5625,15 15,15.4688 15,16 C15,16.5312 14.5625,17 14.03125,17 L10,17 C9.46875,17 9,16.5312 9,16 C9,15.4375 9.46875,15 10,15 L11,15 L11,12 L10.0625,12 C9.5,12 9.0625,11.5312 9.0625,11 C9.0625,10.4688 9.5,10 10.0625,10 L12,10 Z M12,6 C12.6875,6 13.25,6.5312 13.25,7.2188 C13.25,7.9375 12.6875,8.4688 12,8.4688 C11.3125,8.4688 10.75,7.9375 10.75,7.2188 C10.75,6.5312 11.3125,6 12,6 Z" id="🎨-Color"></path>
        </g>
    </g>
</svg>