<?xml version="1.0" encoding="UTF-8"?>
<svg width="24px" height="24px" viewBox="0 0 24 24" version="1.1" xmlns="http://www.w3.org/2000/svg" xmlns:xlink="http://www.w3.org/1999/xlink">
    <!-- Generator: Sketch 64 (93537) - https://sketch.com -->
    <title>ic-db_action_star-on_24</title>
    <desc>Created with Sketch.</desc>
    <g id="Symbols:Icon" stroke="none" stroke-width="1" fill="none" fill-rule="evenodd">
        <g id="24dp-Icon/Action/Star-On" fill="#282D37">
            <path d="M6.4375,21.125 C5.8125,21.125 5.3125,20.5 5.4375,19.9687 L6.4375,14.2813 L2.2812,10.25 C2.0938,10.0625 2,9.7813 2,9.5 C2,9.0313 2.375,8.625 2.8438,8.5625 L8.5625,7.7187 L11.0938,2.5625 C11.2812,2.25 11.625,2 12,2 C12.375,2 12.7188,2.2187 12.9062,2.5625 L15.4375,7.7187 L21.1562,8.5625 C21.5625,8.625 22,8.9375 22,9.5 C22,9.7813 21.9062,10.0625 21.7188,10.25 L17.5938,14.2813 L18.5625,19.9687 C18.6875,20.5937 18.1562,21.125 17.5625,21.125 C17.4062,21.125 17.25,21.0937 17.0938,21 L12,18.3437 L6.9062,21 C6.75,21.0937 6.5938,21.125 6.4375,21.125 Z" id="🎨-Color"></path>
        </g>
    </g>
</svg>