<?xml version="1.0" encoding="UTF-8"?>
<svg width="24px" height="24px" viewBox="0 0 24 24" version="1.1" xmlns="http://www.w3.org/2000/svg" xmlns:xlink="http://www.w3.org/1999/xlink">
    <!-- Generator: Sketch 64 (93537) - https://sketch.com -->
    <title>ic-db_action_help_24</title>
    <desc>Created with Sketch.</desc>
    <g id="Symbols:Icon" stroke="none" stroke-width="1" fill="none" fill-rule="evenodd">
        <g id="24dp-Icon/Action/Help" fill="#282D37">
            <path d="M12,2 C17.5312,2 22,6.4688 22,12 C22,17.5312 17.5312,22 12,22 C6.4688,22 2,17.5312 2,12 C2,6.4688 6.4688,2 12,2 Z M12,4 C7.5938,4 4,7.5938 4,12 C4,16.4062 7.5938,20 12,20 C16.4375,20 20,16.4062 20,12 C20,7.5938 16.4062,4 12,4 Z M9.50169516,7.5312 C9.50169516,6.5312 10.9703952,6.2188 12.2203952,6.2188 C14.0329952,6.2188 15.3453952,7.3125 15.3453952,9 C15.3453952,11.9062 12.7203952,11.7188 12.7203952,13.0625 C12.7203952,13.5312 12.3766952,14.0312 11.7516952,14.0312 C11.2203952,14.0312 10.7829952,13.5938 10.7829952,13.0625 C10.7829952,10.4062 13.4079952,10.75 13.4079952,9 C13.4079952,8.375 12.8453952,8.1562 12.2829952,8.1562 C11.5016952,8.1562 10.8766952,8.5312 10.3766952,8.5 C9.87669516,8.4688 9.47039516,8.0625 9.50169516,7.5312 Z M10.55,16.7812 C10.55,17.5 11.1438,18.0625 11.8313,18.0625 C12.5188,18.0625 13.1126,17.5 13.1126,16.7812 C13.1126,16.0938 12.5188,15.5312 11.8313,15.5312 C11.1438,15.5312 10.55,16.0938 10.55,16.7812 Z" id="🎨-Color"></path>
        </g>
    </g>
</svg>