<?xml version="1.0" encoding="UTF-8"?>
<svg width="24px" height="24px" viewBox="0 0 24 24" version="1.1" xmlns="http://www.w3.org/2000/svg" xmlns:xlink="http://www.w3.org/1999/xlink">
    <!-- Generator: Sketch 64 (93537) - https://sketch.com -->
    <title>ic-db_action_schedule_24</title>
    <desc>Created with Sketch.</desc>
    <g id="Symbols" stroke="none" stroke-width="1" fill="none" fill-rule="evenodd">
        <g id="24dp-Icon/Action/Schedule" fill="#282D37">
            <path d="M12,2 C17.5164,2 22,6.4836 22,12 C22,17.5164 17.5164,22 12,22 C6.4836,22 2,17.5164 2,12 C2,6.4836 6.4836,2 12,2 Z M12,4.0188 C7.5869,4.0188 4.0188,7.5869 4.0188,12 C4.0188,16.4131 7.5869,19.9812 12,19.9812 C16.4131,19.9812 19.9812,16.4131 19.9812,12 C19.9812,7.5869 16.4131,4.0188 12,4.0188 Z M11,12.1174 L11,7 C11,6.4836 11.5,6 12,6 C12.5,6 13,6.5 13,7 C13,7 13.0031333,8.53363333 13.0094,11.6009 L15.7089,14.277 C15.9118,14.4672 16.0188,14.7259 16.0188,14.9865 C16.0188,15.4738 15.6317,15.9506 14.9774,15.9506 C14.7072,15.9506 14.4427,15.8622 14.277,15.6854 L11.3286,12.7277 C11.1409,12.5634 11.047,12.3521 11,12.1174 Z" id="🎨-Color"></path>
        </g>
    </g>
</svg>