<?xml version="1.0" encoding="UTF-8"?>
<svg width="24px" height="24px" viewBox="0 0 24 24" version="1.1" xmlns="http://www.w3.org/2000/svg" xmlns:xlink="http://www.w3.org/1999/xlink">
    <!-- Generator: Sketch 64 (93537) - https://sketch.com -->
    <title>ic-db_action_share_24</title>
    <desc>Created with Sketch.</desc>
    <g id="Symbols" stroke="none" stroke-width="1" fill="none" fill-rule="evenodd">
        <g id="24dp-Icon/Action/Share" fill="#282D37">
            <path d="M17.5078531,3 C19.4297218,3 21,4.57027818 21,6.49214695 C21,8.43747504 19.4297218,10.0078531 17.5078531,10.0078531 C16.4062625,10.0078531 15.4687874,9.49214695 14.812525,8.71878744 L14.812525,8.71878744 L9.8906562,11.1562625 C9.96093438,11.437475 10.0078531,11.7187874 10.0078531,12 C10.0078531,12.2812126 9.96093438,12.562525 9.8906562,12.8202782 L9.8906562,12.8202782 L14.8359843,15.2578531 C15.4687874,14.4843937 16.4297218,13.9921469 17.5078531,13.9921469 C19.4297218,13.9921469 21,15.562525 21,17.5078531 C21,19.4297218 19.4297218,21 17.5078531,21 C15.562525,21 13.9921469,19.4297218 13.9921469,17.5078531 C13.9921469,17.3671969 14.0204978,17.1737322 14.0390656,17.0859843 L14.0390656,17.0859843 L8.88280314,14.5546719 C8.25,15.1406562 7.42972182,15.4922468 6.49214695,15.4922468 C4.57027818,15.4922468 3,13.9453281 3,12 C3,10.0781312 4.57027818,8.50775323 6.49214695,8.50775323 C7.40626248,8.50775323 8.25,8.8593438 8.8593438,9.4453281 L8.8593438,9.4453281 L14.0390656,6.8906562 C14.00772,6.7651737 13.9921469,6.63280314 13.9921469,6.49214695 C13.9921469,4.57027818 15.562525,3 17.5078531,3 Z M17.4960324,15.9843937 C16.6588415,15.9843937 15.9843937,16.6588415 15.9843937,17.4960324 C15.9843937,18.3099459 16.6588415,18.9843937 17.4960324,18.9843937 C18.3099459,18.9843937 18.9843937,18.3099459 18.9843937,17.4960324 C18.9843937,16.6588415 18.3099459,15.9843937 17.4960324,15.9843937 Z M6.49214695,10.5 C5.67186876,10.5 4.99214695,11.1797218 4.99214695,12 C4.99214695,12.8202782 5.67186876,13.5 6.49214695,13.5 C7.33588447,13.5 8.01560628,12.8202782 8.01560628,12 C8.01560628,11.1797218 7.33588447,10.5 6.49214695,10.5 Z M17.5116387,5 C16.6744478,5 16,5.67444778 16,6.48836134 C16,7.32555222 16.6744478,8 17.5116387,8 C18.3255522,8 19,7.32555222 19,6.48836134 C19,5.67444778 18.3255522,5 17.5116387,5 Z" id="🎨-Color"></path>
        </g>
    </g>
</svg>