<?xml version="1.0" encoding="UTF-8"?>
<svg width="24px" height="24px" viewBox="0 0 24 24" version="1.1" xmlns="http://www.w3.org/2000/svg" xmlns:xlink="http://www.w3.org/1999/xlink">
    <!-- Generator: Sketch 64 (93537) - https://sketch.com -->
    <title>ic-db_action_credit-card_24</title>
    <desc>Created with Sketch.</desc>
    <g id="Symbols" stroke="none" stroke-width="1" fill="none" fill-rule="evenodd">
        <g id="24dp-Icon/Action/Credit-Card" fill="#282D37">
            <path d="M19.5,5 C20.8438,5 22,6.0298 22,7.3438 L22,16.5 C22,17.8438 20.9702,19 19.6562,19 L4.5,19 C3.1562,19 2,17.9702 2,16.6562 L2,7.5 C2,6.1875 3.0298,5 4.3438,5 L19.5,5 Z M20,11 L4,11 L4,16.5 C4,16.7519 4.1562,17 4.4062,17 L19.5,17 C19.75,17 20,16.8438 20,16.5938 L20,11 Z M19.5938,7 L4.5,7 C4.25,7 4,7.1875 4,7.4062 L4,9 L20,9 L20,7.5 C20,7.25 19.8457,7 19.5938,7 Z M11,13 C11.5625,13 12,13.4688 12,14 C12,14.5312 11.5947,15 11.0938,15 L7,15 C6.4375,15 6,14.5625 6,14 C6,13.5 6.4053,13 6.9062,13 L11,13 Z" id="🎨-Color"></path>
        </g>
    </g>
</svg>