<?xml version="1.0" encoding="UTF-8"?>
<svg width="24px" height="24px" viewBox="0 0 24 24" version="1.1" xmlns="http://www.w3.org/2000/svg" xmlns:xlink="http://www.w3.org/1999/xlink">
    <!-- Generator: Sketch 64 (93537) - https://sketch.com -->
    <title>ic-db_action_add-circle_24</title>
    <desc>Created with Sketch.</desc>
    <g id="Symbols:Icon" stroke="none" stroke-width="1" fill="none" fill-rule="evenodd">
        <g id="24dp-Icon/Action/Add-Circle" fill="#282D37">
            <path d="M12,2 C17.5164,2 22,6.4836 22,12 C22,17.5164 17.5164,22 12,22 C6.4836,22 2,17.5164 2,12 C2,6.4836 6.4836,2 12,2 Z M12,4.0188 C7.5869,4.0188 4.0188,7.5869 4.0188,12 C4.0188,16.4131 7.5869,19.9812 12,19.9812 C16.4131,19.9812 19.9812,16.4131 19.9812,12 C19.9812,7.5869 16.4131,4.0188 12,4.0188 Z M12,7 C12.5634,7 13,7.4366 13,8 L13,11 L16,11 C16.5634,11 17,11.4366 17,12 C17,12.5634 16.5634,13 16,13 L13.0094,13.0094 L13,16 C13,16.5634 12.5634,17 12,17 C11.4366,17 11,16.5634 11,16 L11,13 L8.0094,13.0094 C7.446,13.0094 7,12.5634 7,12 C7,11.4366 7.4366,11 8,11 L11,11 L11,8 C11,7.4366 11.4366,7 12,7 Z" id="🎨-Color"></path>
        </g>
    </g>
</svg>