<?xml version="1.0" encoding="UTF-8"?>
<svg width="24px" height="24px" viewBox="0 0 24 24" version="1.1" xmlns="http://www.w3.org/2000/svg" xmlns:xlink="http://www.w3.org/1999/xlink">
    <!-- Generator: Sketch 64 (93537) - https://sketch.com -->
    <title>ic-db_action_heart_24</title>
    <desc>Created with Sketch.</desc>
    <g id="Symbols:Icon" stroke="none" stroke-width="1" fill="none" fill-rule="evenodd">
        <g id="24dp-Icon/Action/Heart" fill="#282D37">
            <path d="M16.5625,3.5 C19.5938,3.5 22,5.96875 22,8.96875 C22,10.34375 21.5333,11.75208 20.4375,12.8125 L12.6875,20.3125 C12.5,20.5 12.2812,20.59375 12,20.59375 C11.75,20.59375 11.5,20.5 11.3125,20.3125 L3.5938,12.8125 C2.5318,11.78066 2,10.375 2,8.96875 C2,5.96875 4.4375,3.5 7.4375,3.5 C8.875,3.5 10.2655,4.078 11.2812,5.09375 L12,5.8125 L12.7188,5.09375 C13.7657,4.04676 15.1875,3.5 16.5625,3.5 Z M16.5625,5.5 C15.6875,5.5 14.7812,5.875 14.125,6.53125 L12.7188,7.9375 C12.5312,8.125 12.25,8.25 12,8.25 C11.75,8.25 11.5,8.125 11.3125,7.9375 L9.875,6.5 C9.25,5.875 8.3438,5.5 7.4375,5.5 C5.5312,5.5 4,7.0625 4,8.96875 C4,9.84375 4.3189,10.71213 5,11.375 L12,18.1875 L19,11.375 C19.6659,10.72698 20.0312,9.84375 20.0312,8.9375 C20.0312,7.0625 18.4688,5.5 16.5625,5.5 Z" id="🎨-Color"></path>
        </g>
    </g>
</svg>