<?xml version="1.0" encoding="UTF-8"?>
<svg width="24px" height="24px" viewBox="0 0 24 24" version="1.1" xmlns="http://www.w3.org/2000/svg" xmlns:xlink="http://www.w3.org/1999/xlink">
    <!-- Generator: Sketch 64 (93537) - https://sketch.com -->
    <title>ic-db_action_shopping-cart_24</title>
    <desc>Created with Sketch.</desc>
    <g id="Symbols:Icon" stroke="none" stroke-width="1" fill="none" fill-rule="evenodd">
        <g id="24dp-Icon/Action/Shopping-Cart" fill="#282D37">
            <path d="M8.75,19.5 C9.4375,19.5 10,20.0625 10,20.75 C10,21.4375 9.4375,22 8.75,22 C8.0625,22 7.5,21.4375 7.5,20.75 C7.5,20.0625 8.0625,19.5 8.75,19.5 Z M17.25,19.5 C17.9375,19.5 18.5,20.0625 18.5,20.75 C18.5,21.4375 17.9375,22 17.25,22 C16.5625,22 16,21.4375 16,20.75 C16,20.0625 16.5625,19.5 17.25,19.5 Z M4.15625,3 C5.46875,3 6.6875,3.5 7,5.0937 L19.75,5.0937 C20.84375,5.0937 21.6875,6.0937 21.46875,7.1563 L20.5,11.1563 C20.28125,12.2187 19.40625,13.0313 18.3125,13.1563 L8.65625,14.2187 L8.90625,15.5937 C8.9375,15.8437 9.15625,16.0313 9.375,16.0313 L17.625,16.0313 C18.1875,16.0313 18.65625,16.4687 18.65625,17.0313 C18.65625,17.5625 18.1875,18 17.625,18 L9.375,18 C8.15625,18 7.09375,17.125 6.90625,15.9063 L5.125,5.8437 C5.0625,5.3437 4.625,5 4.15625,5 L3,5 C2.4375,5 2,4.5625 2,4 C2,3.4687 2.4375,3 3,3 L4.15625,3 Z M19.28125,7.0313 L7.28125,7.0313 L8.25,12.25 L17.9375,11.1563 C18.15625,11.125 18.34375,10.9687 18.375,10.75 L19.28125,7.0313 Z" id="🎨-Color"></path>
        </g>
    </g>
</svg>