<svg width="24" height="24" xmlns="http://www.w3.org/2000/svg"><path d="M12 2c.375 0 .719.219.906.563l2.531 5.156 5.72.843c.405.063.843.376.843.938 0 .281-.094.563-.281.75l-4.125 4.031.968 5.688c.125.625-.406 1.156-1 1.156a.882.882 0 01-.468-.125L12 18.344 6.906 21a.882.882 0 01-.468.125c-.625 0-1.125-.625-1-1.156l1-5.688L2.28 10.25C2.094 10.062 2 9.781 2 9.5c0-.469.375-.875.844-.938l5.719-.843 2.53-5.157C11.282 2.25 11.626 2 12 2zm0 3.25l-1.875 3.813c-.156.312-.438.53-.75.562l-4.25.625 3.063 2.969c.25.25.343.5.28.875l-.718 4.219 3.781-2c.156-.063.313-.094.469-.094.156 0 .313.031.469.093l3.781 2-.719-4.218a.925.925 0 01.281-.875l3.063-2.969-4.219-.625c-.344-.063-.625-.25-.781-.563L12 5.25z" fill="#282D37" fill-rule="evenodd"/></svg>