<?xml version="1.0" encoding="UTF-8"?>
<svg width="24px" height="24px" viewBox="0 0 24 24" version="1.1" xmlns="http://www.w3.org/2000/svg" xmlns:xlink="http://www.w3.org/1999/xlink">
    <!-- Generator: Sketch 64 (93537) - https://sketch.com -->
    <title>ic-db_action_website_24</title>
    <desc>Created with Sketch.</desc>
    <g id="Symbols" stroke="none" stroke-width="1" fill="none" fill-rule="evenodd">
        <g id="24dp-Icon/Action/Website" fill="#282D37">
            <path d="M12,2 C17.5,2 22,6.5 22,12 C22,17.5312 17.5312,22 12,22 C6.4688,22 2,17.5312 2,12 C2,6.4688 6.4688,2 12,2 Z M8,13 L4.0625,13 C4.5,16.5625 7.3125,19.4375 11,19.9375 C9.75,18.3438 8.6875,15.875 8,13 Z M14.5625,13 L10.0625,13 C11.1875,17.6875 13.1875,19.8125 13.8125,19.6562 C14.25,19.5625 14.8125,18.25 14.8125,15.9062 C14.8125,15.0625 14.7188,14.0938 14.5625,13 Z M19.9375,13 L16.5625,13 C16.7188,14 16.7812,14.9688 16.7812,15.875 C16.7812,16.875 16.6875,17.8125 16.5,18.5938 C18.4688,17.2188 19.5312,15.5312 19.9375,13 Z M7.6875,5.2812 C5.5625,6.6875 4.375,8.6875 4.0625,11 L7.625,11 C7.4688,9.9688 7.4062,8.9375 7.4062,8 C7.4062,7 7.5,6.0938 7.6875,5.2812 Z M10.4062,4.25 C9.9688,4.25 9.375,5.5625 9.375,8 C9.375,8.875 9.4375,9.875 9.625,11 L14.1562,11 C13.0312,6.375 11.125,4.25 10.4062,4.25 Z M13.2812,4.0938 C14.5625,5.8438 15.5625,8.25 16.2188,11 L19.9375,11 C19.4375,7.4375 16.7812,4.6875 13.2812,4.0938 Z" id="🎨-Color"></path>
        </g>
    </g>
</svg>