<?xml version="1.0" encoding="utf-8"?>
<!-- Generator: Adobe Illustrator 24.1.2, SVG Export Plug-In . SVG Version: 6.00 Build 0)  -->
<svg version="1.1" xmlns="http://www.w3.org/2000/svg" xmlns:xlink="http://www.w3.org/1999/xlink" x="0px" y="0px"
	 viewBox="0 0 24 24" style="enable-background:new 0 0 24 24;" xml:space="preserve">
<style type="text/css">
	.st0{fill:#3F434C;}
</style>
<g id="guides">
</g>
<g id="Ebene_1">
	<path class="st0" d="M4.9,4.9C1,8.8,1,15.2,4.9,19.1c3.9,3.9,10.2,3.9,14.1,0c3.9-3.9,3.9-10.2,0-14.1S8.8,1,4.9,4.9z M18,13h-5v5
		c0,0.6-0.4,1-1,1c-0.6,0-1-0.4-1-1v-5H6c-0.6,0-1-0.4-1-1c0-0.6,0.4-1,1-1h5V6c0-0.6,0.4-1,1-1c0.6,0,1,0.4,1,1v5h5
		c0.6,0,1,0.4,1,1C19,12.6,18.6,13,18,13z"/>
</g>
</svg>
