<?xml version="1.0" encoding="utf-8"?>
<!-- Generator: Adobe Illustrator 24.1.2, SVG Export Plug-In . SVG Version: 6.00 Build 0)  -->
<svg version="1.1" xmlns="http://www.w3.org/2000/svg" xmlns:xlink="http://www.w3.org/1999/xlink" x="0px" y="0px"
	 viewBox="0 0 24 24" style="enable-background:new 0 0 24 24;" xml:space="preserve">
<style type="text/css">
	.st0{fill:#3F434C;}
</style>
<g id="guides">
</g>
<g id="Ebene_1">
	<path class="st0" d="M17,9V8c0-2.8-2.2-5-5-5S7,5.2,7,8v1c-2.2,0-4,1.8-4,4v6c0,1.1,0.9,2,2,2h14c1.1,0,2-0.9,2-2v-6
		C21,10.8,19.2,9,17,9z M9,8c0-1.7,1.3-3,3-3c1.7,0,3,1.3,3,3v0.5H9V8z M19,19H5v-6c0-1.1,0.9-2,2-2h10c1.1,0,2,0.9,2,2V19z"/>
	<path class="st0" d="M13.6,14.4l-1-0.1l-0.4-0.9c-0.1-0.1-0.2-0.2-0.3-0.2c-0.1,0-0.3,0.1-0.3,0.2l-0.4,0.9l-1,0.1
		c-0.1,0-0.2,0.1-0.3,0.2c0,0.1,0,0.3,0.1,0.4l0.7,0.7l-0.2,1c0,0.1,0,0.3,0.1,0.4c0.1,0,0.1,0.1,0.2,0.1c0.1,0,0.1,0,0.2,0l0.9-0.5
		l0.9,0.5c0.1,0.1,0.3,0.1,0.4,0c0.1-0.1,0.2-0.2,0.1-0.4l-0.2-1l0.7-0.7c0.1-0.1,0.1-0.2,0.1-0.4C13.8,14.5,13.7,14.4,13.6,14.4z"
		/>
</g>
</svg>
