<?xml version="1.0" encoding="utf-8"?>
<!-- Generator: Adobe Illustrator 24.1.2, SVG Export Plug-In . SVG Version: 6.00 Build 0)  -->
<svg version="1.1" xmlns="http://www.w3.org/2000/svg" xmlns:xlink="http://www.w3.org/1999/xlink" x="0px" y="0px"
	 viewBox="0 0 24 24" style="enable-background:new 0 0 24 24;" xml:space="preserve">
<style type="text/css">
	.st0{fill:#3F434C;}
</style>
<g id="guides">
</g>
<g id="Ebene_1">
	<path class="st0" d="M18.1,9.3c-0.4-0.2-0.7-0.3-0.9-0.4l-3.5-3.5c-1.7-1.7-4.3-1.9-6.2-0.6C6.9,4.6,6.1,4.8,5.4,5.4
		C4.8,6.1,4.6,6.9,4.9,7.5c-1.3,1.9-1.1,4.5,0.6,6.2l3.5,3.5c0.1,0.1,0.3,0.5,0.4,0.9c0.3,0.7,0.7,1.7,1.6,2.6c0.4,0.4,1,0.4,1.4,0
		l2.5-2.5c1,0.6,2.3,0.5,3.1-0.3c0.8-0.8,0.9-2.1,0.3-3.1l2.5-2.5c0.4-0.4,0.4-1,0-1.4C19.8,10,18.8,9.6,18.1,9.3z M11.8,18.6
		c-0.3-0.4-0.4-0.8-0.6-1.2c-0.2-0.5-0.4-1.1-0.9-1.5l-3.5-3.5c-1.1-1.1-1.1-3,0-4.2l1.4-1.4c1.1-1.1,3-1.1,4.2,0l3.5,3.5
		c0.4,0.4,0.9,0.6,1.5,0.9c0.4,0.2,0.8,0.3,1.2,0.6L11.8,18.6z"/>
</g>
</svg>
