<?xml version="1.0" encoding="utf-8"?>
<!-- Generator: Adobe Illustrator 24.1.2, SVG Export Plug-In . SVG Version: 6.00 Build 0)  -->
<svg version="1.1" xmlns="http://www.w3.org/2000/svg" xmlns:xlink="http://www.w3.org/1999/xlink" x="0px" y="0px"
	 viewBox="0 0 24 24" style="enable-background:new 0 0 24 24;" xml:space="preserve">
<style type="text/css">
	.st0{fill:#3F434C;}
</style>
<g id="guides">
</g>
<g id="Ebene_1">
	<path class="st0" d="M12,22c5.5,0,10-4.5,10-10c0-5.5-4.5-10-10-10S2,6.5,2,12C2,17.5,6.5,22,12,22z M12,4c4.4,0,8,3.6,8,8
		s-3.6,8-8,8c-4.4,0-8-3.6-8-8S7.6,4,12,4z"/>
	<path class="st0" d="M9.8,16.2c0.2,0.2,0.5,0.3,0.7,0.3s0.5-0.1,0.7-0.3l5.5-5.5c0.4-0.4,0.4-1,0-1.4s-1-0.4-1.4,0l-4.8,4.8
		l-1.8-1.8c-0.4-0.4-1-0.4-1.4,0s-0.4,1,0,1.4L9.8,16.2z"/>
</g>
</svg>
