<?xml version="1.0" encoding="utf-8"?>
<!-- Generator: Adobe Illustrator 24.1.2, SVG Export Plug-In . SVG Version: 6.00 Build 0)  -->
<svg version="1.1" xmlns="http://www.w3.org/2000/svg" xmlns:xlink="http://www.w3.org/1999/xlink" x="0px" y="0px"
	 viewBox="0 0 24 24" style="enable-background:new 0 0 24 24;" xml:space="preserve">
<style type="text/css">
	.st0{fill:#3F434C;}
</style>
<g id="guides">
</g>
<g id="Ebene_1">
	<path class="st0" d="M4,20h16c0.4,0,0.7-0.2,0.9-0.5c0.2-0.3,0.2-0.7,0-1l-8-15c-0.3-0.7-1.4-0.7-1.8,0l-8,15c-0.2,0.3-0.2,0.7,0,1
		C3.3,19.8,3.6,20,4,20z M12,6.1L18.3,18H5.7L12,6.1z"/>
	<path class="st0" d="M12,9L12,9c-0.6,0-1,0.4-1,1v3c0,0.6,0.4,1,1,1h0c0.6,0,1-0.4,1-1v-3C13,9.4,12.6,9,12,9z"/>
	<path class="st0" d="M12,15L12,15c-0.6,0-1,0.4-1,1c0,0.6,0.4,1,1,1h0c0.6,0,1-0.4,1-1C13,15.4,12.6,15,12,15z"/>
</g>
</svg>
