<?xml version="1.0" encoding="utf-8"?>
<!-- Generator: Adobe Illustrator 24.1.2, SVG Export Plug-In . SVG Version: 6.00 Build 0)  -->
<svg version="1.1" xmlns="http://www.w3.org/2000/svg" xmlns:xlink="http://www.w3.org/1999/xlink" x="0px" y="0px"
	 viewBox="0 0 24 24" style="enable-background:new 0 0 24 24;" xml:space="preserve">
<style type="text/css">
	.st0{fill:#3F434C;}
</style>
<g id="guides">
</g>
<g id="Ebene_1">
	<path class="st0" d="M14,11h-1V9c0-0.6-0.4-1-1-1s-1,0.4-1,1v3c0,0.6,0.4,1,1,1h2c0.6,0,1-0.4,1-1S14.6,11,14,11z"/>
	<path class="st0" d="M20.1,6.8l-2.8-2.8c-0.4-0.4-1-0.4-1.4,0l-0.9,0.9C14,4.4,13,4.2,12,4.2c-1,0-2,0.2-2.9,0.6L8.2,3.9
		c-0.4-0.4-1-0.4-1.4,0L3.9,6.8c-0.4,0.4-0.4,1,0,1.4l0.9,0.9C4.5,10,4.2,11,4.2,12c0,1.8,0.6,3.4,1.6,4.7l-1.6,1.6
		c-0.4,0.4-0.4,1,0,1.4C4.5,19.9,4.7,20,5,20s0.5-0.1,0.7-0.3l1.6-1.6c1.3,1,2.9,1.6,4.7,1.6c1.8,0,3.4-0.6,4.7-1.6l1.6,1.6
		c0.2,0.2,0.5,0.3,0.7,0.3s0.5-0.1,0.7-0.3c0.4-0.4,0.4-1,0-1.4l-1.6-1.6c1-1.3,1.6-2.9,1.6-4.7c0-1-0.2-2-0.6-2.9l0.9-0.9
		C20.5,7.8,20.5,7.1,20.1,6.8z M12,17.8c-3.2,0-5.8-2.6-5.8-5.8c0-3.2,2.6-5.8,5.8-5.8s5.8,2.6,5.8,5.8C17.8,15.2,15.2,17.8,12,17.8
		z"/>
</g>
</svg>
