<?xml version="1.0" encoding="utf-8"?>
<!-- Generator: Adobe Illustrator 24.1.2, SVG Export Plug-In . SVG Version: 6.00 Build 0)  -->
<svg version="1.1" xmlns="http://www.w3.org/2000/svg" xmlns:xlink="http://www.w3.org/1999/xlink" x="0px" y="0px"
	 viewBox="0 0 24 24" style="enable-background:new 0 0 24 24;" xml:space="preserve">
<style type="text/css">
	.st0{fill:#3F434C;}
</style>
<g id="guides">
</g>
<g id="Ebene_1">
	<path class="st0" d="M9.3,18.7c0.4,0.4,1,0.4,1.4,0c0.4-0.4,0.4-1,0-1.4L6.4,13H20c0.6,0,1-0.4,1-1c0-0.6-0.4-1-1-1H6.4l4.3-4.3
		C10.9,6.5,11,6.3,11,6c0-0.3-0.1-0.5-0.3-0.7c-0.4-0.4-1-0.4-1.4,0l-6,6c-0.4,0.4-0.4,1,0,1.4L9.3,18.7z"/>
</g>
</svg>
