<?xml version="1.0" encoding="utf-8"?>
<!-- Generator: Adobe Illustrator 24.1.2, SVG Export Plug-In . SVG Version: 6.00 Build 0)  -->
<svg version="1.1" xmlns="http://www.w3.org/2000/svg" xmlns:xlink="http://www.w3.org/1999/xlink" x="0px" y="0px"
	 viewBox="0 0 24 24" style="enable-background:new 0 0 24 24;" xml:space="preserve">
<style type="text/css">
	.st0{fill:#3F434C;}
</style>
<g id="guides">
</g>
<g id="Ebene_1">
	<path class="st0" d="M11.3,20.7c0.4,0.4,1,0.4,1.4,0l6-6c0.4-0.4,0.4-1,0-1.4c-0.4-0.4-1-0.4-1.4,0L13,17.6V4c0-0.6-0.4-1-1-1
		c-0.6,0-1,0.4-1,1v13.6l-4.3-4.3C6.5,13.1,6.3,13,6,13c-0.3,0-0.5,0.1-0.7,0.3c-0.4,0.4-0.4,1,0,1.4L11.3,20.7z"/>
</g>
</svg>
