<?xml version="1.0" encoding="utf-8"?>
<!-- Generator: Adobe Illustrator 24.1.2, SVG Export Plug-In . SVG Version: 6.00 Build 0)  -->
<svg version="1.1" xmlns="http://www.w3.org/2000/svg" xmlns:xlink="http://www.w3.org/1999/xlink" x="0px" y="0px"
	 viewBox="0 0 24 24" style="enable-background:new 0 0 24 24;" xml:space="preserve">
<style type="text/css">
	.st0{fill:#3F434C;}
</style>
<g id="guides">
</g>
<g id="Ebene_1">
	<path class="st0" d="M8,11c0,0.6,0.4,1,1,1h6c0.6,0,1-0.4,1-1s-0.4-1-1-1H9C8.4,10,8,10.4,8,11z"/>
	<path class="st0" d="M9,9h2c0.6,0,1-0.4,1-1s-0.4-1-1-1H9C8.4,7,8,7.4,8,8S8.4,9,9,9z"/>
	<path class="st0" d="M15,13H9c-0.6,0-1,0.4-1,1s0.4,1,1,1h6c0.6,0,1-0.4,1-1S15.6,13,15,13z"/>
	<path class="st0" d="M15,16H9c-0.6,0-1,0.4-1,1s0.4,1,1,1h6c0.6,0,1-0.4,1-1S15.6,16,15,16z"/>
	<path class="st0" d="M20,7.6L20,7.6c-0.1-0.2-0.2-0.3-0.3-0.5l-4.8-4.8c-0.1-0.1-0.3-0.2-0.4-0.2L14.4,2H6C4.9,2,4,2.9,4,4v16
		c0,1.1,0.9,2,2,2h12c1.1,0,2-0.9,2-2V7.6z M18,20H6V4h7.2v3.8c0,0.6,0.4,1,1,1H18V20z"/>
</g>
</svg>
