<?xml version="1.0" encoding="utf-8"?>
<!-- Generator: Adobe Illustrator 24.1.2, SVG Export Plug-In . SVG Version: 6.00 Build 0)  -->
<svg version="1.1" xmlns="http://www.w3.org/2000/svg" xmlns:xlink="http://www.w3.org/1999/xlink" x="0px" y="0px"
	 viewBox="0 0 24 24" style="enable-background:new 0 0 24 24;" xml:space="preserve">
<style type="text/css">
	.st0{fill:#3F434C;}
</style>
<g id="guides">
</g>
<g id="Ebene_1">
	<path class="st0" d="M10,6C9.4,6,9,6.4,9,7v8c0,1.7,1.3,3,3,3s3-1.3,3-3V5c0-1.7-1.3-3-3-3H8C6.3,2,5,3.3,5,5v10c0,3.9,3.1,7,7,7
		s7-3.1,7-7V7c0-0.6-0.4-1-1-1s-1,0.4-1,1v8c0,2.8-2.2,5-5,5s-5-2.2-5-5V5c0-0.6,0.4-1,1-1h4c0.6,0,1,0.4,1,1v10c0,0.6-0.4,1-1,1
		s-1-0.4-1-1V7C11,6.4,10.6,6,10,6z"/>
</g>
</svg>
