<?xml version="1.0" encoding="utf-8"?>
<!-- Generator: Adobe Illustrator 24.1.2, SVG Export Plug-In . SVG Version: 6.00 Build 0)  -->
<svg version="1.1" xmlns="http://www.w3.org/2000/svg" xmlns:xlink="http://www.w3.org/1999/xlink" x="0px" y="0px"
	 viewBox="0 0 24 24" style="enable-background:new 0 0 24 24;" xml:space="preserve">
<style type="text/css">
	.st0{fill:#3F434C;}
</style>
<g id="guides">
</g>
<g id="Ebene_1">
	<path class="st0" d="M19.9,4c-2.7,0.1-6,0.5-7.9,1.7C10.1,4.5,6.7,4.1,4.1,4C3.5,4,3,4.2,2.6,4.6C2.2,4.9,2,5.5,2,6v10
		c0,1.1,0.8,2,1.9,2c3.7,0.1,6.5,0.8,7.4,1.7c0.2,0.2,0.5,0.3,0.7,0.3s0.5-0.1,0.7-0.3c0.9-0.9,3.7-1.5,7.4-1.7c1.1,0,1.9-0.9,1.9-2
		V6c0-0.5-0.2-1.1-0.6-1.5C21,4.2,20.5,4,19.9,4z M12,17.7c-1.9-1.2-5.3-1.6-8-1.7L4,6c3.6,0.2,6.4,0.8,7.3,1.7c0.4,0.4,1,0.4,1.4,0
		C13.6,6.8,16.4,6.2,20,6l0,10C17.3,16.1,13.9,16.5,12,17.7z"/>
	<path class="st0" d="M11.3,9.4l-1.5,0.9H8.5c-0.3,0-0.5,0.2-0.5,0.5v2.4c0,0.3,0.2,0.5,0.5,0.5h1.2l1.5,0.9
		c0.3,0.2,0.7-0.1,0.7-0.4V9.9C12,9.5,11.6,9.2,11.3,9.4z"/>
	<path class="st0" d="M13.3,9.5c-0.4,0.4-0.4,1,0,1.4c0.6,0.6,0.6,1.5,0,2.1c-0.4,0.4-0.4,1,0,1.4c0.2,0.2,0.5,0.3,0.7,0.3
		s0.5-0.1,0.7-0.3c1.4-1.4,1.4-3.6,0-4.9C14.3,9.1,13.7,9.1,13.3,9.5z"/>
</g>
</svg>
