<?xml version="1.0" encoding="UTF-8"?>
<svg width="24px" height="24px" viewBox="0 0 24 24" version="1.1" xmlns="http://www.w3.org/2000/svg" xmlns:xlink="http://www.w3.org/1999/xlink">
    <!-- Generator: Sketch 64 (93537) - https://sketch.com -->
    <title>ic-db_av_subtitles_24</title>
    <desc>Created with Sketch.</desc>
    <g id="Symbols:Icon" stroke="none" stroke-width="1" fill="none" fill-rule="evenodd">
        <g id="24dp-Icon/AV/Subtitles" fill="#282D37">
            <path d="M19.5,5 C20.875,5 22,6.125 22,7.5 L22,7.5 L22,16.5 C22,17.875 20.875,19 19.5,19 L19.5,19 L4.5,19 C3.125,19 2,17.875 2,16.5 L2,16.5 L2,7.5 C2,6.125 3.125,5 4.5,5 L4.5,5 Z M19.5,7 L4.5,7 C4.2188,7 4,7.2188 4,7.5 L4,7.5 L4,16.5 C4,16.7812 4.2188,17 4.5,17 L4.5,17 L19.5,17 C19.7812,17 20,16.7812 20,16.5 L20,16.5 L20,7.5 C20,7.2188 19.7812,7 19.5,7 L19.5,7 Z M6,14 C6,14.5625 6.4375,15 7,15 L12,15 C12.5312,15 13,14.5625 13,14 C13,13.4375 12.5312,13 12,13 L7,13 C6.4375,13 6,13.4375 6,14 Z M15,14 C15,14.5625 15.4688,15 16.0312,15 L16.9688,15 C17.5312,15 18,14.5625 18,14 C18,13.4375 17.5312,13 16.9688,13 L16.0312,13 C15.4688,13 15,13.4375 15,14 Z" id="🎨-Color"></path>
        </g>
    </g>
</svg>