<?xml version="1.0" encoding="UTF-8"?>
<svg width="24px" height="24px" viewBox="0 0 24 24" version="1.1" xmlns="http://www.w3.org/2000/svg" xmlns:xlink="http://www.w3.org/1999/xlink">
    <!-- Generator: Sketch 64 (93537) - https://sketch.com -->
    <title>ic-db_av_skip-backward-filled_24</title>
    <desc>Created with Sketch.</desc>
    <g id="Symbols:Icon" stroke="none" stroke-width="1" fill="none" fill-rule="evenodd">
        <g id="24dp-Icon/AV/Skip-Backward-Filled" fill="#282D37">
            <path d="M19,16.9564 L19,7.0436 C19,5.9161 18.0604,5 16.9564,5 C16.557,5 16.1577,5.1409 15.8054,5.3758 L9.3523,10.3322 C8.8121,10.7081 8.5067,11.3423 8.5067,12 C8.5067,12.6577 8.8121,13.2919 9.3523,13.6678 L15.8054,18.6242 C16.1577,18.8591 16.557,19 16.9799,19 C18.0134,19 19,18.1309 19,16.9564 Z M6.9966,17.0034 L6.9966,6.9732 C6.9966,6.4329 6.5503,5.9866 6.0101,5.9866 C5.4698,5.9866 5,6.4329 5,6.9732 L5,17.0034 C5,17.5436 5.4463,17.9899 6.0101,17.9899 C6.5503,17.9899 6.9966,17.5436 6.9966,17.0034 Z" id="🎨-Color"></path>
        </g>
    </g>
</svg>