<svg width="24" height="24" xmlns="http://www.w3.org/2000/svg"><path d="M19.248 3.75c.516 0 .938.422.938.939 0 .305-.14.54-.328.727L5.004 20.223a.97.97 0 01-.634.258c-.516 0-.939-.445-.939-.962 0-.281.118-.516.329-.727l2.628-2.652-.211-.14h-1.69A2.474 2.474 0 012 13.511v-2.98a2.46 2.46 0 012.487-2.488h1.69l4.247-2.84a.985.985 0 01.564-.163c.563 0 .985.469.985 1.009v4.529l1.76-1.737a1.009 1.009 0 01-.258-.657c0-.54.446-.962.962-.962.258 0 .54.164.657.258l1.103-1.103-.328-.211a1.015 1.015 0 01-.493-.845c0-.54.446-.938.962-.938.164 0 .328.023.47.117l.774.493 1.009-.986a.867.867 0 01.657-.258zm-9.27 4.154L7.046 9.85a1.011 1.011 0 01-.563.188H4.487a.476.476 0 00-.492.47v3.003c0 .258.21.493.492.493h1.995c.188 0 .399.07.563.188l.775.516 2.159-2.136v-4.67zm-.351 10.419l.797.54c.141.117.376.163.564.163.563 0 .985-.445.985-1.009v-2.041l-2.347 2.347zm5.725-5.68c-.164.963-.657 1.808-1.455 2.37a1.013 1.013 0 00-.422.799c0 .516.422.962.962.962.188 0 .376-.07.54-.165 1.525-1.032 2.346-2.792 2.346-4.622 0-.423-.047-.822-.117-1.22l-1.854 1.877zm4.74-4.74a8.807 8.807 0 011.033 4.107 8.66 8.66 0 01-4.318 7.486.846.846 0 01-.47.14.982.982 0 01-.961-.962c0-.328.188-.657.493-.82 2.065-1.221 3.355-3.45 3.355-5.844 0-.938-.188-1.854-.563-2.698l1.431-1.408z" fill="#282D37" fill-rule="evenodd"/></svg>