<?xml version="1.0" encoding="utf-8"?>
<!-- Generator: Adobe Illustrator 24.1.2, SVG Export Plug-In . SVG Version: 6.00 Build 0)  -->
<svg version="1.1" xmlns="http://www.w3.org/2000/svg" xmlns:xlink="http://www.w3.org/1999/xlink" x="0px" y="0px"
	 viewBox="0 0 24 24" style="enable-background:new 0 0 24 24;" xml:space="preserve">
<style type="text/css">
	.st0{fill:#3F434C;}
</style>
<g id="guides">
</g>
<g id="Ebene_1">
	<path class="st0" d="M5.3,17.7c0.4,0.4,1,0.4,1.4,0l5.3-5.3l5.3,5.3c0.2,0.2,0.5,0.3,0.7,0.3c0.3,0,0.5-0.1,0.7-0.3
		c0.4-0.4,0.4-1,0-1.4l-6-6c-0.4-0.4-1-0.4-1.4,0l-6,6C4.9,16.7,4.9,17.3,5.3,17.7z"/>
	<path class="st0" d="M18,9c0.6,0,1-0.4,1-1c0-0.6-0.4-1-1-1H6C5.4,7,5,7.4,5,8c0,0.6,0.4,1,1,1H18z"/>
</g>
</svg>
