<?xml version="1.0" encoding="utf-8"?>
<!-- Generator: Adobe Illustrator 24.1.2, SVG Export Plug-In . SVG Version: 6.00 Build 0)  -->
<svg version="1.1" xmlns="http://www.w3.org/2000/svg" xmlns:xlink="http://www.w3.org/1999/xlink" x="0px" y="0px"
	 viewBox="0 0 24 24" style="enable-background:new 0 0 24 24;" xml:space="preserve">
<style type="text/css">
	.st0{fill:#3F434C;}
</style>
<g id="guides">
</g>
<g id="Ebene_1">
	<path class="st0" d="M4,18h16c1.1,0,2-0.9,2-2V7c0-1.1-0.9-2-2-2H4C2.9,5,2,5.9,2,7v9C2,17.1,2.9,18,4,18z M4,7h16l0,9H4V7z"/>
	<path class="st0" d="M17,9H7c-0.6,0-1,0.4-1,1c0,0.6,0.4,1,1,1h10c0.6,0,1-0.4,1-1C18,9.4,17.6,9,17,9z"/>
	<path class="st0" d="M11,12H7c-0.6,0-1,0.4-1,1c0,0.6,0.4,1,1,1h4c0.6,0,1-0.4,1-1C12,12.4,11.6,12,11,12z"/>
</g>
</svg>
