<?xml version="1.0" encoding="utf-8"?>
<!-- Generator: Adobe Illustrator 24.1.2, SVG Export Plug-In . SVG Version: 6.00 Build 0)  -->
<svg version="1.1" xmlns="http://www.w3.org/2000/svg" xmlns:xlink="http://www.w3.org/1999/xlink" x="0px" y="0px"
	 viewBox="0 0 24 24" style="enable-background:new 0 0 24 24;" xml:space="preserve">
<style type="text/css">
	.st0{fill:#3F434C;}
</style>
<g id="guides">
</g>
<g id="Ebene_1">
	<path class="st0" d="M19,6H5C4.4,6,4,6.4,4,7c0,0.6,0.4,1,1,1h14c0.6,0,1-0.4,1-1C20,6.4,19.6,6,19,6z"/>
	<path class="st0" d="M5,13h11c0.6,0,1-0.4,1-1c0-0.6-0.4-1-1-1H5c-0.6,0-1,0.4-1,1C4,12.6,4.4,13,5,13z"/>
	<path class="st0" d="M20,17c0-0.6-0.4-1-1-1H5c-0.6,0-1,0.4-1,1c0,0.6,0.4,1,1,1h14C19.6,18,20,17.6,20,17z"/>
</g>
</svg>
