<?xml version="1.0" encoding="utf-8"?>
<!-- Generator: Adobe Illustrator 24.1.2, SVG Export Plug-In . SVG Version: 6.00 Build 0)  -->
<svg version="1.1" xmlns="http://www.w3.org/2000/svg" xmlns:xlink="http://www.w3.org/1999/xlink" x="0px" y="0px"
	 viewBox="0 0 24 24" style="enable-background:new 0 0 24 24;" xml:space="preserve">
<style type="text/css">
	.st0{fill:#3F434C;}
</style>
<g id="guides">
</g>
<g id="Ebene_1">
	<path class="st0" d="M3,12v6c0,1.1,0.9,2,2,2h14c1.1,0,2-0.9,2-2v-6V7c0-1.1-0.9-2-2-2h-2V4c0-0.6-0.4-1-1-1s-1,0.4-1,1v1H9V4
		c0-0.6-0.4-1-1-1S7,3.4,7,4v1H5C3.9,5,3,5.9,3,7V12z M5,7h14v3H5V7z M5,12h14l0,6H5V12z"/>
</g>
</svg>
