<?xml version="1.0" encoding="utf-8"?>
<!-- Generator: Adobe Illustrator 24.1.2, SVG Export Plug-In . SVG Version: 6.00 Build 0)  -->
<svg version="1.1" xmlns="http://www.w3.org/2000/svg" xmlns:xlink="http://www.w3.org/1999/xlink" x="0px" y="0px"
	 viewBox="0 0 24 24" style="enable-background:new 0 0 24 24;" xml:space="preserve">
<style type="text/css">
	.st0{fill:#3F434C;}
</style>
<g id="guides">
</g>
<g id="Ebene_1">
	<path class="st0" d="M18,11c-0.3,0-0.5,0-0.7,0.1L15.3,6H13c-0.3,0-0.5,0.2-0.5,0.5S12.7,7,13,7h1.7l0.7,1.9l-4.1,3.3l-1.8-3
		C9.3,9.1,9.2,9,9,9H5.2L3.9,7.2C3.7,7,3.4,6.9,3.2,7.1C3,7.3,2.9,7.6,3.1,7.8l1.5,2C4.7,9.9,4.8,10,5,10h3.7l1.6,2.7L9.2,13
		c-0.6-1.2-1.8-2-3.2-2c-1.9,0-3.5,1.6-3.5,3.5S4.1,18,6,18c1.8,0,3.2-1.3,3.4-3H12c0.1,0,0.2,0,0.2-0.1c0,0,0,0,0,0
		c0.1,0,0.1-0.1,0.1-0.1c0,0,0,0,0,0l3.4-4.8l0.5,1.4c-1.1,0.6-1.8,1.7-1.8,3.1c0,1.9,1.6,3.5,3.5,3.5s3.5-1.6,3.5-3.5
		S19.9,11,18,11z M6,17c-1.4,0-2.5-1.1-2.5-2.5S4.6,12,6,12c1,0,1.8,0.5,2.2,1.3L5.9,14c-0.2,0.1-0.4,0.3-0.4,0.6
		C5.5,14.8,5.8,15,6,15h2.4C8.2,16.1,7.2,17,6,17z M18,17c-1.4,0-2.5-1.1-2.5-2.5c0-0.9,0.5-1.7,1.2-2.1l0.9,2.3
		c0.1,0.2,0.3,0.3,0.5,0.3c0.1,0,0.1,0,0.2,0c0.3-0.1,0.4-0.4,0.3-0.6L17.6,12c0.1,0,0.3,0,0.4,0c1.4,0,2.5,1.1,2.5,2.5
		S19.4,17,18,17z"/>
	<path class="st0" d="M7,7C6.7,7,6.5,7.2,6.5,7.5S6.7,8,7,8h3c0.3,0,0.5-0.2,0.5-0.5S10.3,7,10,7H7z"/>
</g>
</svg>
