<?xml version="1.0" encoding="utf-8"?>
<!-- Generator: Adobe Illustrator 24.1.2, SVG Export Plug-In . SVG Version: 6.00 Build 0)  -->
<svg version="1.1" xmlns="http://www.w3.org/2000/svg" xmlns:xlink="http://www.w3.org/1999/xlink" x="0px" y="0px"
	 viewBox="0 0 24 24" style="enable-background:new 0 0 24 24;" xml:space="preserve">
<style type="text/css">
	.st0{fill:#3F434C;}
</style>
<g id="guides">
</g>
<g id="Ebene_1">
	<path class="st0" d="M4.3,19.7C4.5,19.9,4.7,20,5,20s0.5-0.1,0.7-0.3l6.3-6.3l6.3,6.3c0.2,0.2,0.5,0.3,0.7,0.3s0.5-0.1,0.7-0.3
		c0.4-0.4,0.4-1,0-1.4L13.4,12l6.3-6.3c0.4-0.4,0.4-1,0-1.4s-1-0.4-1.4,0L12,10.6L5.7,4.3c-0.4-0.4-1-0.4-1.4,0s-0.4,1,0,1.4
		l6.3,6.3l-6.3,6.3C3.9,18.7,3.9,19.3,4.3,19.7z"/>
</g>
</svg>
