<?xml version="1.0" encoding="utf-8"?>
<!-- Generator: Adobe Illustrator 24.1.2, SVG Export Plug-In . SVG Version: 6.00 Build 0)  -->
<svg version="1.1" xmlns="http://www.w3.org/2000/svg" xmlns:xlink="http://www.w3.org/1999/xlink" x="0px" y="0px"
	 viewBox="0 0 24 24" style="enable-background:new 0 0 24 24;" xml:space="preserve">
<style type="text/css">
	.st0{fill:#3F434C;}
</style>
<g id="guides">
</g>
<g id="Ebene_1">
	<path class="st0" d="M4.7,18c0.8,0.7,1.9,1,3,1H8c0.6,0,1-0.4,1-1v0c0-0.6-0.4-1-1-1H7.5c-0.7,0-1.3-0.3-1.8-0.8
		C5.2,15.7,5,15.1,5,14.4C5.1,13.1,6.3,12,7.7,12H9v-1.8c0-1.6,1.2-3,2.7-3.2c1-0.1,2,0.3,2.7,1.2c0.4,0.5,0.6,1.2,0.6,1.9V11h0.9
		c0.7,0,1.4,0.2,1.9,0.6c0.9,0.7,1.3,1.7,1.2,2.7c-0.1,1.5-1.4,2.7-3,2.7c-0.6,0-1,0.4-1,1v0c0,0.6,0.4,1,1,1c2.6,0,4.7-2,5-4.5
		c0.1-1.4-0.3-2.8-1.3-3.8C19,9.8,18,9.3,16.9,9.1c-0.2-1.1-0.7-2-1.6-2.8c-1-0.9-2.4-1.4-3.8-1.3C9,5.3,7.1,7.5,7,10.1
		c-2.2,0.3-3.9,2.1-4,4.2C2.9,15.7,3.5,17.1,4.7,18z"/>
	<path class="st0" d="M12,21c0.6,0,1-0.4,1-1v-4h1c0.4,0,0.8-0.2,0.9-0.6s0.1-0.8-0.2-1.1l-2-2C12.5,12.1,12.3,12,12,12
		s-0.5,0.1-0.7,0.3l-2,2C9,14.6,8.9,15,9.1,15.4S9.6,16,10,16h1v4C11,20.6,11.5,21,12,21z"/>
</g>
</svg>
