<?xml version="1.0" encoding="utf-8"?>
<!-- Generator: Adobe Illustrator 24.1.2, SVG Export Plug-In . SVG Version: 6.00 Build 0)  -->
<svg version="1.1" xmlns="http://www.w3.org/2000/svg" xmlns:xlink="http://www.w3.org/1999/xlink" x="0px" y="0px"
	 viewBox="0 0 24 24" style="enable-background:new 0 0 24 24;" xml:space="preserve">
<style type="text/css">
	.st0{fill:#3F434C;}
</style>
<g id="guides">
</g>
<g id="Ebene_1">
	<path class="st0" d="M16.9,9.1c-0.2-1.1-0.7-2-1.6-2.8c-1-0.9-2.4-1.4-3.8-1.3C9,5.3,7.1,7.5,7,10.1c-2.2,0.3-3.9,2.1-4,4.2
		c-0.1,1.2,0.4,2.4,1.2,3.3c0.9,0.9,2,1.4,3.3,1.4h8.3c2.6,0,4.9-2,5.1-4.5c0.1-1.4-0.3-2.8-1.3-3.8C19,9.8,18,9.3,16.9,9.1z
		 M15.8,17H7.5c-0.7,0-1.3-0.3-1.8-0.8C5.2,15.7,5,15.1,5,14.4C5.1,13.1,6.3,12,7.7,12H9v-1.8c0-1.6,1.2-3,2.7-3.2
		c0.9-0.1,1.7,0.2,2.3,0.8c0.6,0.6,1,1.4,1,2.2v1h1c0.8,0,1.7,0.4,2.2,1c0.6,0.6,0.8,1.5,0.8,2.3C18.8,15.8,17.5,17,15.8,17z"/>
</g>
</svg>
