<?xml version="1.0" encoding="utf-8"?>
<!-- Generator: Adobe Illustrator 24.1.2, SVG Export Plug-In . SVG Version: 6.00 Build 0)  -->
<svg version="1.1" xmlns="http://www.w3.org/2000/svg" xmlns:xlink="http://www.w3.org/1999/xlink" x="0px" y="0px"
	 viewBox="0 0 24 24" style="enable-background:new 0 0 24 24;" xml:space="preserve">
<style type="text/css">
	.st0{fill:#3F434C;}
</style>
<g id="guides">
</g>
<g id="Ebene_1">
	<path class="st0" d="M19.7,10.6C19,9.8,18,9.3,16.9,9.1c-0.2-1.1-0.7-2-1.6-2.8c-1-0.9-2.4-1.4-3.8-1.3C9,5.3,7.1,7.5,7,10.1
		c-2.2,0.3-3.9,2.1-4,4.2c-0.1,1.3,0.4,2.5,1.3,3.4c0.4,0.4,1,0.4,1.4,0s0.4-1,0-1.4C5.2,15.8,5,15.1,5,14.4C5.1,13.1,6.3,12,7.7,12
		H9v-1.8c0-1.6,1.2-3,2.7-3.2c0.9-0.1,1.7,0.2,2.3,0.8c0.6,0.6,1,1.4,1,2.2v1h1c0.8,0,1.7,0.4,2.2,1c0.6,0.6,0.8,1.5,0.8,2.3
		c-0.1,0.7-0.4,1.4-1,1.9c-0.4,0.4-0.5,1-0.1,1.4c0.2,0.2,0.5,0.4,0.8,0.4c0.2,0,0.5-0.1,0.6-0.2c1-0.8,1.6-2,1.7-3.3
		C21.1,13.1,20.6,11.7,19.7,10.6z"/>
	<path class="st0" d="M12,11c-0.6,0-1,0.4-1,1v4h-1c-0.4,0-0.8,0.2-0.9,0.6S9,17.4,9.3,17.7l2,2c0.2,0.2,0.5,0.3,0.7,0.3
		s0.5-0.1,0.7-0.3l2-2c0.3-0.3,0.4-0.7,0.2-1.1S14.4,16,14,16h-1v-4C13,11.4,12.5,11,12,11z"/>
</g>
</svg>
