<?xml version="1.0" encoding="utf-8"?>
<!-- Generator: Adobe Illustrator 24.1.2, SVG Export Plug-In . SVG Version: 6.00 Build 0)  -->
<svg version="1.1" xmlns="http://www.w3.org/2000/svg" xmlns:xlink="http://www.w3.org/1999/xlink" x="0px" y="0px"
	 viewBox="0 0 24 24" style="enable-background:new 0 0 24 24;" xml:space="preserve">
<style type="text/css">
	.st0{fill:#3F434C;}
</style>
<g id="guides">
</g>
<g id="Ebene_1">
	<path class="st0" d="M20,5c0-0.6-0.4-1-1-1h-1c0-0.6-0.4-1-1-1H7C6.4,3,6,3.4,6,4H5C4.4,4,4,4.4,4,5v3c0,0.6,0.4,1,1,1h0.3L7,20.2
		C7.1,20.6,7.5,21,8,21h8c0.5,0,0.9-0.4,1-0.8L18.7,9H19c0.6,0,1-0.4,1-1V5z M15.1,19H8.9l-0.3-2h6.9L15.1,19z M15.8,15H8.2l-0.2-1
		h7.8L15.8,15z M16.2,12H7.8L7.3,9h9.4L16.2,12z"/>
</g>
</svg>
