<?xml version="1.0" encoding="utf-8"?>
<!-- Generator: Adobe Illustrator 24.1.2, SVG Export Plug-In . SVG Version: 6.00 Build 0)  -->
<svg version="1.1" xmlns="http://www.w3.org/2000/svg" xmlns:xlink="http://www.w3.org/1999/xlink" x="0px" y="0px"
	 viewBox="0 0 24 24" style="enable-background:new 0 0 24 24;" xml:space="preserve">
<style type="text/css">
	.st0{fill:#3F434C;}
</style>
<g id="guides">
</g>
<g id="Ebene_1">
	<path class="st0" d="M20,10h-1V9c0-0.6-0.4-1-1-1H4C3.4,8,3,8.4,3,9v4c0,3.9,3.1,7,7,7h2c2.4,0,4.5-1.2,5.7-3H19c1.7,0,3-1.3,3-3
		v-2C22,10.9,21.1,10,20,10z M17,13c0,2.8-2.2,5-5,5h-2c-2.8,0-5-2.2-5-5v-3h12V13z M20,14c0,0.6-0.4,1-1,1h-0.3
		c0.2-0.6,0.3-1.3,0.3-2v-1h1V14z"/>
	<path class="st0" d="M8,6V5c0-0.6-0.4-1-1-1S6,4.4,6,5v1c0,0.6,0.4,1,1,1S8,6.6,8,6z"/>
	<path class="st0" d="M12,6V4c0-0.6-0.4-1-1-1s-1,0.4-1,1v2c0,0.6,0.4,1,1,1S12,6.6,12,6z"/>
	<circle class="st0" cx="15" cy="6" r="1"/>
</g>
</svg>
