<?xml version="1.0" encoding="UTF-8"?>
<svg width="24px" height="24px" viewBox="0 0 24 24" version="1.1" xmlns="http://www.w3.org/2000/svg" xmlns:xlink="http://www.w3.org/1999/xlink">
    <!-- Generator: Sketch 64 (93537) - https://sketch.com -->
    <title>ic-db_communication_call_24</title>
    <desc>Created with Sketch.</desc>
    <g id="Symbols:Icon" stroke="none" stroke-width="1" fill="none" fill-rule="evenodd">
        <g id="24dp-Icon/Communication/Call" fill="#282D37">
            <path d="M7.03333675,2.5 C7.89806782,2.5 8.52913349,2.80379486 9.06669321,3.34135458 L9.06669321,3.34135458 L11.7776694,6.0758067 C12.1049402,6.42635453 12.2684761,6.8704083 12.2684761,7.38459154 C12.2684761,7.8986753 12.0815637,8.45961151 11.6375099,8.8802888 L11.6375099,8.8802888 L10.0248308,10.516245 C11.2868626,12.1989541 11.7776694,12.7131374 13.6240139,14.1855576 L13.6240139,14.1855576 L15.2132171,12.5496014 C15.6338944,12.1055477 16.1714542,11.8951593 16.7323904,11.8951593 C17.1530677,11.8951593 17.6204979,12.0120417 17.9242928,12.3392131 L17.9242928,12.3392131 L20.7053984,15.1670717 C21.2195816,15.7046314 21.476723,16.3590735 21.5,17.0835457 C21.476723,17.8080178 21.1962051,18.6026194 20.6353684,19.2336851 C19.1863246,20.9163943 17.9242928,21.7811253 15.9144123,21.7811253 C13.3435956,21.7811253 10.2819721,20.2152986 7.17359567,17.0367927 C3.85493033,13.554492 2.28910361,10.4228385 2.522769,7.61825693 C2.7564344,5.0941932 5.30387462,2.5 7.03333675,2.5 Z M7.15021919,4.48650401 C6.07519921,4.48650401 4.5326495,6.44973101 4.43914356,7.68838639 C4.08859573,12.479472 11.7075399,19.8412748 15.7274004,19.8412748 C17.3399801,19.8412748 17.9476693,19.373944 19.1863246,17.9716532 C19.4433665,17.6911354 19.560249,17.3873405 19.560249,17.0835457 C19.560249,16.8497808 19.466743,16.6394919 19.3499601,16.5226095 L19.3499601,16.5226095 L16.6622609,13.8116333 L14.4186155,16.0785557 C14.2317031,16.2655676 14.0446912,16.38245 13.8343028,16.38245 C13.0864542,16.38245 11.2168326,14.7931473 10.2819721,13.8816633 C9.4873705,13.0870617 7.82803783,11.0538047 7.82803783,10.399462 C7.82803783,9.81514933 8.66939241,9.13743016 10.3754781,7.40796803 L10.3754781,7.40796803 L7.66440242,4.69689239 C7.5241435,4.55663347 7.36060757,4.48650401 7.15021919,4.48650401 Z" id="🎨-Color"></path>
        </g>
    </g>
</svg>