<?xml version="1.0" encoding="utf-8"?>
<!-- Generator: Adobe Illustrator 24.1.2, SVG Export Plug-In . SVG Version: 6.00 Build 0)  -->
<svg version="1.1" xmlns="http://www.w3.org/2000/svg" xmlns:xlink="http://www.w3.org/1999/xlink" x="0px" y="0px"
	 viewBox="0 0 24 24" style="enable-background:new 0 0 24 24;" xml:space="preserve">
<style type="text/css">
	.st0{fill:#3F434C;}
</style>
<g id="guides">
</g>
<g id="Ebene_1">
	<path class="st0" d="M21,6c0-1.1-0.9-2-2-2H5C3.9,4,3,4.9,3,6v13c0,0.4,0.2,0.7,0.6,0.9C3.7,20,3.9,20,4,20c0.2,0,0.5-0.1,0.6-0.2
		L7.9,17H19c1.1,0,2-0.9,2-2V6z M7.6,15c-0.2,0-0.5,0.1-0.6,0.2L5,16.9V6h14l0,9H7.6z"/>
</g>
</svg>
