<?xml version="1.0" encoding="UTF-8"?>
<svg width="24px" height="24px" viewBox="0 0 24 24" version="1.1" xmlns="http://www.w3.org/2000/svg" xmlns:xlink="http://www.w3.org/1999/xlink">
    <!-- Generator: Sketch 64 (93537) - https://sketch.com -->
    <title>ic-db_communication_mobile-phone-off_24</title>
    <desc>Created with Sketch.</desc>
    <g id="Symbols:Icon" stroke="none" stroke-width="1" fill="none" fill-rule="evenodd">
        <g id="24dp-Icon/Communication/Mobile-Phone-Off" fill="#282D37">
            <path d="M2.97031369,19.9968751 C2.97031369,19.7151356 3.09550899,19.464745 3.28330195,19.276952 L6,16.5540042 L6,4.97343856 C6,3.3145507 7.35214935,2 9.01093706,2 L15.0203117,2 C16.5226553,2 18,3 18,4.56650375 L19.3083009,3.25195305 C19.5273427,3.06416009 19.7777333,2.97031369 20.0281239,2.97031369 C20.5915027,2.97031369 21.0296863,3.40849726 21.0296863,3.97187613 C21.0296863,4.25351548 20.904491,4.47265735 20.716698,4.6604503 L4.69169905,20.6854493 C4.50390609,20.8732423 4.25351548,20.9984376 3.97187613,20.9984376 C3.40849726,20.9984376 2.97031369,20.5289051 2.97031369,19.9968751 Z M7.00781219,21.2174793 L8.44755819,19.8090822 C8.6041024,19.9342775 8.78095829,20.0281239 9,20.0281239 L15,20.0281239 C15.5633789,20.0281239 16,19.5586916 16,19.0265614 L16,12.2034173 L18,10.2002925 L18,19.0265614 C18,20.6854493 16.6588879,22 15,22 L9,22 C8.24882817,22 7.57119106,21.7182605 7.00781219,21.2174793 Z M8,14.5790032 L16,6.56650375 L16,5.00156244 C16,4.46943231 15.5625,4 15,4 L14,4 C14,4.56337887 13.5313,5.00156244 13,5.00156244 L11,5.00156244 C10.4375,5.00156244 10,4.56337887 10,4 L9,4 C8.4375,4 8,4.46943231 8,5.00156244 L8,14.5790032 Z M10.4506831,17.7840832 L12.2347662,16 L13.0171868,16 C13.5493169,16 14.0187492,16.4381836 14.0187492,16.9703137 C14.0187492,17.5336926 13.5493169,18.0031249 13.0171868,18.0031249 L11.0140619,18.0031249 C10.826269,18.0031249 10.6072273,17.9092785 10.4506831,17.7840832 Z" id="🎨-Color"></path>
        </g>
    </g>
</svg>