<?xml version="1.0" encoding="utf-8"?>
<!-- Generator: Adobe Illustrator 24.1.2, SVG Export Plug-In . SVG Version: 6.00 Build 0)  -->
<svg version="1.1" xmlns="http://www.w3.org/2000/svg" xmlns:xlink="http://www.w3.org/1999/xlink" x="0px" y="0px"
	 viewBox="0 0 24 24" style="enable-background:new 0 0 24 24;" xml:space="preserve">
<style type="text/css">
	.st0{fill:#3F434C;}
</style>
<g id="guides">
</g>
<g id="Ebene_1">
	<path class="st0" d="M17.5,6.3c-2.5,0-4.5,2-4.5,4.5c0,2.3,2.2,4.7,4,6.6c0.1,0.1,0.3,0.2,0.5,0.2s0.3-0.1,0.5-0.2
		c1.9-1.9,4-4.3,4-6.6C22,8.4,20,6.3,17.5,6.3z M17.5,15.2c-0.9-0.9-2.5-2.7-2.5-4.1c0-1.4,1.1-2.5,2.5-2.5S20,9.7,20,11.1
		C20,12.5,18.4,14.3,17.5,15.2z"/>
	<circle class="st0" cx="17.5" cy="11" r="1"/>
	<circle class="st0" cx="5" cy="12" r="2"/>
	<circle class="st0" cx="10" cy="12" r="1"/>
</g>
</svg>
