<?xml version="1.0" encoding="utf-8"?>
<!-- Generator: Adobe Illustrator 24.1.2, SVG Export Plug-In . SVG Version: 6.00 Build 0)  -->
<svg version="1.1" xmlns="http://www.w3.org/2000/svg" xmlns:xlink="http://www.w3.org/1999/xlink" x="0px" y="0px"
	 viewBox="0 0 24 24" style="enable-background:new 0 0 24 24;" xml:space="preserve">
<style type="text/css">
	.st0{fill:#3F434C;}
</style>
<g id="guides">
</g>
<g id="Ebene_1">
	<path class="st0" d="M17,3c-1.3,0-2.4,0.8-2.8,2H5C4.4,5,4,5.4,4,6s0.4,1,1,1h9.2c0.4,1.2,1.5,2,2.8,2c1.7,0,3-1.3,3-3S18.7,3,17,3
		z M17,7c-0.6,0-1-0.4-1-1s0.4-1,1-1s1,0.4,1,1S17.6,7,17,7z"/>
	<path class="st0" d="M19,11h-7.2C11.4,9.8,10.3,9,9,9s-2.4,0.8-2.8,2H5c-0.6,0-1,0.4-1,1s0.4,1,1,1h1.2c0.4,1.2,1.5,2,2.8,2
		s2.4-0.8,2.8-2H19c0.6,0,1-0.4,1-1S19.6,11,19,11z M9,13c-0.6,0-1-0.4-1-1s0.4-1,1-1s1,0.4,1,1S9.6,13,9,13z"/>
	<path class="st0" d="M19,17h-1.2c-0.4-1.2-1.5-2-2.8-2s-2.4,0.8-2.8,2H5c-0.6,0-1,0.4-1,1s0.4,1,1,1h7.2c0.4,1.2,1.5,2,2.8,2
		s2.4-0.8,2.8-2H19c0.6,0,1-0.4,1-1S19.6,17,19,17z M15,19c-0.6,0-1-0.4-1-1s0.4-1,1-1s1,0.4,1,1S15.6,19,15,19z"/>
</g>
</svg>
