<?xml version="1.0" encoding="utf-8"?>
<!-- Generator: Adobe Illustrator 24.1.2, SVG Export Plug-In . SVG Version: 6.00 Build 0)  -->
<svg version="1.1" xmlns="http://www.w3.org/2000/svg" xmlns:xlink="http://www.w3.org/1999/xlink" x="0px" y="0px"
	 viewBox="0 0 24 24" style="enable-background:new 0 0 24 24;" xml:space="preserve">
<style type="text/css">
	.st0{fill:#3F434C;}
</style>
<g id="guides">
</g>
<g id="Ebene_1">
	<path class="st0" d="M21,11h-1.1c-0.5-3.6-3.3-6.5-6.9-6.9V3c0-0.6-0.4-1-1-1s-1,0.4-1,1v1.1C7.4,4.5,4.5,7.4,4.1,11H3
		c-0.6,0-1,0.4-1,1c0,0.6,0.4,1,1,1h1.1c0.5,3.6,3.3,6.5,6.9,6.9V21c0,0.6,0.4,1,1,1s1-0.4,1-1v-1.1c3.6-0.5,6.5-3.3,6.9-6.9H21
		c0.6,0,1-0.4,1-1C22,11.4,21.6,11,21,11z M17,13h0.9c-0.4,2.5-2.4,4.5-4.9,4.9V17c0-0.6-0.4-1-1-1s-1,0.4-1,1v0.9
		c-2.5-0.4-4.5-2.4-4.9-4.9H7c0.6,0,1-0.4,1-1c0-0.6-0.4-1-1-1H6.1C6.5,8.5,8.5,6.5,11,6.1V7c0,0.6,0.4,1,1,1s1-0.4,1-1V6.1
		c2.5,0.4,4.5,2.4,4.9,4.9H17c-0.6,0-1,0.4-1,1C16,12.6,16.4,13,17,13z"/>
</g>
</svg>
