<?xml version="1.0" encoding="utf-8"?>
<!-- Generator: Adobe Illustrator 24.1.2, SVG Export Plug-In . SVG Version: 6.00 Build 0)  -->
<svg version="1.1" xmlns="http://www.w3.org/2000/svg" xmlns:xlink="http://www.w3.org/1999/xlink" x="0px" y="0px"
	 viewBox="0 0 24 24" style="enable-background:new 0 0 24 24;" xml:space="preserve">
<style type="text/css">
	.st0{fill:#3F434C;}
</style>
<g id="guides">
</g>
<g id="Ebene_1">
	<path class="st0" d="M20,5H4C2.9,5,2,5.9,2,7v10c0,1.1,0.9,2,2,2h16c1.1,0,2-0.9,2-2V7C22,5.9,21.1,5,20,5z M4,7h16l0,2H4V7z M4,17
		v-6h16l0,6H4z"/>
	<path class="st0" d="M12,13H7c-0.6,0-1,0.4-1,1v0c0,0.6,0.4,1,1,1h5c0.6,0,1-0.4,1-1v0C13,13.4,12.6,13,12,13z"/>
</g>
</svg>
