<?xml version="1.0" encoding="utf-8"?>
<!-- Generator: Adobe Illustrator 24.1.2, SVG Export Plug-In . SVG Version: 6.00 Build 0)  -->
<svg version="1.1" xmlns="http://www.w3.org/2000/svg" xmlns:xlink="http://www.w3.org/1999/xlink" x="0px" y="0px"
	 viewBox="0 0 24 24" style="enable-background:new 0 0 24 24;" xml:space="preserve">
<style type="text/css">
	.st0{fill:#3F434C;}
</style>
<g id="guides">
</g>
<g id="Ebene_1">
	<path class="st0" d="M15,8c-1.1,0-2,0.9-2,2v4c0,0.6,0.4,1,1,1v5c0,0.6,0.4,1,1,1s1-0.4,1-1v-5c0.6,0,1-0.4,1-1v-4
		C17,8.9,16.1,8,15,8z"/>
	<circle class="st0" cx="15" cy="5" r="2"/>
	<path class="st0" d="M9,8c-1.1,0-2,0.9-2,2v4c0,0.6,0.4,1,1,1v5c0,0.6,0.4,1,1,1s1-0.4,1-1v-5c0.6,0,1-0.4,1-1v-4
		C11,8.9,10.1,8,9,8z"/>
	<circle class="st0" cx="9" cy="5" r="2"/>
</g>
</svg>
