<?xml version="1.0" encoding="utf-8"?>
<!-- Generator: Adobe Illustrator 24.1.2, SVG Export Plug-In . SVG Version: 6.00 Build 0)  -->
<svg version="1.1" xmlns="http://www.w3.org/2000/svg" xmlns:xlink="http://www.w3.org/1999/xlink" x="0px" y="0px"
	 viewBox="0 0 24 24" style="enable-background:new 0 0 24 24;" xml:space="preserve">
<style type="text/css">
	.st0{fill:#3F434C;}
</style>
<g id="guides">
</g>
<g id="Ebene_1">
	<path class="st0" d="M12,8c-1.1,0-2,0.9-2,2v4c0,0.6,0.4,1,1,1v5c0,0.6,0.4,1,1,1s1-0.4,1-1v-5c0.6,0,1-0.4,1-1v-4
		C14,8.9,13.1,8,12,8z"/>
	<circle class="st0" cx="12" cy="5" r="2"/>
	<path class="st0" d="M6,8c-1.1,0-2,0.9-2,2v4c0,0.6,0.4,1,1,1v5c0,0.6,0.4,1,1,1s1-0.4,1-1v-5c0.6,0,1-0.4,1-1v-4C8,8.9,7.1,8,6,8z
		"/>
	<circle class="st0" cx="6" cy="5" r="2"/>
	<path class="st0" d="M18,8c-1.1,0-2,0.9-2,2v4c0,0.6,0.4,1,1,1v5c0,0.6,0.4,1,1,1s1-0.4,1-1v-5c0.6,0,1-0.4,1-1v-4
		C20,8.9,19.1,8,18,8z"/>
	<circle class="st0" cx="18" cy="5" r="2"/>
</g>
</svg>
