<?xml version="1.0" encoding="utf-8"?>
<!-- Generator: Adobe Illustrator 24.1.2, SVG Export Plug-In . SVG Version: 6.00 Build 0)  -->
<svg version="1.1" xmlns="http://www.w3.org/2000/svg" xmlns:xlink="http://www.w3.org/1999/xlink" x="0px" y="0px"
	 viewBox="0 0 24 24" style="enable-background:new 0 0 24 24;" xml:space="preserve">
<style type="text/css">
	.st0{fill:#3F434C;}
</style>
<g id="guides">
</g>
<g id="Ebene_1">
	<path class="st0" d="M3,17.3c0,2.5,4.7,3.7,9,3.7s9-1.1,9-3.7V6.7C21,4.1,16.3,3,12,3S3,4.1,3,6.7V17.3z M5,6.7C5.1,6.2,7.5,5,12,5
		c4.4,0,6.8,1.2,7,1.7c-0.2,0.5-2.6,1.7-7,1.7C7.5,8.3,5.1,7.1,5,6.7L5,6.7z M5,9.1c1.8,0.9,4.4,1.3,7,1.3c2.6,0,5.2-0.4,7-1.3
		l0,1.1c-0.1,0.5-2.5,1.7-7,1.7c-4.5,0-6.9-1.2-7-1.7V9.1z M5,12.6c1.8,0.9,4.4,1.3,7,1.3c2.6,0,5.2-0.4,7-1.3l0,1.1
		c-0.1,0.5-2.5,1.7-7,1.7c-4.5,0-6.9-1.2-7-1.7V12.6z M5,16.2c1.8,0.9,4.4,1.3,7,1.3c2.6,0,5.2-0.4,7-1.3l0,1.1
		c-0.1,0.5-2.5,1.7-7,1.7s-6.9-1.2-7-1.7V16.2z"/>
</g>
</svg>
