<?xml version="1.0" encoding="utf-8"?>
<!-- Generator: Adobe Illustrator 24.1.2, SVG Export Plug-In . SVG Version: 6.00 Build 0)  -->
<svg version="1.1" xmlns="http://www.w3.org/2000/svg" xmlns:xlink="http://www.w3.org/1999/xlink" x="0px" y="0px"
	 viewBox="0 0 24 24" style="enable-background:new 0 0 24 24;" xml:space="preserve">
<style type="text/css">
	.st0{fill:#3F434C;}
</style>
<g id="guides">
</g>
<g id="Ebene_1">
	<path class="st0" d="M15,3H9C8.4,3,8,3.4,8,4v2H6H4C3.4,6,3,6.4,3,7s0.4,1,1,1h1.1L6,20.1C6,20.6,6.5,21,7,21h10c0.5,0,1-0.4,1-0.9
		L18.9,8H20c0.6,0,1-0.4,1-1s-0.4-1-1-1h-2h-2V4C16,3.4,15.6,3,15,3z M10,5h4v1h-4V5z M16.9,8l-0.8,11H7.9L7.1,8H9h6H16.9z"/>
	<path class="st0" d="M10,10c-0.6,0-1,0.4-1,1v5c0,0.6,0.4,1,1,1s1-0.4,1-1v-5C11,10.4,10.6,10,10,10z"/>
	<path class="st0" d="M14,10c-0.6,0-1,0.4-1,1v5c0,0.6,0.4,1,1,1s1-0.4,1-1v-5C15,10.4,14.6,10,14,10z"/>
</g>
</svg>
