<?xml version="1.0" encoding="utf-8"?>
<!-- Generator: Adobe Illustrator 24.1.2, SVG Export Plug-In . SVG Version: 6.00 Build 0)  -->
<svg version="1.1" xmlns="http://www.w3.org/2000/svg" xmlns:xlink="http://www.w3.org/1999/xlink" x="0px" y="0px"
	 viewBox="0 0 24 24" style="enable-background:new 0 0 24 24;" xml:space="preserve">
<style type="text/css">
	.st0{fill:#3F434C;}
</style>
<g id="guides">
</g>
<g id="Ebene_1">
	<path class="st0" d="M15,13H9c-0.6,0-1,0.4-1,1s0.4,1,1,1h6c0.6,0,1-0.4,1-1S15.6,13,15,13z"/>
	<path class="st0" d="M15,16H9c-0.6,0-1,0.4-1,1s0.4,1,1,1h6c0.6,0,1-0.4,1-1S15.6,16,15,16z"/>
	<path class="st0" d="M16.5,2c-1.2,0-2.3,0.4-3.2,1H6C4.9,3,4,3.9,4,5v15c0,1.1,0.9,2,2,2h12c1.1,0,2-0.9,2-2v-8.3
		c1.2-1,2-2.5,2-4.2C22,4.5,19.5,2,16.5,2z M18,20H6V5h5.6c-0.3,0.6-0.5,1.3-0.6,2c0,0,0,0,0,0H9C8.4,7,8,7.4,8,8s0.4,1,1,1h2
		c0.1,0,0.1,0,0.2,0c0.1,0.4,0.2,0.7,0.4,1H9c-0.6,0-1,0.4-1,1s0.4,1,1,1h4.3c0.9,0.6,2,1,3.2,1c0.5,0,1-0.1,1.5-0.2V20z M16.5,11
		C14.6,11,13,9.4,13,7.5S14.6,4,16.5,4S20,5.6,20,7.5S18.4,11,16.5,11z"/>
	<path class="st0" d="M18.3,7.5H17V5.8c0-0.3-0.2-0.5-0.5-0.5S16,5.6,16,5.8V8c0,0.3,0.2,0.5,0.5,0.5h1.8c0.3,0,0.5-0.2,0.5-0.5
		S18.6,7.5,18.3,7.5z"/>
</g>
</svg>
