<?xml version="1.0" encoding="utf-8"?>
<!-- Generator: Adobe Illustrator 24.1.2, SVG Export Plug-In . SVG Version: 6.00 Build 0)  -->
<svg version="1.1" xmlns="http://www.w3.org/2000/svg" xmlns:xlink="http://www.w3.org/1999/xlink" x="0px" y="0px"
	 viewBox="0 0 24 24" style="enable-background:new 0 0 24 24;" xml:space="preserve">
<style type="text/css">
	.st0{fill:#3F434C;}
</style>
<g id="guides">
</g>
<g id="Ebene_1">
	<path class="st0" d="M20,3H10C8.9,3,8,3.9,8,5v3H4c-1.1,0-2,0.9-2,2v10c0,0.4,0.2,0.7,0.6,0.9C2.7,21,2.9,21,3,21
		c0.2,0,0.5-0.1,0.6-0.2L6.9,18H14c1.1,0,2-0.9,2-2v-3h1.1l3.3,2.8c0.2,0.2,0.4,0.2,0.6,0.2c0.1,0,0.3,0,0.4-0.1
		c0.4-0.2,0.6-0.5,0.6-0.9V5C22,3.9,21.1,3,20,3z M14,16H6.6c-0.2,0-0.5,0.1-0.6,0.2L4,17.9V10h4v1c0,1.1,0.9,2,2,2h4V16z M20,12.9
		l-1.9-1.6c-0.2-0.2-0.4-0.2-0.6-0.2H10V5h10V12.9z"/>
</g>
</svg>
