<?xml version="1.0" encoding="utf-8"?>
<!-- Generator: Adobe Illustrator 24.1.2, SVG Export Plug-In . SVG Version: 6.00 Build 0)  -->
<svg version="1.1" xmlns="http://www.w3.org/2000/svg" xmlns:xlink="http://www.w3.org/1999/xlink" x="0px" y="0px"
	 viewBox="0 0 24 24" style="enable-background:new 0 0 24 24;" xml:space="preserve">
<style type="text/css">
	.st0{fill:#3F434C;}
</style>
<g id="guides">
</g>
<g id="Ebene_1">
	<path class="st0" d="M12,2C6.5,2,2,6.5,2,12s4.5,10,10,10s10-4.5,10-10S17.5,2,12,2z M12,20c-4.4,0-8-3.6-8-8s3.6-8,8-8s8,3.6,8,8
		S16.4,20,12,20z"/>
	<path class="st0" d="M15.7,7.1l-6,2C9.4,9.2,9.2,9.4,9.1,9.7l-2,6c-0.1,0.4,0,0.8,0.2,1C7.5,16.9,7.7,17,8,17c0.1,0,0.2,0,0.3-0.1
		l6-2c0.3-0.1,0.5-0.3,0.6-0.6l2-6c0.1-0.4,0-0.8-0.2-1C16.4,7,16,6.9,15.7,7.1z M13.2,13.2l-3.6,1.2l1.2-3.6l3.6-1.2L13.2,13.2z"/>
</g>
</svg>
