<?xml version="1.0" encoding="utf-8"?>
<!-- Generator: Adobe Illustrator 24.1.2, SVG Export Plug-In . SVG Version: 6.00 Build 0)  -->
<svg version="1.1" xmlns="http://www.w3.org/2000/svg" xmlns:xlink="http://www.w3.org/1999/xlink" x="0px" y="0px"
	 viewBox="0 0 24 24" style="enable-background:new 0 0 24 24;" xml:space="preserve">
<style type="text/css">
	.st0{fill:#3F434C;}
</style>
<g id="guides">
</g>
<g id="Ebene_1">
	<path class="st0" d="M5.2,6.3C5.1,6.6,5,6.9,5,7.2l2,13C7.1,20.6,7.5,21,8,21h8c0.5,0,0.9-0.4,1-0.8l2-13c0-0.3,0-0.6-0.2-0.8
		C18.6,6.1,18.3,6,18,6h-7.1l-0.5-3.2C10.3,2.4,9.9,2,9.4,2H5C4.4,2,4,2.4,4,3s0.4,1,1,1h3.5l0.3,2H6C5.7,6,5.4,6.1,5.2,6.3z
		 M16.8,8l-0.3,1.8c-1.6-0.4-3.2-0.1-4.7,0.2c-0.1,0-0.2,0-0.3,0.1L11.2,8H16.8z M10.8,12.2C10.8,12.2,10.8,12.2,10.8,12.2
		C10.8,12.2,10.8,12.2,10.8,12.2c0.5-0.1,0.9-0.1,1.4-0.2c1.4-0.3,2.8-0.5,4.1-0.2L15.1,19H8.9l-1-6.8c0.4,0.1,0.9,0.1,1.3,0.1
		C9.7,12.3,10.2,12.3,10.8,12.2z M9.1,8l0.4,2.3c-0.7,0-1.4,0-2-0.2L7.2,8H9.1z"/>
</g>
</svg>
