<?xml version="1.0" encoding="utf-8"?>
<!-- Generator: Adobe Illustrator 24.1.2, SVG Export Plug-In . SVG Version: 6.00 Build 0)  -->
<svg version="1.1" xmlns="http://www.w3.org/2000/svg" xmlns:xlink="http://www.w3.org/1999/xlink" x="0px" y="0px"
	 viewBox="0 0 24 24" style="enable-background:new 0 0 24 24;" xml:space="preserve">
<style type="text/css">
	.st0{fill:#3F434C;}
</style>
<g id="guides">
</g>
<g id="Ebene_1">
	<path class="st0" d="M3.3,20.6c0.2,0.2,0.4,0.3,0.7,0.3c0.1,0,0.1,0,0.2,0l5.3-1.1c0,0,0.1,0,0.1,0c0.1,0,0.1,0,0.2-0.1
		c0.1,0,0.1-0.1,0.2-0.1c0,0,0.1,0,0.1-0.1l9.8-9.8C20.6,9,21,8,21,7s-0.4-2.1-1.2-2.8c-1.5-1.5-4.1-1.5-5.7,0l-9.8,9.8
		c0,0,0,0.1-0.1,0.1c0,0.1-0.1,0.1-0.1,0.2c0,0.1-0.1,0.1-0.1,0.2c0,0,0,0.1,0,0.1L3,19.7C3,20.1,3.1,20.4,3.3,20.6z M15.6,5.5
		c0.8-0.8,2.1-0.8,2.8,0C18.8,5.9,19,6.4,19,7s-0.2,1-0.6,1.4l-0.5,0.5L15.1,6L15.6,5.5z M13.7,7.4l2.8,2.8l-7.2,7.2l-2.8-2.8
		L13.7,7.4z M5.7,16.7l1.6,1.6l-2,0.4L5.7,16.7z"/>
</g>
</svg>
