<?xml version="1.0" encoding="utf-8"?>
<!-- Generator: Adobe Illustrator 24.1.2, SVG Export Plug-In . SVG Version: 6.00 Build 0)  -->
<svg version="1.1" xmlns="http://www.w3.org/2000/svg" xmlns:xlink="http://www.w3.org/1999/xlink" x="0px" y="0px"
	 viewBox="0 0 24 24" style="enable-background:new 0 0 24 24;" xml:space="preserve">
<style type="text/css">
	.st0{fill:#3F434C;}
</style>
<g id="guides">
</g>
<g id="Ebene_1">
	<path class="st0" d="M18,21c1.1,0,2-0.9,2-2V5c0-1.1-0.9-2-2-2H6C4.9,3,4,3.9,4,5v14c0,1.1,0.9,2,2,2H18z M13,7h5l0,12h-5V7z M6,7
		h5v12H6V7z"/>
	<path class="st0" d="M7,12h1v3.5C8,15.8,8.2,16,8.5,16S9,15.8,9,15.5V12h1l-1.5-2L7,12z"/>
	<path class="st0" d="M16,10.5c0-0.3-0.2-0.5-0.5-0.5S15,10.2,15,10.5V14h-1l1.5,2l1.5-2h-1V10.5z"/>
</g>
</svg>
