<?xml version="1.0" encoding="utf-8"?>
<!-- Generator: Adobe Illustrator 24.1.2, SVG Export Plug-In . SVG Version: 6.00 Build 0)  -->
<svg version="1.1" xmlns="http://www.w3.org/2000/svg" xmlns:xlink="http://www.w3.org/1999/xlink" x="0px" y="0px"
	 viewBox="0 0 24 24" style="enable-background:new 0 0 24 24;" xml:space="preserve">
<style type="text/css">
	.st0{fill:#3F434C;}
</style>
<g id="guides">
</g>
<g id="Ebene_1">
	<path class="st0" d="M18,8h-1h-1l0-4c0-0.6-0.4-1-1-1c0,0,0,0,0,0c-0.6,0-1,0.4-1,1l0,4h-4l0-4c0-0.6-0.4-1-1-1c0,0,0,0,0,0
		C8.4,3,8,3.5,8,4l0,4H7H6C5.4,8,5,8.4,5,9s0.4,1,1,1v2c0,2.8,2.2,5,5,5v3c0,0.6,0.4,1,1,1s1-0.4,1-1v-3c2.8,0,5-2.2,5-5v-2
		c0.6,0,1-0.4,1-1S18.6,8,18,8z M16,12c0,1.7-1.3,3-3,3h-2c-1.7,0-3-1.3-3-3v-2h1h0h6h0h1V12z"/>
</g>
</svg>
