<?xml version="1.0" encoding="utf-8"?>
<!-- Generator: Adobe Illustrator 24.1.2, SVG Export Plug-In . SVG Version: 6.00 Build 0)  -->
<svg version="1.1" xmlns="http://www.w3.org/2000/svg" xmlns:xlink="http://www.w3.org/1999/xlink" x="0px" y="0px"
	 viewBox="0 0 24 24" style="enable-background:new 0 0 24 24;" xml:space="preserve">
<style type="text/css">
	.st0{fill:#3F434C;}
</style>
<g id="guides">
</g>
<g id="Ebene_1">
	<path class="st0" d="M5,21h3c0.3,0,0.5-0.1,0.7-0.3l7.7-7.7H19c1.7,0,3-1.3,3-3s-1.3-3-3-3h-4c-0.3,0-0.5,0.1-0.7,0.3L12,9.6
		C11.8,8.7,11,8,10,8c-1.1,0-2,0.9-2,2v3.6L6.6,15H5c-1.7,0-3,1.3-3,3S3.3,21,5,21z M5,17h2c0.3,0,0.5-0.1,0.7-0.3L15.4,9H19
		c0.6,0,1,0.4,1,1s-0.4,1-1,1h-3c-0.3,0-0.5,0.1-0.7,0.3L7.6,19H5c-0.6,0-1-0.4-1-1S4.4,17,5,17z"/>
	<circle class="st0" cx="10" cy="5" r="2"/>
</g>
</svg>
