<?xml version="1.0" encoding="utf-8"?>
<!-- Generator: Adobe Illustrator 24.1.2, SVG Export Plug-In . SVG Version: 6.00 Build 0)  -->
<svg version="1.1" xmlns="http://www.w3.org/2000/svg" xmlns:xlink="http://www.w3.org/1999/xlink" x="0px" y="0px"
	 viewBox="0 0 24 24" style="enable-background:new 0 0 24 24;" xml:space="preserve">
<style type="text/css">
	.st0{fill:#3F434C;}
</style>
<g id="guides">
</g>
<g id="Ebene_1">
	<path class="st0" d="M13.1,6c2,0,3.9,1,5,2.6c0.3,0.5,1,0.6,1.4,0.2c0.5-0.3,0.6-0.9,0.3-1.4c-1.5-2.1-4-3.4-6.7-3.4
		C9.7,4,6.8,6.1,5.6,9H3c-0.6,0-1,0.4-1,1c0,0.6,0.4,1,1,1h2.1C5,11.3,5,11.7,5,12s0,0.7,0.1,1H3c-0.6,0-1,0.4-1,1c0,0.6,0.4,1,1,1
		h2.6c1.2,2.9,4.1,5,7.5,5c2.7,0,5.1-1.3,6.7-3.4c0.3-0.5,0.2-1.1-0.3-1.4c-0.5-0.3-1.1-0.2-1.4,0.2c-1.1,1.6-3,2.6-5,2.6
		c-2.3,0-4.2-1.2-5.3-3H12c0.6,0,1-0.4,1-1c0-0.6-0.4-1-1-1H7.1C7.1,12.7,7,12.3,7,12s0-0.7,0.1-1H12c0.6,0,1-0.4,1-1
		c0-0.6-0.4-1-1-1H7.9C8.9,7.2,10.9,6,13.1,6z"/>
</g>
</svg>
