<?xml version="1.0" encoding="utf-8"?>
<!-- Generator: Adobe Illustrator 24.1.2, SVG Export Plug-In . SVG Version: 6.00 Build 0)  -->
<svg version="1.1" xmlns="http://www.w3.org/2000/svg" xmlns:xlink="http://www.w3.org/1999/xlink" x="0px" y="0px"
	 viewBox="0 0 24 24" style="enable-background:new 0 0 24 24;" xml:space="preserve">
<style type="text/css">
	.st0{fill:#3F434C;}
</style>
<g id="guides">
</g>
<g id="Ebene_1">
	<path class="st0" d="M15.2,5l-1.7,0c-1.9,0-3.1,1.3-3.1,3.2v1.5H8.8c-0.1,0-0.3,0.1-0.3,0.3v2.1c0,0.1,0.1,0.3,0.3,0.3h1.7v5.4
		c0,0.1,0.1,0.3,0.3,0.3h2.2c0.1,0,0.3-0.1,0.3-0.3v-5.4h2c0.1,0,0.3-0.1,0.3-0.3l0-2.1c0-0.1,0-0.1-0.1-0.2s-0.1-0.1-0.2-0.1h-2
		V8.4c0-0.6,0.1-0.9,0.9-0.9l1.1,0c0.1,0,0.3-0.1,0.3-0.3v-2C15.5,5.1,15.4,5,15.2,5z"/>
</g>
</svg>
