<?xml version="1.0" encoding="UTF-8"?>
<svg width="24px" height="24px" viewBox="0 0 24 24" version="1.1" xmlns="http://www.w3.org/2000/svg" xmlns:xlink="http://www.w3.org/1999/xlink">
    <!-- Generator: Sketch 64 (93537) - https://sketch.com -->
    <title>ic-db_facilities_wc-men_24</title>
    <desc>Created with Sketch.</desc>
    <g id="Symbols:Icon" stroke="none" stroke-width="1" fill="none" fill-rule="evenodd">
        <g id="24dp-Icon/Facilities/WC-Men" fill="#282D37">
            <path d="M7.73863557,10.9688 C7.55113557,9.9376 8.33243557,9 9.39493557,9 L14.5824356,9 C15.6136356,9 16.4261356,9.9063 16.2699356,10.9063 L15.5199356,15.5 C15.4261356,16.0938 15.0511356,16.5938 14.4574356,16.8126 L14.4574356,21.0313 C14.4574356,21.5626 14.0199356,22 13.4886356,22 C12.9574356,22 12.5199356,21.5626 12.5199356,21.0313 L12.5199356,15.9376 C12.5199356,15.4063 12.8636356,14.9688 13.6449356,14.9688 L14.3011356,10.9376 L9.70743557,10.9376 L10.3949356,14.9688 C11.1449356,14.9688 11.5511356,15.375 11.5511356,15.9376 L11.5511356,21.0313 C11.5511356,21.5626 11.1136356,22 10.5824356,22 C10.0511356,22 9.61363557,21.5626 9.61363557,21.0313 L9.61363557,16.8126 C9.05113557,16.5938 8.61363557,16.0938 8.51993557,15.5313 L7.73863557,10.9688 Z M11.983983,2 C13.6524179,2 15,3.34750244 15,4.98393141 C15,6.65239489 13.6524179,8 11.983983,8 C10.3475821,8 9,6.65239489 9,4.98393141 C9,3.34750244 10.3475821,2 11.983983,2 Z M12.0158472,4 C11.4762292,4 11,4.44453474 11,4.98415278 C11,5.52377082 11.4762292,6 12.0158472,6 C12.5555668,6 13,5.52377082 13,4.98415278 C13,4.44453474 12.5555668,4 12.0158472,4 Z" id="🎨-Color"></path>
        </g>
    </g>
</svg>