<?xml version="1.0" encoding="UTF-8"?>
<svg width="24px" height="24px" viewBox="0 0 24 24" version="1.1" xmlns="http://www.w3.org/2000/svg" xmlns:xlink="http://www.w3.org/1999/xlink">
    <!-- Generator: Sketch 64 (93537) - https://sketch.com -->
    <title>ic-db_feature_medical_24</title>
    <desc>Created with Sketch.</desc>
    <g id="Symbols:Icon" stroke="none" stroke-width="1" fill="none" fill-rule="evenodd">
        <g id="24dp-Icon/Feature/Medical" fill="#282D37">
            <path d="M14,3 C15.1045695,3 16,3.8954305 16,5 L16,8 L19,8 C20.1045695,8 21,8.8954305 21,10 L21,14 C21,15.1045695 20.1045695,16 19,16 L16,16 L16,19 C16,20.1045695 15.1045695,21 14,21 L10,21 C8.8954305,21 8,20.1045695 8,19 L8,16 L5,16 C3.8954305,16 3,15.1045695 3,14 L3,10 C3,8.8954305 3.8954305,8 5,8 L8,8 L8,5 C8,3.8954305 8.8954305,3 10,3 L14,3 Z M14,5 L10,5 L10,10 L5,10 L5,14 L10,14 L10,19 L14,19 L14,14 L19,14 L19,10 L14,10 L14,5 Z" id="🎨-Color"></path>
        </g>
    </g>
</svg>