<?xml version="1.0" encoding="UTF-8"?>
<svg width="24px" height="24px" viewBox="0 0 24 24" version="1.1" xmlns="http://www.w3.org/2000/svg" xmlns:xlink="http://www.w3.org/1999/xlink">
    <!-- Generator: Sketch 64 (93537) - https://sketch.com -->
    <title>ic-db_feature_power-outlet_24</title>
    <desc>Created with Sketch.</desc>
    <g id="Symbols:Icon" stroke="none" stroke-width="1" fill="none" fill-rule="evenodd">
        <g id="24dp-Icon/Feature/Power-Outlet" fill="#282D37">
            <path d="M2,16.9688 L2,5 C2,3.3438 3.3438,2 5,2 L16.9688,2 C18.6562,2 20,3.3438 20,5 L20,11 C20,11.6562 19.4688,12.0625 18.9688,12.0625 C18.4688,12.0625 18,11.7188 18,11 L18,5 C18,4.4688 17.5312,4 16.9688,4 L5,4 C4.4375,4 4,4.4688 4,5 L4,16.9688 C4,17.5312 4.4375,18 5,18 L10.4688,18 C11.0312,18 11.4688,18.4375 11.4688,18.9688 C11.4688,19.5312 11.0312,20 10.4688,20 L5,20 C3.3438,20 2,18.6562 2,16.9688 Z M10.9841015,6 C13.7460711,6 16,8.21518987 16,11 C16,13.7848101 13.7460711,16 10.9841015,16 C8.19043652,16 6,13.7848101 6,11 C6,8.21518987 8.19043652,6 10.9841015,6 Z M11.0155193,8 C9.33674891,8 8,9.3438 8,11 C8,12.6562 9.33674891,14 11.0155193,14 C12.632113,14 14,12.6562 14,11 C13.9689614,9.3438 12.632113,8 11.0155193,8 Z M8.7812,11 C8.7812,10.4375 9.2188,10 9.7812,10 C10.3438,10 10.7812,10.4375 10.7812,11 C10.7812,11.5625 10.3438,12 9.7812,12 C9.2188,12 8.7812,11.5625 8.7812,11 Z M11.1875,11 C11.1875,10.4375 11.625,10 12.1875,10 C12.7188,10 13.1875,10.4375 13.1875,11 C13.1875,11.5625 12.7188,12 12.1875,12 C11.625,12 11.1875,11.5625 11.1875,11 Z M16.7812,13.5 C17.0312,13.5 17.25,13.5625 17.5,13.7812 L18.0938,14.375 L18.4062,14.0625 C18.5938,13.875 18.8438,13.7812 19.0938,13.7812 C19.3438,13.7812 19.625,13.875 19.8125,14.0625 L20.9062,15.1562 C21.5625,15.7812 21.9062,16.6562 21.9062,17.5312 C21.9062,18.3125 21.625,19.0938 21.125,19.7188 L21.7188,20.2812 C21.9062,20.4688 22,20.7188 22,20.9375 C22,21.5 21.5312,22 21,22 C20.75,22 20.5312,21.9375 20.3125,21.7188 L19.7188,21.1562 C19.0938,21.6875 18.3438,22 17.5312,22 C16.5,22 15.6562,21.6562 15.0312,21.0312 L13.9375,19.9062 C13.75,19.7188 13.6562,19.5 13.6562,19.2188 C13.6562,18.9688 13.75,18.6875 13.9375,18.5 L14.25,18.2188 L13.6562,17.625 C13.4375,17.4062 13.3438,17.1562 13.3438,16.9375 C13.3438,16.4062 13.8438,15.9375 14.375,15.9375 C14.5938,15.9375 14.8438,16 15.0625,16.1875 L15.6562,16.7812 L16.6875,15.7812 L16.0938,15.2188 C15.875,15 15.7812,14.7812 15.7812,14.5312 C15.7812,14 16.25,13.5 16.7812,13.5 Z M19.0938,16.1875 L16.0625,19.2188 L16.4375,19.625 C16.6875,19.875 17.0312,20 17.375,20 C17.8438,20 18.2812,19.8125 18.5938,19.5 L19.375,18.7188 C19.6875,18.4062 19.875,18 19.875,17.5625 C19.875,17.2188 19.7188,16.875 19.4688,16.5938 L19.0938,16.1875 Z" id="🎨-Color"></path>
        </g>
    </g>
</svg>