<?xml version="1.0" encoding="utf-8"?>
<!-- Generator: Adobe Illustrator 24.1.2, SVG Export Plug-In . SVG Version: 6.00 Build 0)  -->
<svg version="1.1" xmlns="http://www.w3.org/2000/svg" xmlns:xlink="http://www.w3.org/1999/xlink" x="0px" y="0px"
	 viewBox="0 0 24 24" style="enable-background:new 0 0 24 24;" xml:space="preserve">
<style type="text/css">
	.st0{fill:#3F434C;}
</style>
<g id="guides">
</g>
<g id="Ebene_1">
	<path class="st0" d="M18.2,12.7L13,11.1c-0.7-0.2-1.3-0.2-2,0l-5.2,1.6c-0.6,0.1-1,0.8-0.7,1.5l3,5.5C8.2,19.3,8.6,19,9,19
		c0.6,0,1,0.4,1,1c0-0.6,0.4-1,1-1s1,0.4,1,1c0-0.6,0.4-1,1-1s1,0.4,1,1c0-0.6,0.4-1,1-1c0.4,0,0.8,0.3,0.9,0.7l3-5.5
		C19.2,13.5,18.8,12.8,18.2,12.7z M10,16c-0.6,0-1-0.4-1-1s0.4-1,1-1s1,0.4,1,1S10.6,16,10,16z M14,16c-0.6,0-1-0.4-1-1s0.4-1,1-1
		s1,0.4,1,1S14.6,16,14,16z"/>
	<path class="st0" d="M9,8C8.4,8,8,8.4,8,9v2l2.7-0.8c0.4-0.1,0.9-0.2,1.3-0.2s0.9,0.1,1.3,0.2L16,11V9c0-0.6-0.4-1-1-1H9z"/>
	<path class="st0" d="M10,7h4V6c0-0.6-0.4-1-1-1h-2c-0.6,0-1,0.4-1,1V7z"/>
</g>
</svg>
