<?xml version="1.0" encoding="utf-8"?>
<!-- Generator: Adobe Illustrator 24.1.2, SVG Export Plug-In . SVG Version: 6.00 Build 0)  -->
<svg version="1.1" xmlns="http://www.w3.org/2000/svg" xmlns:xlink="http://www.w3.org/1999/xlink" x="0px" y="0px"
	 viewBox="0 0 24 24" style="enable-background:new 0 0 24 24;" xml:space="preserve">
<style type="text/css">
	.st0{fill:#3F434C;}
</style>
<g id="guides">
</g>
<g id="Ebene_1">
	<path class="st0" d="M9.5,19.8c0.2,0.1,0.3,0.1,0.5,0.1c0.2,0,0.3,0,0.4-0.1l4-2c0.3-0.2,0.6-0.5,0.6-0.9v-3.7l4.8-7.8
		c0.2-0.3,0.2-0.7,0-1c-0.2-0.3-0.5-0.5-0.9-0.5h-14c-0.4,0-0.7,0.2-0.9,0.5C4,4.8,4,5.2,4.2,5.5l4.8,7.8v5.7
		C9.1,19.3,9.3,19.6,9.5,19.8z M6.9,5.9h10.4l-4,6.5c-0.1,0.2-0.2,0.3-0.2,0.5v3.4l-2,1v-4.4c0-0.2-0.1-0.4-0.2-0.5L6.9,5.9z"/>
</g>
</svg>
