<?xml version="1.0" encoding="UTF-8"?>
<svg width="24px" height="24px" viewBox="0 0 24 24" version="1.1" xmlns="http://www.w3.org/2000/svg" xmlns:xlink="http://www.w3.org/1999/xlink">
    <!-- Generator: Sketch 64 (93537) - https://sketch.com -->
    <title>ic-db_food_coffee-cup_24</title>
    <desc>Created with Sketch.</desc>
    <g id="Symbols:Icon" stroke="none" stroke-width="1" fill="none" fill-rule="evenodd">
        <g id="24dp-Icon/Food/Coffee-Cup" fill="#282D37">
            <path d="M19.0156597,10.0086493 C20.660565,10.0086493 22,11.3473428 22,12.9913479 C22,14.6588378 20.660565,15.9975274 19.0156597,15.9975274 L19.0156597,15.9975274 L18.0052157,15.9975274 L18.0052157,16.9839306 C18.0052157,19.1915949 16.1958149,21 13.9869427,21 L13.9869427,21 L7.99477727,21 C5.78590002,21 4,19.1915949 4,16.9839306 L4,16.9839306 L4,10.0086493 Z M16.0078286,12.0049447 L5.99738813,12.0049447 L5.99738813,16.9839306 C5.99738813,18.0877623 6.89033815,18.980223 7.99477727,18.980223 L7.99477727,18.980223 L13.9869427,18.980223 C15.0913778,18.980223 16.0078286,18.0877623 16.0078286,16.9839306 L16.0078286,16.9839306 L16.0078286,12.0049447 Z M19.0156597,12.0049447 L18.0052157,12.0049447 L18.0052157,14.001236 L19.0156597,14.001236 C19.5561278,14.001236 20.0026029,13.5550062 20.0026029,12.9913479 C20.0026029,12.4511745 19.5561278,12.0049447 19.0156597,12.0049447 L19.0156597,12.0049447 Z M6.98433331,6.97898194 C6.98433331,7.54264121 7.43080831,7.98887106 7.99477727,7.98887106 C8.53524643,7.98887106 8.98172144,7.54264121 8.98172144,6.97898194 L8.98172144,4.98269158 C8.98172144,4.4425202 8.53524643,3.99629035 7.99477727,3.99629035 C7.43080831,3.99629035 6.98433331,4.4425202 6.98433331,4.98269158 L6.98433331,6.97898194 Z M9.9921654,6.97898194 C9.9921654,7.54264121 10.4386404,7.98887106 11.0026094,7.98887106 C11.5430785,7.98887106 11.9895535,7.54264121 11.9895535,6.97898194 L11.9895535,3.00988912 C11.9895535,2.46971773 11.5430785,2 11.0026094,2 C10.4386404,2 9.9921654,2.46971773 9.9921654,3.00988912 L9.9921654,6.97898194 Z M12.9999975,6.97898194 C12.9999975,7.54264121 13.4464725,7.98887106 13.9869427,7.98887106 C14.5509096,7.98887106 14.9973846,7.54264121 14.9973846,6.97898194 L14.9973846,5.00617947 C14.9973846,4.4425202 14.5509096,3.99629035 13.9869427,3.99629035 C13.4464725,3.99629035 12.9999975,4.4425202 12.9999975,5.00617947 L12.9999975,6.97898194 Z" id="🎨-Color"></path>
        </g>
    </g>
</svg>