<?xml version="1.0" encoding="utf-8"?>
<!-- Generator: Adobe Illustrator 24.1.2, SVG Export Plug-In . SVG Version: 6.00 Build 0)  -->
<svg version="1.1" xmlns="http://www.w3.org/2000/svg" xmlns:xlink="http://www.w3.org/1999/xlink" x="0px" y="0px"
	 viewBox="0 0 24 24" style="enable-background:new 0 0 24 24;" xml:space="preserve">
<style type="text/css">
	.st0{fill:#3F434C;}
</style>
<g id="guides">
</g>
<g id="Ebene_1">
	<path class="st0" d="M21,9.2C20.6,6.8,18.4,5,15.8,5H8.2C5.6,5,3.4,6.8,3,9.2l-0.9,5.2c-0.2,1.1,0.1,2.3,0.9,3.2
		c0.8,1,2,1.5,3.3,1.5c1.3,0,2.5-0.6,3.2-1.6l1-1.4l3.2,0l1,1.3c0.7,1,1.9,1.6,3.2,1.6c1.3,0,2.5-0.5,3.3-1.5c0.7-0.9,1.1-2,0.9-3.2
		L21,9.2z M19.5,16.2c-0.4,0.5-1.1,0.8-1.7,0.8c-0.6,0-1.2-0.3-1.6-0.8l-1-1.3c-0.4-0.5-1-0.9-1.7-0.9h-3.1c-0.7,0-1.3,0.3-1.7,0.9
		l-1,1.3C7.4,16.7,6.8,17,6.2,17c-0.7,0-1.3-0.3-1.7-0.8c-0.4-0.4-0.5-1-0.4-1.5l0.9-5.2C5.2,8.1,6.6,7,8.2,7h7.7
		c1.6,0,3,1.1,3.2,2.5l0.9,5.2C20.1,15.2,19.9,15.8,19.5,16.2z"/>
	<circle class="st0" cx="14" cy="9" r="1"/>
	<circle class="st0" cx="17" cy="12" r="1"/>
	<path class="st0" d="M10.5,10H9V8.5C9,8.2,8.8,8,8.5,8S8,8.2,8,8.5V10H6.5C6.2,10,6,10.2,6,10.5S6.2,11,6.5,11H8v1.5
		C8,12.8,8.2,13,8.5,13S9,12.8,9,12.5V11h1.5c0.3,0,0.5-0.2,0.5-0.5S10.8,10,10.5,10z"/>
</g>
</svg>
