<?xml version="1.0" encoding="utf-8"?>
<!-- Generator: Adobe Illustrator 24.1.2, SVG Export Plug-In . SVG Version: 6.00 Build 0)  -->
<svg version="1.1" xmlns="http://www.w3.org/2000/svg" xmlns:xlink="http://www.w3.org/1999/xlink" x="0px" y="0px"
	 viewBox="0 0 24 24" style="enable-background:new 0 0 24 24;" xml:space="preserve">
<style type="text/css">
	.st0{fill:#3F434C;}
</style>
<g id="guides">
</g>
<g id="Ebene_1">
	<path class="st0" d="M3,12c0.2,0,0.5-0.1,0.7-0.3L4,11.4V20c0,0.6,0.4,1,1,1h5c0.6,0,1-0.4,1-1v-4h2v4c0,0.6,0.4,1,1,1h5
		c0.6,0,1-0.4,1-1v-8.6l0.3,0.3c0.4,0.4,1,0.3,1.4-0.1c0.4-0.4,0.3-1-0.1-1.4l-9-8c-0.4-0.3-0.9-0.3-1.3,0l-9,8
		c-0.4,0.4-0.5,1-0.1,1.4C2.4,11.9,2.7,12,3,12z M6,9.7l6-5.3l6,5.3V19h-3v-4c0-0.6-0.4-1-1-1h-4c-0.6,0-1,0.4-1,1v4H6V9.7z"/>
</g>
</svg>
