<?xml version="1.0" encoding="utf-8"?>
<!-- Generator: Adobe Illustrator 24.1.2, SVG Export Plug-In . SVG Version: 6.00 Build 0)  -->
<svg version="1.1" xmlns="http://www.w3.org/2000/svg" xmlns:xlink="http://www.w3.org/1999/xlink" x="0px" y="0px"
	 viewBox="0 0 24 24" style="enable-background:new 0 0 24 24;" xml:space="preserve">
<style type="text/css">
	.st0{fill:#3F434C;}
</style>
<g id="guides">
</g>
<g id="Ebene_1">
	<path class="st0" d="M13,18h-2c-1.9,0-3.7-0.9-4.8-2.4C7,19,9.2,21,12,21s5-2,5.8-5.4C16.7,17.1,14.9,18,13,18z"/>
	<path class="st0" d="M12,4c-3.3,0-6,2.7-6,6v2c0,2.8,2.2,5,5,5h2c2.8,0,5-2.2,5-5v-2C18,6.7,15.3,4,12,4z M8,12c1.1,0,2,0.9,2,2
		C8.9,14,8,13.1,8,12z M14,14c0-1.1,0.9-2,2-2C16,13.1,15.1,14,14,14z M16,9c0,1.1-1.8,2-4,2c-2.2,0-4-0.9-4-2h0c0-2.2,1.8-4,4-4
		C14.2,5,16,6.8,16,9L16,9z"/>
</g>
</svg>
