<?xml version="1.0" encoding="utf-8"?>
<!-- Generator: Adobe Illustrator 24.1.2, SVG Export Plug-In . SVG Version: 6.00 Build 0)  -->
<svg version="1.1" xmlns="http://www.w3.org/2000/svg" xmlns:xlink="http://www.w3.org/1999/xlink" x="0px" y="0px"
	 viewBox="0 0 24 24" style="enable-background:new 0 0 24 24;" xml:space="preserve">
<style type="text/css">
	.st0{fill:#3F434C;}
</style>
<g id="guides">
</g>
<g id="Ebene_1">
	<path class="st0" d="M20,4H4C2.9,4,2,4.9,2,6v12c0,1.1,0.9,2,2,2h16c1.1,0,2-0.9,2-2V6C22,4.9,21.1,4,20,4z M4,18V6h16l0,12H4z"/>
	<path class="st0" d="M13.9,10.2c-0.2-0.3-0.6-0.3-0.8,0l-2.6,3.3l-1-1.2c-0.2-0.3-0.7-0.3-1,0l-2.4,3c-0.3,0.3,0,0.8,0.5,0.8h2.9
		h1.9h6.1c0.4,0,0.7-0.5,0.4-0.8L13.9,10.2z"/>
	<circle class="st0" cx="17" cy="9" r="1"/>
</g>
</svg>
