<?xml version="1.0" encoding="utf-8"?>
<!-- Generator: Adobe Illustrator 24.1.2, SVG Export Plug-In . SVG Version: 6.00 Build 0)  -->
<svg version="1.1" xmlns="http://www.w3.org/2000/svg" xmlns:xlink="http://www.w3.org/1999/xlink" x="0px" y="0px"
	 viewBox="0 0 24 24" style="enable-background:new 0 0 24 24;" xml:space="preserve">
<style type="text/css">
	.st0{fill:#3F434C;}
</style>
<g id="guides">
</g>
<g id="Ebene_1">
	<path class="st0" d="M17.4,5.3L15.7,7c-1.1-0.6-2.4-1-3.7-1c-4.9,0-8.7,5.2-8.8,5.4c-0.2,0.3-0.2,0.8,0,1.2
		c0.1,0.1,1.4,1.9,3.5,3.4l-1.4,1.4c-0.4,0.4-0.4,1,0,1.3c0.4,0.4,1,0.4,1.3,0L18.7,6.6c0.4-0.4,0.4-1,0-1.3
		C18.4,4.9,17.7,4.9,17.4,5.3z M12.6,10.1C12.4,10,12.2,10,12,10c-1.1,0-2,0.9-2,2c0,0.2,0,0.4,0.1,0.6l-2,2
		c-1.3-0.9-2.3-1.9-2.8-2.6c1-1.2,3.7-4,6.7-4c0.8,0,1.5,0.2,2.2,0.5L12.6,10.1z"/>
	<path class="st0" d="M20.8,11.4c-0.1-0.1-0.7-1-1.8-2l-1.4,1.4c0.5,0.5,0.9,0.9,1.1,1.2c-1,1.2-3.5,3.8-6.3,4l-1.9,1.9
		c0.5,0.1,1,0.2,1.5,0.2c4.9,0,8.7-5.2,8.8-5.4C21.1,12.2,21.1,11.8,20.8,11.4z"/>
</g>
</svg>
