<?xml version="1.0" encoding="utf-8"?>
<!-- Generator: Adobe Illustrator 24.1.2, SVG Export Plug-In . SVG Version: 6.00 Build 0)  -->
<svg version="1.1" xmlns="http://www.w3.org/2000/svg" xmlns:xlink="http://www.w3.org/1999/xlink" x="0px" y="0px"
	 viewBox="0 0 24 24" style="enable-background:new 0 0 24 24;" xml:space="preserve">
<style type="text/css">
	.st0{fill:#3F434C;}
</style>
<g id="guides">
</g>
<g id="Ebene_1">
	<path class="st0" d="M6.7,19.7L8,18.4l1.3,1.3c0.4,0.4,1,0.4,1.4,0l1.3-1.3l1.3,1.3c0.4,0.4,1,0.4,1.4,0l1.3-1.3l1.3,1.3
		c0.2,0.2,0.4,0.3,0.7,0.3c0.1,0,0.3,0,0.4-0.1c0.4-0.2,0.6-0.5,0.6-0.9V4c0-0.6-0.4-1-1-1H6C5.4,3,5,3.4,5,4v15
		c0,0.4,0.2,0.8,0.6,0.9C6,20.1,6.4,20,6.7,19.7z M7,5h10v11.6l-0.3-0.3c-0.4-0.4-1-0.4-1.4,0L14,17.6l-1.3-1.3
		C12.5,16.1,12.3,16,12,16s-0.5,0.1-0.7,0.3L10,17.6l-1.3-1.3c-0.4-0.4-1-0.4-1.4,0L7,16.6V5z"/>
	<path class="st0" d="M10,13h4c0.6,0,1-0.4,1-1s-0.4-1-1-1h-4c-0.6,0-1,0.4-1,1S9.4,13,10,13z"/>
	<path class="st0" d="M10,9h4c0.6,0,1-0.4,1-1s-0.4-1-1-1h-4C9.4,7,9,7.4,9,8S9.4,9,10,9z"/>
</g>
</svg>
