<?xml version="1.0" encoding="UTF-8"?>
<svg width="24px" height="24px" viewBox="0 0 24 24" version="1.1" xmlns="http://www.w3.org/2000/svg" xmlns:xlink="http://www.w3.org/1999/xlink">
    <!-- Generator: Sketch 64 (93537) - https://sketch.com -->
    <title>ic-db_journey_capacity-indicator-low-filled_24</title>
    <desc>Created with Sketch.</desc>
    <g id="Symbols:Icon" stroke="none" stroke-width="1" fill="none" fill-rule="evenodd">
        <g id="24dp-Icon/Journey/Capacity-Indicator-Low-Filled" fill="#282D37">
            <path d="M2,20.4672 C2,21.0306 2.446,21.4766 3.0094,21.4766 L8.9953,21.4766 C9.5587,21.4766 10.0047,21.0541 10.0047,20.4907 L10.0047,14.5986 C10.0047,13.4484 9.0423,12.5094 7.892,12.5094 L4.1361,12.5094 C2.9624,12.5094 2,13.378 2,14.4578 L2,20.4672 Z M3.7723,8.7534 C3.7723,10.0446 4.683,10.9601 5.9907,10.9601 C7.2983,10.9601 8.2324,10.0446 8.2324,8.7534 C8.2324,7.439 7.2983,6.5 5.9907,6.5 C4.683,6.5 3.7723,7.439 3.7723,8.7534 Z" id="🎨-Color"></path>
        </g>
    </g>
</svg>