<?xml version="1.0" encoding="UTF-8"?>
<svg width="24px" height="24px" viewBox="0 0 24 24" version="1.1" xmlns="http://www.w3.org/2000/svg" xmlns:xlink="http://www.w3.org/1999/xlink">
    <!-- Generator: Sketch 64 (93537) - https://sketch.com -->
    <title>ic-db_journey_booking_24</title>
    <desc>Created with Sketch.</desc>
    <g id="Symbols" stroke="none" stroke-width="1" fill="none" fill-rule="evenodd">
        <g id="24dp-Icon/Journey/Booking" fill="#282D37">
            <path d="M7,2 C8.7188,2 10.41,3.1874 10.8438,5 L15,5 C17.1874,5 18.9688,6.7812 18.9688,9 C18.9688,11.1875 17.1874,13 15,13 L10,13 C8.875,13 8,13.9062 8,15 C8,16.1562 8.875,17 10,17 L17.5625,17 L16.2812,15.7188 C16.0937,15.5312 16,15.2812 16,14.9688 C16,14.5312 16.3437,14 17,14 C17.25,14 17.4688,14.0938 17.6562,14.2812 L20.6875,17.2812 C20.875,17.4688 21,17.7188 21,18 C21,18.25 20.875,18.5 20.6875,18.6875 L17.6562,21.7188 C17.4688,21.9062 17.2812,22 17,22 C16.5312,22 16,21.625 16,21 C16,20.75 16.0937,20.4688 16.2812,20.2812 L17.5625,19 L10,19 C7.7812,19 6,17.25 6,15 C6,12.8124 7.7812,11 10,11 L15,11 C16.125,11 17,10.0938 17,9 C17,7.9688 16.1562,7 15,7 L10.8438,7 C10.4062,8.7188 8.8438,9.9688 7,9.9688 C4.8438,9.9688 3,8.25 3,6 C3,3.8125 4.6562,2 7,2 Z M7,4 C5.9062,4 5,4.875 5,6 C5,7.0625 5.9062,7.9688 7,7.9688 C8.0625,7.9688 8.9688,7.0938 8.9688,6 C8.9688,4.875 8.0625,4 7,4 Z" id="🎨-Color"></path>
        </g>
    </g>
</svg>