<?xml version="1.0" encoding="UTF-8"?>
<svg width="24px" height="24px" viewBox="0 0 24 24" version="1.1" xmlns="http://www.w3.org/2000/svg" xmlns:xlink="http://www.w3.org/1999/xlink">
    <!-- Generator: Sketch 64 (93537) - https://sketch.com -->
    <title>ic-db_journey_destination_24</title>
    <desc>Created with Sketch.</desc>
    <g id="Symbols" stroke="none" stroke-width="1" fill="none" fill-rule="evenodd">
        <g id="24dp-Icon/Journey/Destination" fill="#282D37">
            <path d="M12,2 C15.875,2 19,4.8438 19,8.375 C19,9.7812 18.5312,11.125 17.8438,12.3438 L12.875,21.4688 C12.6875,21.8125 12.3438,22 12,22 C11.625,22 11.2812,21.8125 11.0938,21.4688 L6.1875,12.3438 C5.5312,11.125 5,9.7812 5,8.375 C5,4.8438 8.125,2 12,2 Z M12,4 C9.25,4 7,5.9688 7,8.4062 C7,9.4688 7.4375,10.5312 7.9375,11.4688 L12,19 L16.0625,11.4375 C16.5625,10.5312 17,9.4688 17,8.4062 C17,5.9688 14.75,4 12,4 Z M10,9 C10,7.9062 10.9062,7 12,7 C13.0938,7 14,7.9062 14,9 C14,10.0938 13.0938,11 12,11 C10.9062,11 10,10.0938 10,9 Z" id="🎨-Color"></path>
        </g>
    </g>
</svg>