<?xml version="1.0" encoding="UTF-8"?>
<svg width="24px" height="24px" viewBox="0 0 24 24" version="1.1" xmlns="http://www.w3.org/2000/svg" xmlns:xlink="http://www.w3.org/1999/xlink">
    <!-- Generator: Sketch 64 (93537) - https://sketch.com -->
    <title>ic-db_journey_capacity-indicator-filled_24</title>
    <desc>Created with Sketch.</desc>
    <g id="Symbols" stroke="none" stroke-width="1" fill="none" fill-rule="evenodd">
        <g id="24dp-Icon/Journey/Capacity-Indicator-Filled" fill="#282D37">
            <path d="M2,18.9672 C2,19.5306 2.446,19.9766 3.0094,19.9766 L8.9953,19.9766 C9.5587,19.9766 10.0047,19.5541 10.0047,18.9907 L10.0047,13.0986 C10.0047,11.9484 9.0423,11.0094 7.892,11.0094 L4.1361,11.0094 C2.9624,11.0094 2,11.878 2,12.9578 L2,18.9672 Z M12,18.9907 C12,19.5306 12.4461,19.9766 12.986,19.9766 L15.0987,19.9766 C15.5916,19.9766 15.9672,19.5071 15.9672,18.9907 L15.9672,12.9578 C15.9672,11.878 14.9813,11.0564 13.878,11.0564 L12.986,11.0564 C12.3522,11.0564 12,11.5024 12,12.0188 L12,18.9907 Z M17.986,18.9907 C17.986,19.5306 18.432,19.9766 18.9719,19.9766 L21.0846,19.9766 C21.6011,19.9766 21.9062,19.5071 21.9062,18.9907 L21.9062,13.0986 C21.9062,11.8073 20.9673,11.0564 19.864,11.0564 L18.9719,11.0564 C18.3381,11.0564 17.986,11.5024 17.986,12.0188 L17.986,18.9907 Z M3.7723,7.2534 C3.7723,8.5446 4.683,9.4601 5.9907,9.4601 C7.2983,9.4601 8.2324,8.5446 8.2324,7.2534 C8.2324,5.939 7.2983,5 5.9907,5 C4.683,5 3.7723,5.939 3.7723,7.2534 Z M10.1104,7.2536 C10.1104,8.5613 11.0444,9.4953 12.3521,9.4953 C13.6598,9.4953 14.5705,8.5613 14.5705,7.2536 C14.5705,5.9459 13.6598,5.0352 12.3521,5.0352 C11.0444,5.0352 10.1104,5.9459 10.1104,7.2536 Z M16.4836,7.2535 C16.4836,8.5446 17.4226,9.4601 18.7372,9.4601 C20.0048,9.4601 20.9438,8.5448 20.9438,7.2535 C20.9438,5.939 20.0518,5 18.7372,5 C17.4226,5 16.4836,5.939 16.4836,7.2535 Z" id="🎨-Color"></path>
        </g>
    </g>
</svg>