<svg width="24" height="24" xmlns="http://www.w3.org/2000/svg"><path d="M2 20.969c0 .562.438 1 1 1 .531 0 1-.438 1-1v-5.844c0-.094.031-.094.125-.094h3.75c.063 0 .125.031.125.094v5.844C8 21.53 8.438 22 9 22c.563 0 1-.469 1-1.031v-5.844c0-1.156-.969-2.094-2.125-2.094h-3.75C2.969 13.031 2 13.906 2 14.97v6zm10-6.938c0 .531.438 1 1 1h.844c.094 0 .156.063.156.094v5.844c0 .562.438 1 .969 1 .594 0 1.031-.438 1.031-1v-5.844c0-1.125-.969-2.094-2.125-2.094H13c-.563 0-1 .438-1 1zm6 0c0 .531.469 1 1 1h.875c.063 0 .125.063.125.094v5.844c0 .562.469 1 1 1 .563 0 1-.438 1-1v-5.844c0-1.125-.969-2.094-2.094-2.094H19c-.531 0-1 .438-1 1zM3.75 9.25c0 1.25 1 2.281 2.25 2.281 1.219 0 2.25-1.031 2.25-2.281C8.25 8.031 7.219 7 6 7a2.26 2.26 0 00-2.25 2.25zm6.344 0c0 1.25 1 2.281 2.25 2.281 1.219 0 2.25-1.031 2.25-2.281 0-1.219-1.031-2.219-2.25-2.219-1.25 0-2.25 1-2.25 2.219zm6.406 0c0 1.25 1 2.281 2.25 2.281 1.219 0 2.219-1.031 2.219-2.281 0-1.219-1-2.25-2.219-2.25a2.26 2.26 0 00-2.25 2.25z" fill="#282D37" fill-rule="evenodd"/></svg>