<?xml version="1.0" encoding="UTF-8"?>
<svg width="24px" height="24px" viewBox="0 0 24 24" version="1.1" xmlns="http://www.w3.org/2000/svg" xmlns:xlink="http://www.w3.org/1999/xlink">
    <!-- Generator: Sketch 64 (93537) - https://sketch.com -->
    <title>ic-db_journey_2nd-class_24</title>
    <desc>Created with Sketch.</desc>
    <g id="Symbols:Icon" stroke="none" stroke-width="1" fill="none" fill-rule="evenodd">
        <g id="24dp-Icon/Journey/2nd-Class" fill="#282D37">
            <path d="M7,17.9977 C7,17.6752 7.129,17.3848 7.3871,17.1913 L8.0322,16.7074 C11.5806,14.0945 13.6829,11.8125 13.6774,9.5161 C13.6774,7.3548 12.0645,7.0323 11.0967,7.0323 C10.3548,7.0323 9.5483,7.2258 8.8387,7.4839 C8.3548,7.6774 8.2258,7.7419 8.0967,7.7419 C7.5806,7.7419 7.0967,7.3226 7.0967,6.7097 C7.0967,6.3548 7.2903,6 7.6451,5.8065 C8.7096,5.2903 9.9354,5 11.0967,5 C13.9032,5 15.6774,6.7742 15.6774,9.5161 C15.6774,12.3548 13.5483,14.8042 10.9032,16.9977 L15.5806,16.9977 C16.1613,16.9977 16.6129,17.4494 16.6129,17.9977 C16.6129,18.5461 16.1613,18.9977 15.5806,18.9977 L8,18.9977 C7.4516,18.9977 7,18.5784 7,17.9977 Z M19,17.9977 C19,17.4521857 19.4545796,16.9977 20,16.9977 C20.5455143,16.9977 21,17.4521857 21,17.9977 C21,18.5431204 20.5455143,18.9977 20,18.9977 C19.4545796,18.9977 19,18.5431204 19,17.9977 Z" id="🎨-Color"></path>
        </g>
    </g>
</svg>