<?xml version="1.0" encoding="utf-8"?>
<!-- Generator: Adobe Illustrator 24.1.2, SVG Export Plug-In . SVG Version: 6.00 Build 0)  -->
<svg version="1.1" xmlns="http://www.w3.org/2000/svg" xmlns:xlink="http://www.w3.org/1999/xlink" x="0px" y="0px"
	 viewBox="0 0 24 24" style="enable-background:new 0 0 24 24;" xml:space="preserve">
<style type="text/css">
	.st0{fill:#3F434C;}
</style>
<g id="guides">
</g>
<g id="Ebene_1">
	<path class="st0" d="M12.8,9.5c-1.2-0.4-1.4-0.8-1.4-1.2c0-0.4,0.3-0.7,0.8-0.7c0.9,0,1.4,0.7,1.4,0.7l1.1-1.2c0,0-0.8-1.1-2.6-1.1
		c-1.7,0-2.8,1-2.8,2.4c0,0.5,0.2,1,0.6,1.4c-1,0.4-1.6,1.1-1.6,2c0,1.1,0.7,1.9,2.8,2.7c1.1,0.4,1.4,0.8,1.4,1.2
		c0,0.4-0.3,0.7-0.9,0.7c-0.9,0-1.4-0.6-1.4-0.6l-1.1,1.2c0,0,0.8,1.1,2.6,1.1c1.7,0,2.8-1,2.8-2.4c0-0.5-0.2-1-0.6-1.4
		c1-0.4,1.6-1.1,1.6-2C15.6,11.1,14.9,10.2,12.8,9.5z M12.8,13.3c-0.2-0.1-0.4-0.2-0.6-0.2c-1.6-0.5-1.9-0.9-1.9-1.5
		c0-0.4,0.3-0.7,0.8-0.8c0.2,0.1,0.4,0.2,0.6,0.2c1.6,0.5,1.9,0.9,1.9,1.5C13.7,12.9,13.4,13.1,12.8,13.3z"/>
	<path class="st0" d="M12,2C6.5,2,2,6.5,2,12s4.5,10,10,10s10-4.5,10-10S17.5,2,12,2z M12,20c-4.4,0-8-3.6-8-8s3.6-8,8-8s8,3.6,8,8
		S16.4,20,12,20z"/>
</g>
</svg>
