<?xml version="1.0" encoding="utf-8"?>
<!-- Generator: Adobe Illustrator 24.1.2, SVG Export Plug-In . SVG Version: 6.00 Build 0)  -->
<svg version="1.1" xmlns="http://www.w3.org/2000/svg" xmlns:xlink="http://www.w3.org/1999/xlink" x="0px" y="0px"
	 viewBox="0 0 24 24" style="enable-background:new 0 0 24 24;" xml:space="preserve">
<style type="text/css">
	.st0{fill:#3F434C;}
</style>
<g id="guides">
</g>
<g id="Ebene_1">
	<path class="st0" d="M3.7,13.3l6.9,7.1C11,20.8,11.5,21,12,21s1-0.2,1.4-0.6l6.9-7.1c1.2-1.2,1.8-2.9,1.7-4.6
		c-0.1-1.7-0.8-3.3-2.1-4.4h0c-2.2-1.9-5.7-1.7-7.9,0.4C9.8,2.6,6.4,2.4,4.1,4.3C2.8,5.4,2.1,7,2,8.7C1.9,10.4,2.5,12.1,3.7,13.3z
		 M5.4,5.9C6.1,5.3,6.9,5,7.8,5c1.1,0,2.1,0.4,2.9,1.3L12,7.6l1.3-1.3c1.5-1.5,3.8-1.7,5.3-0.4c0.9,0.7,1.4,1.8,1.4,2.9
		c0.1,1.1-0.4,2.3-1.1,3.1L12,19l-6.9-7.1C4.4,11.1,4,9.9,4,8.8C4.1,7.6,4.6,6.6,5.4,5.9z"/>
</g>
</svg>
