<?xml version="1.0" encoding="utf-8"?>
<!-- Generator: Adobe Illustrator 24.1.2, SVG Export Plug-In . SVG Version: 6.00 Build 0)  -->
<svg version="1.1" xmlns="http://www.w3.org/2000/svg" xmlns:xlink="http://www.w3.org/1999/xlink" x="0px" y="0px"
	 viewBox="0 0 24 24" style="enable-background:new 0 0 24 24;" xml:space="preserve">
<style type="text/css">
	.st0{fill:#3F434C;}
</style>
<g id="guides">
</g>
<g id="Ebene_1">
	<rect x="5" y="9.1" class="st0" width="3.1" height="8.9"/>
	<path class="st0" d="M16.7,9.2C16.6,9.2,16.6,9.1,16.7,9.2c-0.1,0-0.2,0-0.2-0.1c-0.2,0-0.3-0.1-0.6-0.1c-1.8,0-3,1.2-3.4,1.7V9.1
		H9.4V18h3.1v-4.9c0,0,2.4-3.1,3.4-0.8c0,2,0,5.7,0,5.7H19v-6C19,10.6,18,9.5,16.7,9.2z"/>
	<ellipse class="st0" cx="6.5" cy="6.4" rx="1.5" ry="1.4"/>
</g>
</svg>
