<?xml version="1.0" encoding="utf-8"?>
<!-- Generator: Adobe Illustrator 24.1.2, SVG Export Plug-In . SVG Version: 6.00 Build 0)  -->
<svg version="1.1" xmlns="http://www.w3.org/2000/svg" xmlns:xlink="http://www.w3.org/1999/xlink" x="0px" y="0px"
	 viewBox="0 0 24 24" style="enable-background:new 0 0 24 24;" xml:space="preserve">
<style type="text/css">
	.st0{fill:#3F434C;}
</style>
<g id="guides">
</g>
<g id="Ebene_1">
	<path class="st0" d="M21,14c0-0.6-0.4-1-1-1s-1,0.4-1,1v5H5V5h5c0.6,0,1-0.4,1-1s-0.4-1-1-1H5C3.9,3,3,3.9,3,5v14c0,1.1,0.9,2,2,2
		h14c1.1,0,2-0.9,2-2V14z"/>
	<path class="st0" d="M21,4c0-0.6-0.4-1-1-1h-6c-0.6,0-1,0.4-1,1s0.4,1,1,1h3.6l-8.3,8.3c-0.4,0.4-0.4,1,0,1.4
		C9.5,14.9,9.7,15,10,15s0.5-0.1,0.7-0.3L19,6.4V10c0,0.6,0.4,1,1,1s1-0.4,1-1V4z"/>
</g>
</svg>
