<?xml version="1.0" encoding="utf-8"?>
<!-- Generator: Adobe Illustrator 24.1.2, SVG Export Plug-In . SVG Version: 6.00 Build 0)  -->
<svg version="1.1" xmlns="http://www.w3.org/2000/svg" xmlns:xlink="http://www.w3.org/1999/xlink" x="0px" y="0px"
	 viewBox="0 0 24 24" style="enable-background:new 0 0 24 24;" xml:space="preserve">
<style type="text/css">
	.st0{fill:#3F434C;}
</style>
<g id="guides">
</g>
<g id="Ebene_1">
	<circle class="st0" cx="6" cy="7" r="1"/>
	<circle class="st0" cx="6" cy="12" r="1"/>
	<circle class="st0" cx="6" cy="17" r="1"/>
	<path class="st0" d="M18,6h-8C9.4,6,9,6.4,9,7c0,0.6,0.4,1,1,1h8c0.6,0,1-0.4,1-1C19,6.4,18.6,6,18,6z"/>
	<path class="st0" d="M18,11h-8c-0.6,0-1,0.4-1,1c0,0.6,0.4,1,1,1h8c0.6,0,1-0.4,1-1C19,11.4,18.6,11,18,11z"/>
	<path class="st0" d="M18,16h-8c-0.6,0-1,0.4-1,1c0,0.6,0.4,1,1,1h8c0.6,0,1-0.4,1-1C19,16.4,18.6,16,18,16z"/>
</g>
</svg>
