<?xml version="1.0" encoding="utf-8"?>
<!-- Generator: Adobe Illustrator 24.1.2, SVG Export Plug-In . SVG Version: 6.00 Build 0)  -->
<svg version="1.1" xmlns="http://www.w3.org/2000/svg" xmlns:xlink="http://www.w3.org/1999/xlink" x="0px" y="0px"
	 viewBox="0 0 24 24" style="enable-background:new 0 0 24 24;" xml:space="preserve">
<style type="text/css">
	.st0{fill:#3F434C;}
</style>
<g id="guides">
</g>
<g id="Ebene_1">
	<path class="st0" d="M19,9.3V9c0-3.9-3.1-7-7-7S5,5.1,5,9v0.3c-1.7,0.6-3,2.3-3,4.2s1.3,3.6,3,4.2V18c0,1.7,1.3,3,3,3h1.3
		c0.3,0.6,1,1,1.7,1c1.1,0,2-0.9,2-2c0-1.1-0.9-2-2-2c-0.7,0-1.4,0.4-1.7,1H8c-0.6,0-1-0.4-1-1c1.1,0,2-0.9,2-2v-5c0-1.1-0.9-2-2-2
		c0-2.8,2.2-5,5-5s5,2.2,5,5c-1.1,0-2,0.9-2,2v5c0,1.1,0.9,2,2,2h0.5c2.5,0,4.5-2,4.5-4.5C22,11.5,20.7,9.9,19,9.3z M7,16H6.5
		C5.1,16,4,14.9,4,13.5S5.1,11,6.5,11H7L7,16z M17.5,16H17l0-5h0h0.5c1.4,0,2.5,1.1,2.5,2.5S18.9,16,17.5,16z"/>
</g>
</svg>
