<?xml version="1.0" encoding="utf-8"?>
<!-- Generator: Adobe Illustrator 24.1.2, SVG Export Plug-In . SVG Version: 6.00 Build 0)  -->
<svg version="1.1" xmlns="http://www.w3.org/2000/svg" xmlns:xlink="http://www.w3.org/1999/xlink" x="0px" y="0px"
	 viewBox="0 0 24 24" style="enable-background:new 0 0 24 24;" xml:space="preserve">
<style type="text/css">
	.st0{fill:#3F434C;}
</style>
<g id="guides">
</g>
<g id="Ebene_1">
	<path class="st0" d="M16.6,20.8c0.3-0.3,0.4-0.7,0.2-1.1c-0.2-0.5-0.8-0.7-1.3-0.5c-2.2,1-4.7,1-6.9,0c-0.5-0.2-1.1,0-1.3,0.5
		c-0.2,0.5,0,1.1,0.5,1.3c2.7,1.3,5.9,1.3,8.6,0C16.4,21,16.5,20.9,16.6,20.8z"/>
	<path class="st0" d="M19.7,7.2c-0.5,0.2-0.7,0.8-0.5,1.3c1,2.2,1,4.7,0,6.9c-0.2,0.5,0,1.1,0.5,1.3c0.4,0.2,0.8,0.1,1.1-0.2
		c0.1-0.1,0.1-0.2,0.2-0.3c1.3-2.7,1.3-5.9,0-8.6C20.8,7.2,20.2,7,19.7,7.2z"/>
	<path class="st0" d="M4.3,7.2C3.8,7,3.2,7.2,3,7.7c-1.3,2.7-1.3,5.9,0,8.6c0.2,0.5,0.8,0.7,1.3,0.5c0.1,0,0.2-0.1,0.3-0.2
		c0.3-0.3,0.4-0.7,0.2-1.1c-1-2.2-1-4.7,0-6.9C5,8.1,4.8,7.5,4.3,7.2z"/>
	<path class="st0" d="M8.6,4.8c2.2-1,4.7-1,6.9,0c0.4,0.2,0.8,0.1,1.1-0.2c0.1-0.1,0.1-0.2,0.2-0.3c0.2-0.5,0-1.1-0.5-1.3
		c-2.7-1.3-5.9-1.3-8.6,0C7.2,3.2,7,3.8,7.2,4.3C7.5,4.8,8.1,5,8.6,4.8z"/>
</g>
</svg>
