<?xml version="1.0" encoding="utf-8"?>
<!-- Generator: Adobe Illustrator 24.1.2, SVG Export Plug-In . SVG Version: 6.00 Build 0)  -->
<svg version="1.1" xmlns="http://www.w3.org/2000/svg" xmlns:xlink="http://www.w3.org/1999/xlink" x="0px" y="0px"
	 viewBox="0 0 24 24" style="enable-background:new 0 0 24 24;" xml:space="preserve">
<style type="text/css">
	.st0{fill:#3F434C;}
</style>
<g id="guides">
</g>
<g id="Ebene_1">
	<path class="st0" d="M12,3C9.2,3,7,5.2,7,8v1c-2.2,0-4,1.8-4,4v6c0,1.1,0.9,2,2,2h14c1.1,0,2-0.9,2-2v-6c0-2.2-1.8-4-4-4V8
		C17,5.2,14.8,3,12,3z M9,8c0-1.7,1.3-3,3-3c1.7,0,3,1.3,3,3v0.5H9V8z M19,13v6H5v-6c0-1.1,0.9-2,2-2h10C18.1,11,19,11.9,19,13z"/>
	<path class="st0" d="M12,12c-1.1,0-2,0.9-2,2c0,0.7,0.4,1.4,1,1.7V17c0,0.6,0.4,1,1,1s1-0.4,1-1v-1.3c0.6-0.3,1-1,1-1.7
		C14,12.9,13.1,12,12,12z"/>
</g>
</svg>
