<?xml version="1.0" encoding="utf-8"?>
<!-- Generator: Adobe Illustrator 24.1.2, SVG Export Plug-In . SVG Version: 6.00 Build 0)  -->
<svg version="1.1" xmlns="http://www.w3.org/2000/svg" xmlns:xlink="http://www.w3.org/1999/xlink" x="0px" y="0px"
	 viewBox="0 0 24 24" style="enable-background:new 0 0 24 24;" xml:space="preserve">
<style type="text/css">
	.st0{fill:#3F434C;}
</style>
<g id="guides">
</g>
<g id="Ebene_1">
	<path class="st0" d="M14,9c0.6,0,1-0.4,1-1V5c0-0.6-0.4-1-1-1H5C4.4,4,4,4.4,4,5v14c0,0.6,0.4,1,1,1h9c0.6,0,1-0.4,1-1v-3
		c0-0.6-0.4-1-1-1c-0.6,0-1,0.4-1,1v2h-3V8.5c0-0.6-0.3-1.2-0.8-1.6L8,6h5v2C13,8.6,13.5,9,14,9z M8,8.5V18H6V7L8,8.5z"/>
	<path class="st0" d="M18.7,8.3c-0.4-0.4-1-0.4-1.4,0c-0.4,0.4-0.4,1,0,1.4l1.3,1.3H13c-0.6,0-1,0.4-1,1c0,0.6,0.4,1,1,1h5.6
		l-1.3,1.3C17.1,14.5,17,14.7,17,15c0,0.3,0.1,0.5,0.3,0.7c0.4,0.4,1,0.4,1.4,0l3-3c0.4-0.4,0.4-1,0-1.4L18.7,8.3z"/>
</g>
</svg>
