<?xml version="1.0" encoding="utf-8"?>
<!-- Generator: Adobe Illustrator 24.1.2, SVG Export Plug-In . SVG Version: 6.00 Build 0)  -->
<svg version="1.1" xmlns="http://www.w3.org/2000/svg" xmlns:xlink="http://www.w3.org/1999/xlink" x="0px" y="0px"
	 viewBox="0 0 24 24" style="enable-background:new 0 0 24 24;" xml:space="preserve">
<style type="text/css">
	.st0{fill:#3F434C;}
</style>
<g id="guides">
</g>
<g id="Ebene_1">
	<path class="st0" d="M8,21c1.1,0,2-0.9,2-2v-6.2c1.2-0.4,2-1.5,2-2.8V4c0-0.6-0.4-1-1-1s-1,0.4-1,1v5H9V4c0-0.6-0.4-1-1-1
		S7,3.4,7,4v5H6V4c0-0.6-0.4-1-1-1S4,3.4,4,4v6c0,1.3,0.8,2.4,2,2.8V19C6,20.1,6.9,21,8,21z"/>
	<path class="st0" d="M18,21c1.1,0,2-0.9,2-2v-5V4c0-0.6-0.4-1-1-1c-2.8,0-5,2.2-5,5v6c0,0.6,0.4,1,1,1h1v4C16,20.1,16.9,21,18,21z
		 M16,8c0-1.3,0.8-2.4,2-2.8V13h-2V8z"/>
</g>
</svg>
