<?xml version="1.0" encoding="utf-8"?>
<!-- Generator: Adobe Illustrator 24.1.2, SVG Export Plug-In . SVG Version: 6.00 Build 0)  -->
<svg version="1.1" xmlns="http://www.w3.org/2000/svg" xmlns:xlink="http://www.w3.org/1999/xlink" x="0px" y="0px"
	 viewBox="0 0 24 24" style="enable-background:new 0 0 24 24;" xml:space="preserve">
<style type="text/css">
	.st0{fill:#3F434C;}
</style>
<g id="guides">
</g>
<g id="Ebene_1">
	<path class="st0" d="M3.5,17.9l5,3C8.6,21,8.8,21,9,21c0.2,0,0.3,0,0.4-0.1l5.5-2.8l4.5,2.7c0.3,0.2,0.7,0.2,1,0
		c0.3-0.2,0.5-0.5,0.5-0.9V7c0-0.4-0.2-0.7-0.5-0.9l-5-3c-0.3-0.2-0.7-0.2-1,0L9,5.9L4.5,3.1C4.2,3,3.8,3,3.5,3.1S3,3.6,3,4v13
		C3,17.4,3.2,17.7,3.5,17.9z M16,5.8l3,1.8v10.7l-3-1.8V5.8z M10,7.6l4-2v10.8l-4,2V7.6z M5,5.8l3,1.8v10.7l-3-1.8V5.8z"/>
</g>
</svg>
