<?xml version="1.0" encoding="UTF-8"?>
<svg width="24px" height="24px" viewBox="0 0 24 24" version="1.1" xmlns="http://www.w3.org/2000/svg" xmlns:xlink="http://www.w3.org/1999/xlink">
    <!-- Generator: Sketch 64 (93537) - https://sketch.com -->
    <title>ic-db_maps_place_24</title>
    <desc>Created with Sketch.</desc>
    <g id="Symbols" stroke="none" stroke-width="1" fill="none" fill-rule="evenodd">
        <g id="24dp-Icon/Maps/Place" fill="#282D37">
            <path d="M6,21 C6,20.4688 6.4688,20 7,20 L17,20 C17.5312,20 18,20.4688 18,21 C18,21.5312 17.5312,22 17,22 L7,22 C6.4688,22 6,21.5312 6,21 Z M12,2 C15.4062,2 18,4.5625 18,7.625 C18,8.7812 17.6562,9.9062 16.9062,11.0625 L12.8438,17.5312 C12.625,17.8438 12.3125,18 12,18 C11.6562,18 11.375,17.8438 11.1562,17.5312 L7.0938,11.0938 C6.375,9.9375 6,8.7812 6,7.625 C6,4.5625 8.5625,2 12,2 Z M12.0312,4 C9.75,4 8,5.5938 8,7.5938 C8,8.3438 8.25,9.125 8.7812,9.9688 L12,15 L15.2188,9.9688 C15.4375,9.6562 16,8.7812 16,7.625 C16,5.5938 14.2812,4 12.0312,4 Z M10,8 C10,6.9062 10.9062,6 12,6 C13.0938,6 14,6.9062 14,8 C14,9.0938 13.0938,10 12,10 C10.9062,10 10,9.0938 10,8 Z" id="🎨-Color"></path>
        </g>
    </g>
</svg>