<?xml version="1.0" encoding="utf-8"?>
<!-- Generator: Adobe Illustrator 24.1.2, SVG Export Plug-In . SVG Version: 6.00 Build 0)  -->
<svg version="1.1" xmlns="http://www.w3.org/2000/svg" xmlns:xlink="http://www.w3.org/1999/xlink" x="0px" y="0px"
	 viewBox="0 0 24 24" style="enable-background:new 0 0 24 24;" xml:space="preserve">
<style type="text/css">
	.st0{fill:#3F434C;}
</style>
<g id="guides">
</g>
<g id="Ebene_1">
	<path class="st0" d="M19,7h-2.1c-0.5-2.3-2.5-4-4.9-4S7.6,4.7,7.1,7H5C3.9,7,3,7.9,3,9v10c0,1.1,0.9,2,2,2h14c1.1,0,2-0.9,2-2V9
		C21,7.9,20.1,7,19,7z M12,5c1.3,0,2.4,0.8,2.8,2H9.2C9.6,5.8,10.7,5,12,5z M5,19V9h14l0,10H5z"/>
	<polygon class="st0" points="13,11 11,11 11,13 9,13 9,15 11,15 11,17 13,17 13,15 15,15 15,13 13,13 	"/>
</g>
</svg>
