<?xml version="1.0" encoding="utf-8"?>
<!-- Generator: Adobe Illustrator 24.1.2, SVG Export Plug-In . SVG Version: 6.00 Build 0)  -->
<svg version="1.1" xmlns="http://www.w3.org/2000/svg" xmlns:xlink="http://www.w3.org/1999/xlink" x="0px" y="0px"
	 viewBox="0 0 24 24" style="enable-background:new 0 0 24 24;" xml:space="preserve">
<style type="text/css">
	.st0{fill:#3F434C;}
</style>
<g id="guides">
</g>
<g id="Ebene_1">
	<path class="st0" d="M9.9,6.2L12,4l2.1,2.2c0.2,0.2,0.5,0.3,0.7,0.3s0.5-0.1,0.7-0.3c0.4-0.4,0.4-1,0-1.4l-2.1-2.2
		c-0.8-0.8-2-0.8-2.8,0L8.5,4.8c-0.4,0.4-0.4,1,0,1.4S9.5,6.6,9.9,6.2z"/>
	<path class="st0" d="M19.2,8.5c-0.4-0.4-1-0.4-1.4,0c-0.4,0.4-0.4,1,0,1.4L20,12l-2.2,2.1c-0.4,0.4-0.4,1,0,1.4
		c0.2,0.2,0.5,0.3,0.7,0.3c0.3,0,0.5-0.1,0.7-0.3l2.2-2.1c0.8-0.8,0.8-2,0-2.8L19.2,8.5z"/>
	<path class="st0" d="M14.1,17.8L12,20l-2.1-2.2c-0.4-0.4-1-0.4-1.4,0s-0.4,1,0,1.4l2.1,2.2C11,21.8,11.5,22,12,22s1-0.2,1.4-0.6
		l2.1-2.2c0.4-0.4,0.4-1,0-1.4S14.5,17.4,14.1,17.8z"/>
	<path class="st0" d="M2.6,13.4l2.2,2.1c0.2,0.2,0.5,0.3,0.7,0.3c0.3,0,0.5-0.1,0.7-0.3c0.4-0.4,0.4-1,0-1.4L4,12l2.2-2.1
		c0.4-0.4,0.4-1,0-1.4c-0.4-0.4-1-0.4-1.4,0l-2.2,2.1C1.8,11.4,1.8,12.6,2.6,13.4z"/>
	<path class="st0" d="M17,12c0-0.6-0.4-1-1-1h-3V8c0-0.6-0.4-1-1-1s-1,0.4-1,1v3H8c-0.6,0-1,0.4-1,1s0.4,1,1,1h3v3c0,0.6,0.4,1,1,1
		s1-0.4,1-1v-3h3C16.6,13,17,12.6,17,12z"/>
</g>
</svg>
