<?xml version="1.0" encoding="utf-8"?>
<!-- Generator: Adobe Illustrator 24.1.2, SVG Export Plug-In . SVG Version: 6.00 Build 0)  -->
<svg version="1.1" xmlns="http://www.w3.org/2000/svg" xmlns:xlink="http://www.w3.org/1999/xlink" x="0px" y="0px"
	 viewBox="0 0 24 24" style="enable-background:new 0 0 24 24;" xml:space="preserve">
<style type="text/css">
	.st0{fill:#3F434C;}
</style>
<g id="guides">
</g>
<g id="Ebene_1">
	<path class="st0" d="M19,3H5C3.9,3,3,3.9,3,5v14c0,1.1,0.9,2,2,2h14c1.1,0,2-0.9,2-2V5C21,3.9,20.1,3,19,3z M19,5l0,2h-2V5H19z
		 M17,13h2l0,2h-2V13z M17,11V9h2l0,2H17z M15,5v6H9V5H15z M7,15H5v-2h2V15z M5,11V9h2v2H5z M7,5v2H5V5H7z M5,19v-2h2v2H5z M9,19v-6
		h6v6H9z M17,19v-2h2l0,2H17z"/>
</g>
</svg>
