<?xml version="1.0" encoding="utf-8"?>
<!-- Generator: Adobe Illustrator 24.1.2, SVG Export Plug-In . SVG Version: 6.00 Build 0)  -->
<svg version="1.1" xmlns="http://www.w3.org/2000/svg" xmlns:xlink="http://www.w3.org/1999/xlink" x="0px" y="0px"
	 viewBox="0 0 24 24" style="enable-background:new 0 0 24 24;" xml:space="preserve">
<style type="text/css">
	.st0{fill:#3F434C;}
</style>
<g id="guides">
</g>
<g id="Ebene_1">
	<path class="st0" d="M9.5,6C7.6,6,6,7.6,6,9.5S7.6,13,9.5,13S13,11.4,13,9.5S11.4,6,9.5,6z M9.5,11C8.7,11,8,10.3,8,9.5
		S8.7,8,9.5,8S11,8.7,11,9.5S10.3,11,9.5,11z"/>
	<path class="st0" d="M15.5,9C17.4,9,19,7.4,19,5.5S17.4,2,15.5,2S12,3.6,12,5.5S13.6,9,15.5,9z M15.5,4C16.3,4,17,4.7,17,5.5
		S16.3,7,15.5,7S14,6.3,14,5.5S14.7,4,15.5,4z"/>
	<path class="st0" d="M3,17.7V20c0,0.6,0.4,1,1,1s1-0.4,1-1v-2.3c0-0.8,0.6-1.5,1.4-1.7c1.9,1,4.2,1,6.1,0c0.8,0.1,1.4,0.8,1.4,1.7
		V20c0,0.6,0.4,1,1,1s1-0.4,1-1v-2.3c0-2-1.6-3.7-3.7-3.7c-0.2,0-0.4,0-0.5,0.1c-1.4,0.8-3.2,0.8-4.6,0C7,14,6.9,14,6.7,14
		C4.6,14,3,15.6,3,17.7z"/>
	<path class="st0" d="M18.3,10c-0.2,0-0.4,0-0.5,0.1c-0.7,0.4-1.5,0.6-2.3,0.6c-0.6,0-1,0.4-1,1s0.4,1,1,1c1.1,0,2.1-0.3,3.1-0.8
		c0.8,0.1,1.4,0.8,1.4,1.7V16c0,0.6,0.4,1,1,1s1-0.4,1-1v-2.3C22,11.6,20.4,10,18.3,10z"/>
</g>
</svg>
