<?xml version="1.0" encoding="UTF-8"?>
<svg width="24px" height="24px" viewBox="0 0 24 24" version="1.1" xmlns="http://www.w3.org/2000/svg" xmlns:xlink="http://www.w3.org/1999/xlink">
    <!-- Generator: Sketch 64 (93537) - https://sketch.com -->
    <title>ic-db_navigation_link-external_24</title>
    <desc>Created with Sketch.</desc>
    <g id="Symbols:Icon" stroke="none" stroke-width="1" fill="none" fill-rule="evenodd">
        <g id="24dp-Icon/Navigation/Link-External" fill="#282D37">
            <path d="M7.0312,18 C7.25,18 7.5,17.9062 7.6875,17.7188 L16,9.4062 L16,15 C16,15.5938 16.4688,16.0312 17,16.0312 C17.5312,16.0312 18,15.5625 18,15 L18,6.9062 C18,6.375 17.5312,6 17,6 L9,6 C8.4062,6 8,6.4688 8,7 C8,7.5 8.4688,8 9,8 L14.5938,8 L6.2188,16.375 C6.0625,16.5312 6,16.7812 6,16.9688 C6,17.5625 6.4375,18 7.0312,18 Z" id="🎨-Color"></path>
        </g>
    </g>
</svg>