<?xml version="1.0" encoding="UTF-8"?>
<svg width="24px" height="24px" viewBox="0 0 24 24" version="1.1" xmlns="http://www.w3.org/2000/svg" xmlns:xlink="http://www.w3.org/1999/xlink">
    <!-- Generator: Sketch 64 (93537) - https://sketch.com -->
    <title>ic-db_navigation_expand-more_24</title>
    <desc>Created with Sketch.</desc>
    <g id="Symbols" stroke="none" stroke-width="1" fill="none" fill-rule="evenodd">
        <g id="24dp-Icon/Navigation/Expand-More" fill="#282D37">
            <path d="M18,8 C18.5625,8 19,8.4375 19,9 C19,9.25 18.875,9.5 18.6875,9.6875 L12.7188,15.7188 C12.5312,15.9062 12.25,16 12,16 C11.75,16 11.4688,15.9062 11.2812,15.7188 L5.3125,9.6875 C5.125,9.5 5,9.25 5,9 C5,8.4375 5.4375,8 6,8 C6.2812,8 6.5,8.0938 6.7188,8.2812 L12,13.5625 L17.2812,8.2812 C17.4688,8.0938 17.7188,8 18,8 Z" id="🎨-Color"></path>
        </g>
    </g>
</svg>