<?xml version="1.0" encoding="UTF-8"?>
<svg width="24px" height="24px" viewBox="0 0 24 24" version="1.1" xmlns="http://www.w3.org/2000/svg" xmlns:xlink="http://www.w3.org/1999/xlink">
    <!-- Generator: Sketch 64 (93537) - https://sketch.com -->
    <title>ic-db_navigation_menu_24</title>
    <desc>Created with Sketch.</desc>
    <g id="Symbols" stroke="none" stroke-width="1" fill="none" fill-rule="evenodd">
        <g id="24dp-Icon/Navigation/Menu" fill="#282D37">
            <path d="M5,16 C5,15.4688 5.4688,15 6.0312,15 L18.9688,15 C19.5312,15 20,15.4688 20,16 C20,16.5625 19.5312,17 18.9688,17 L6.0312,17 C5.4688,17 5,16.5625 5,16 Z M5,12 C5,11.4688 5.4688,11 6.0312,11 L16,11 C16.5312,11 17,11.4688 17,12 C17,12.5312 16.5312,13 16,13 L6.0312,13 C5.4688,13 5,12.5312 5,12 Z M5,8 C5,7.4375 5.4688,7 6.0312,7 L18.9688,7 C19.5312,7 20,7.4375 20,8 C20,8.5312 19.5312,9 18.9688,9 L6.0312,9 C5.4688,9 5,8.5312 5,8 Z" id="🎨-Color"></path>
        </g>
    </g>
</svg>