<?xml version="1.0" encoding="UTF-8"?>
<svg width="24px" height="24px" viewBox="0 0 24 24" version="1.1" xmlns="http://www.w3.org/2000/svg" xmlns:xlink="http://www.w3.org/1999/xlink">
    <!-- Generator: Sketch 64 (93537) - https://sketch.com -->
    <title>ic-db_navigation_fullscreen-exit_24</title>
    <desc>Created with Sketch.</desc>
    <g id="Symbols" stroke="none" stroke-width="1" fill="none" fill-rule="evenodd">
        <g id="24dp-Icon/Navigation/Fullscreen-Exit" fill="#282D37">
            <path d="M9.03118173,21 C8.53118173,21 8,20.5937438 8,19.968719 L8,16 L4,16 C3.46871897,16 3,15.531281 3,14.9688183 C3,14.4375372 3.46871897,14 4,14 L9,14 C9.56246276,14 10,14.4375372 10,14.9688183 L10,19.968719 C10,20.531281 9.56246276,21 9.03118173,21 Z M16,19.968719 C16,20.5937438 15.4688183,21 14.9688183,21 C14.4375372,21 14,20.531281 14,19.968719 L14,14.9688183 C14,14.4375372 14.4375372,14 15,14 L20,14 C20.531281,14 21,14.4375372 21,14.9688183 C21,15.531281 20.531281,16 20,16 L16,16 L16,19.968719 Z M14.9688183,3 C15.4688183,3 16,3.40625621 16,4.03128103 L16,8 L20,8 C20.531281,8 21,8.46871897 21,9.03118173 C21,9.56246276 20.531281,10 20,10 L15,10 C14.4375372,10 14,9.56246276 14,9.03118173 L14,4.03128103 C14,3.46871897 14.4375372,3 14.9688183,3 Z M8,4.03128103 C8,3.40625621 8.53118173,3 9.03118173,3 C9.56246276,3 10,3.46871897 10,4.03128103 L10,9.03118173 C10,9.56246276 9.56246276,10 9,10 L4,10 C3.46871897,10 3,9.56246276 3,9.03118173 C3,8.46871897 3.46871897,8 4,8 L8,8 L8,4.03128103 Z" id="🎨-Color"></path>
        </g>
    </g>
</svg>