<?xml version="1.0" encoding="UTF-8"?>
<svg width="24px" height="24px" viewBox="0 0 24 24" version="1.1" xmlns="http://www.w3.org/2000/svg" xmlns:xlink="http://www.w3.org/1999/xlink">
    <!-- Generator: Sketch 64 (93537) - https://sketch.com -->
    <title>ic-db_navigation_cancel_24</title>
    <desc>Created with Sketch.</desc>
    <g id="Symbols" stroke="none" stroke-width="1" fill="none" fill-rule="evenodd">
        <g id="24dp-Icon/Navigation/Cancel" fill="#282D37">
            <path d="M12,2 C17.5312,2 22,6.4688 22,12 C22,17.5312 17.5312,22 12,22 C6.4688,22 2,17.5312 2,12 C2,6.4688 6.4688,2 12,2 Z M12,4 C7.5938,4 4,7.5938 4,12 C4,16.4062 7.5938,20 12,20 C16.4062,20 20,16.4062 20,12 C20,7.5938 16.4062,4 12,4 Z M7.5,15.5 C7.5,15.2812 7.5938,15 7.7812,14.8125 L10.5938,12 L7.7812,9.2188 C7.5938,9 7.5,8.7188 7.5,8.5 C7.5,7.9375 7.9688,7.5 8.5,7.5 C8.7188,7.5 9,7.5938 9.2188,7.7812 L12,10.5938 L14.7812,7.8125 C15,7.5938 15.2812,7.5 15.5625,7.5 C16.0312,7.5 16.5,7.8125 16.5,8.5 C16.5,8.75 16.375,9.0312 16.1875,9.2188 L13.4062,12 L16.2188,14.7812 C16.4062,14.9688 16.5,15.2812 16.5,15.5 C16.5,16.0625 16.0312,16.5 15.5,16.5 C15.2812,16.5 15,16.4062 14.7812,16.2188 L12,13.4062 L9.1875,16.2188 C9.0312,16.4062 8.75,16.5 8.5,16.5 C7.9375,16.5 7.5,16.0312 7.5,15.5 Z" id="🎨-Color"></path>
        </g>
    </g>
</svg>