<?xml version="1.0" encoding="UTF-8"?>
<svg width="24px" height="24px" viewBox="0 0 24 24" version="1.1" xmlns="http://www.w3.org/2000/svg" xmlns:xlink="http://www.w3.org/1999/xlink">
    <!-- Generator: Sketch 64 (93537) - https://sketch.com -->
    <title>ic-db_navigation_chevron-left_24</title>
    <desc>Created with Sketch.</desc>
    <g id="Symbols" stroke="none" stroke-width="1" fill="none" fill-rule="evenodd">
        <g id="24dp-Icon/Navigation/Chevron-Left" fill="#282D37">
            <path d="M16,18 C16,18.5625 15.5625,19 15,19 C14.75,19 14.5,18.875 14.3125,18.6875 L8.2812,12.7188 C8.0938,12.5312 8,12.25 8,12 C8,11.75 8.0938,11.4688 8.2812,11.2812 L14.3125,5.3125 C14.5,5.125 14.75,5 15,5 C15.5625,5 16,5.4375 16,6 C16,6.2812 15.9062,6.5 15.7188,6.7188 L10.4375,12 L15.7188,17.2812 C15.9062,17.4688 16,17.7188 16,18 Z" id="🎨-Color"></path>
        </g>
    </g>
</svg>