<?xml version="1.0" encoding="UTF-8"?>
<svg width="24px" height="24px" viewBox="0 0 24 24" version="1.1" xmlns="http://www.w3.org/2000/svg" xmlns:xlink="http://www.w3.org/1999/xlink">
    <!-- Generator: Sketch 64 (93537) - https://sketch.com -->
    <title>ic-db_navigation_cancel-filled_24</title>
    <desc>Created with Sketch.</desc>
    <g id="Symbols:Icon" stroke="none" stroke-width="1" fill="none" fill-rule="evenodd">
        <g id="24dp-Icon/Navigation/Cancel-Filled" fill="#282D37">
            <path d="M12,2 C17.5312,2 22,6.4688 22,12 C22,17.5312 17.5312,22 12,22 C6.4688,22 2,17.5312 2,12 C2,6.4688 6.4688,2 12,2 Z M15.5,7.5 C15.25,7.5 15.0312,7.5938 14.7812,7.8125 L14.7812,7.8125 L12,10.5938 L9.2188,7.7812 C9.0312,7.5938 8.7188,7.5 8.5,7.5 C8.0312,7.5 7.5,7.875 7.5,8.5 C7.5,8.7188 7.5625,8.9688 7.7812,9.2188 L7.7812,9.2188 L10.5938,12 L7.7812,14.8125 C7.5938,15 7.5,15.2812 7.5,15.5 C7.5,15.9688 7.875,16.5 8.5,16.5 C8.7188,16.5 8.9688,16.4062 9.1875,16.2188 L9.1875,16.2188 L12,13.4062 L14.7812,16.2188 C14.9688,16.4062 15.2812,16.5 15.5,16.5 C15.9688,16.5 16.5,16.125 16.5,15.5 C16.5,15.2812 16.4375,15.0312 16.2188,14.8125 L16.2188,14.8125 L13.4062,12 L16.1875,9.2188 C16.4062,9 16.5,8.75 16.5,8.5 C16.5,7.9688 16.0625,7.5 15.5,7.5 Z" id="🎨-Color"></path>
        </g>
    </g>
</svg>