<svg width="24" height="24" xmlns="http://www.w3.org/2000/svg"><path d="M12 2a9.99 9.99 0 0110 10 9.99 9.99 0 01-10 10A9.99 9.99 0 012 12 9.99 9.99 0 0112 2zm0 2c-4.406 0-8 3.594-8 8 0 4.406 3.594 8 8 8 4.406 0 8-3.594 8-8 0-4.406-3.594-8-8-8zm-1 9.062V7c0-.563.469-1 1.031-1 .563 0 .969.438.969 1v6.062c0 .563-.406.97-.969.97-.562 0-1.031-.438-1.03-.97zm1.025 4.75c.625 0 1.125-.5 1.125-1.125s-.5-1.125-1.125-1.125-1.125.5-1.125 1.126c0 .625.5 1.125 1.125 1.125z" fill="#282D37" fill-rule="evenodd"/></svg>