<?xml version="1.0" encoding="UTF-8"?>
<svg width="24px" height="24px" viewBox="0 0 24 24" version="1.1" xmlns="http://www.w3.org/2000/svg" xmlns:xlink="http://www.w3.org/1999/xlink">
    <!-- Generator: Sketch 64 (93537) - https://sketch.com -->
    <title>ic-db_notification_error_24</title>
    <desc>Created with Sketch.</desc>
    <g id="Symbols" stroke="none" stroke-width="1" fill="none" fill-rule="evenodd">
        <g id="24dp-Icon/Notification/Error" fill="#282D37">
            <path d="M12,2 C17.5312,2 22,6.4688 22,12 C22,17.5312 17.5312,22 12,22 C6.4688,22 2,17.5312 2,12 C2,6.4688 6.4688,2 12,2 Z M12,4 C7.5938,4 4,7.5938 4,12 C4,16.4062 7.5938,20 12,20 C16.4062,20 20,16.4062 20,12 C20,7.5938 16.4062,4 12,4 Z M11.0002,13.0623 L11,7 C11,6.4375 11.4687,6 12.0312,6 C12.5937,6 13,6.4375 13,7 L12.9997,13.0623 C13,13.625 12.5937,14.0312 12.0312,14.0312 C11.4687,14.0312 11,13.5938 11.0002,13.0623 Z M12.025,17.8125 C12.65,17.8125 13.15,17.3125 13.15,16.6875 C13.15,16.0625 12.65,15.5625 12.025,15.5625 C11.4,15.5625 10.9,16.0625 10.9,16.6875 C10.9,17.3125 11.4,17.8125 12.025,17.8125 Z" id="🎨-Color"></path>
        </g>
    </g>
</svg>