<?xml version="1.0" encoding="utf-8"?>
<!-- Generator: Adobe Illustrator 24.1.2, SVG Export Plug-In . SVG Version: 6.00 Build 0)  -->
<svg version="1.1" xmlns="http://www.w3.org/2000/svg" xmlns:xlink="http://www.w3.org/1999/xlink" x="0px" y="0px"
	 viewBox="0 0 24 24" style="enable-background:new 0 0 24 24;" xml:space="preserve">
<style type="text/css">
	.st0{fill:#3F434C;}
</style>
<g id="guides">
</g>
<g id="Ebene_1">
	<path class="st0" d="M18,4c-1.1,0-2,0.9-2,2v4.9L5.5,4.3c-0.3-0.2-0.7-0.2-1,0C4.2,4.4,4,4.8,4,5.1V19c0,0.4,0.2,0.7,0.5,0.9
		C4.7,20,4.8,20,5,20c0.2,0,0.4-0.1,0.5-0.2L16,13.2v4.6c0,1.1,0.9,2,2,2s2-0.9,2-2V6C20,4.9,19.1,4,18,4z"/>
</g>
</svg>
