<?xml version="1.0" encoding="utf-8"?>
<!-- Generator: Adobe Illustrator 24.1.2, SVG Export Plug-In . SVG Version: 6.00 Build 0)  -->
<svg version="1.1" xmlns="http://www.w3.org/2000/svg" xmlns:xlink="http://www.w3.org/1999/xlink" x="0px" y="0px"
	 viewBox="0 0 24 24" style="enable-background:new 0 0 24 24;" xml:space="preserve">
<style type="text/css">
	.st0{fill:#3F434C;}
</style>
<g id="guides">
</g>
<g id="Ebene_1">
	<path class="st0" d="M7.4,16.6c3.3,3.3,6.2,4.4,8.2,4.4c1.3,0,2.3-0.4,2.9-1l2-2c0.4-0.4,0.6-0.8,0.6-1.4c0-0.5-0.2-1-0.6-1.4
		l-2.6-2.6c-0.7-0.7-2-0.7-2.7,0l-1.6,1.6c-0.4-0.2-1.2-0.6-2.2-1.6c-1-1-1.4-1.8-1.6-2.2l1.6-1.6c0.7-0.7,0.7-2,0-2.7L8.7,3.5
		C8,2.8,6.7,2.8,6,3.5l-2,2C2.5,7.1,2.1,11.3,7.4,16.6z M5.4,6.9l1.9-2l2.6,2.5l-2,2c-0.2,0.2-0.3,0.4-0.3,0.7c0,0.3,0.1,1.8,2.3,4
		c2.1,2.1,3.7,2.3,4,2.3c0,0,0,0,0,0c0.3,0,0.5-0.1,0.7-0.3l1.9-2l2.6,2.6l-1.9,1.9c-0.9,0.9-4.2,0.7-8.3-3.4
		C4.7,11.1,4.6,7.8,5.4,6.9z"/>
</g>
</svg>
