<?xml version="1.0" encoding="utf-8"?>
<!-- Generator: Adobe Illustrator 24.1.2, SVG Export Plug-In . SVG Version: 6.00 Build 0)  -->
<svg version="1.1" xmlns="http://www.w3.org/2000/svg" xmlns:xlink="http://www.w3.org/1999/xlink" x="0px" y="0px"
	 viewBox="0 0 24 24" style="enable-background:new 0 0 24 24;" xml:space="preserve">
<style type="text/css">
	.st0{fill:#3F434C;}
</style>
<g id="guides">
</g>
<g id="Ebene_1">
	<path class="st0" d="M13.6,17c0.1,0,0.2,0,0.3-0.1l6.8-4.4c0.2-0.1,0.3-0.3,0.3-0.5s-0.1-0.4-0.3-0.5l-6.8-4.4
		c-0.2-0.1-0.4-0.1-0.6,0C13.1,7.2,13,7.4,13,7.6v8.8c0,0.2,0.1,0.4,0.3,0.5C13.4,17,13.5,17,13.6,17z"/>
	<path class="st0" d="M3.9,7.1C3.8,7,3.5,7,3.3,7.1C3.1,7.2,3,7.4,3,7.6v8.8c0,0.2,0.1,0.4,0.3,0.5C3.4,17,3.5,17,3.6,17
		c0.1,0,0.2,0,0.3-0.1l6.8-4.4c0.2-0.1,0.3-0.3,0.3-0.5s-0.1-0.4-0.3-0.5L3.9,7.1z"/>
</g>
</svg>
