<?xml version="1.0" encoding="utf-8"?>
<!-- Generator: Adobe Illustrator 24.1.2, SVG Export Plug-In . SVG Version: 6.00 Build 0)  -->
<svg version="1.1" xmlns="http://www.w3.org/2000/svg" xmlns:xlink="http://www.w3.org/1999/xlink" x="0px" y="0px"
	 viewBox="0 0 24 24" style="enable-background:new 0 0 24 24;" xml:space="preserve">
<style type="text/css">
	.st0{fill:#3F434C;}
</style>
<g id="guides">
</g>
<g id="Ebene_1">
	<path class="st0" d="M10.7,7.1C10.6,7,10.5,7,10.4,7c-0.1,0-0.2,0-0.3,0.1l-6.8,4.4C3.1,11.6,3,11.8,3,12s0.1,0.4,0.3,0.5l6.8,4.4
		c0.2,0.1,0.4,0.1,0.6,0c0.2-0.1,0.3-0.3,0.3-0.5V7.6C11,7.4,10.9,7.2,10.7,7.1z"/>
	<path class="st0" d="M20.7,16.9c0.2-0.1,0.3-0.3,0.3-0.5V7.6c0-0.2-0.1-0.4-0.3-0.5C20.6,7,20.5,7,20.4,7c-0.1,0-0.2,0-0.3,0.1
		l-6.8,4.4C13.1,11.6,13,11.8,13,12s0.1,0.4,0.3,0.5l6.8,4.4C20.2,17,20.5,17,20.7,16.9z"/>
</g>
</svg>
