<?xml version="1.0" encoding="utf-8"?>
<!-- Generator: Adobe Illustrator 24.1.2, SVG Export Plug-In . SVG Version: 6.00 Build 0)  -->
<svg version="1.1" xmlns="http://www.w3.org/2000/svg" xmlns:xlink="http://www.w3.org/1999/xlink" x="0px" y="0px"
	 viewBox="0 0 24 24" style="enable-background:new 0 0 24 24;" xml:space="preserve">
<style type="text/css">
	.st0{fill:#3F434C;}
</style>
<g id="guides">
</g>
<g id="Ebene_1">
	<path class="st0" d="M12.8,15h-1.7c-0.6,0-1.1,0.5-1,1.1l0.7,5c0.1,0.5,0.5,0.9,1,0.9h0.3c0.5,0,0.9-0.4,1-0.9l0.7-5
		C13.9,15.5,13.5,15,12.8,15z"/>
	<circle class="st0" cx="12" cy="12" r="2"/>
	<path class="st0" d="M17.5,14.4c1-2.3,0.5-4.9-1.2-6.6C15.1,6.6,13.6,6,12,6S8.9,6.6,7.8,7.8C6,9.5,5.5,12.1,6.5,14.4
		c0.2,0.5,0.8,0.7,1.3,0.5c0.5-0.2,0.7-0.8,0.5-1.3C7.7,12.1,8,10.3,9.2,9.2c1.5-1.5,4.1-1.5,5.7,0c1.2,1.2,1.5,2.9,0.8,4.4
		c-0.2,0.5,0,1.1,0.5,1.3c0.1,0.1,0.3,0.1,0.4,0.1C17,15,17.3,14.8,17.5,14.4z"/>
	<path class="st0" d="M4.9,4.9C1,8.8,1,15.2,4.9,19.1c0.3,0.2,0.5,0.5,0.8,0.7c0.4,0.3,1.1,0.3,1.4-0.1c0.3-0.4,0.3-1.1-0.1-1.4
		c-0.2-0.2-0.4-0.4-0.6-0.6c-3.1-3.1-3.1-8.2,0-11.3C7.9,4.8,9.9,4,12,4s4.1,0.8,5.7,2.3c3.1,3.1,3.1,8.2,0,11.3
		c-0.2,0.2-0.4,0.4-0.6,0.6c-0.4,0.3-0.5,1-0.1,1.4c0.2,0.2,0.5,0.4,0.8,0.4c0.2,0,0.4-0.1,0.6-0.2c0.3-0.2,0.5-0.5,0.8-0.7
		c3.9-3.9,3.9-10.2,0-14.1C15.2,1,8.8,1,4.9,4.9z"/>
</g>
</svg>
