<?xml version="1.0" encoding="utf-8"?>
<!-- Generator: Adobe Illustrator 24.1.2, SVG Export Plug-In . SVG Version: 6.00 Build 0)  -->
<svg version="1.1" xmlns="http://www.w3.org/2000/svg" xmlns:xlink="http://www.w3.org/1999/xlink" x="0px" y="0px"
	 viewBox="0 0 24 24" style="enable-background:new 0 0 24 24;" xml:space="preserve">
<style type="text/css">
	.st0{fill:#3F434C;}
</style>
<g id="guides">
</g>
<g id="Ebene_1">
	<path class="st0" d="M21.9,16.1L20,5.5C19.7,4.1,18.5,3,17,3c-1.7,0-3,1.3-3,3v0.6C13.4,6.2,12.7,6,12,6s-1.4,0.2-2,0.6V6
		c0-1.7-1.3-3-3-3C5.5,3,4.3,4.1,4.1,5.5l-2,10.6c0,0,0,0,0,0C2,16.4,2,16.7,2,17c0,2.2,1.8,4,4,4s4-1.8,4-4v-2c0-0.5,0-1,2-1
		s2,0.5,2,1v2c0,2.2,1.8,4,4,4s4-1.8,4-4C22,16.7,22,16.4,21.9,16.1C21.9,16.1,21.9,16.1,21.9,16.1z M6,19c-1.1,0-2-0.9-2-2
		c0-0.1,0-0.3,0.1-0.5C4.3,15.7,5.1,15,6,15c1.1,0,2,0.9,2,2S7.1,19,6,19z M8,13.6C7.4,13.2,6.7,13,6,13c-0.4,0-0.9,0.1-1.3,0.2
		L6,5.8C6.1,5.4,6.5,5,7,5c0.6,0,1,0.4,1,1V13.6z M14,12.3c-0.6-0.2-1.2-0.3-2-0.3c-0.8,0-1.4,0.1-2,0.3V10c0-1.1,0.9-2,2-2
		s2,0.9,2,2V12.3z M16,6c0-0.6,0.4-1,1-1c0.5,0,0.9,0.4,1,0.9l1.3,7.4C18.9,13.1,18.4,13,18,13c-0.7,0-1.4,0.2-2,0.6V6z M18,19
		c-1.1,0-2-0.9-2-2s0.9-2,2-2c0.9,0,1.7,0.7,1.9,1.5l0,0c0,0.2,0.1,0.3,0.1,0.4C20,18.1,19.1,19,18,19z"/>
</g>
</svg>
