<?xml version="1.0" encoding="utf-8"?>
<!-- Generator: Adobe Illustrator 24.1.2, SVG Export Plug-In . SVG Version: 6.00 Build 0)  -->
<svg version="1.1" xmlns="http://www.w3.org/2000/svg" xmlns:xlink="http://www.w3.org/1999/xlink" x="0px" y="0px"
	 viewBox="0 0 24 24" style="enable-background:new 0 0 24 24;" xml:space="preserve">
<style type="text/css">
	.st0{fill:#3F434C;}
</style>
<g id="guides">
</g>
<g id="Ebene_1">
	<path class="st0" d="M20,6h-1V3c0-0.6-0.4-1-1-1H6C5.4,2,5,2.4,5,3v3H4C2.9,6,2,6.9,2,8v8c0,1.1,0.9,2,2,2h1v3c0,0.6,0.4,1,1,1h12
		c0.6,0,1-0.4,1-1v-3h1c1.1,0,2-0.9,2-2V8C22,6.9,21.1,6,20,6z M7,4h10v2H7V4z M17,20H7v-5h10V20z M20,16h-1v-2c0-0.6-0.4-1-1-1H6
		c-0.6,0-1,0.4-1,1v2H4V8h2h12h2V16z"/>
	<path class="st0" d="M8.5,17h7c0.3,0,0.5-0.2,0.5-0.5S15.8,16,15.5,16h-7C8.2,16,8,16.2,8,16.5S8.2,17,8.5,17z"/>
	<path class="st0" d="M8.5,19h7c0.3,0,0.5-0.2,0.5-0.5S15.8,18,15.5,18h-7C8.2,18,8,18.2,8,18.5S8.2,19,8.5,19z"/>
	<path class="st0" d="M9,9H6c-0.6,0-1,0.4-1,1s0.4,1,1,1h3c0.6,0,1-0.4,1-1S9.6,9,9,9z"/>
</g>
</svg>
