<?xml version="1.0" encoding="utf-8"?>
<!-- Generator: Adobe Illustrator 24.1.2, SVG Export Plug-In . SVG Version: 6.00 Build 0)  -->
<svg version="1.1" xmlns="http://www.w3.org/2000/svg" xmlns:xlink="http://www.w3.org/1999/xlink" x="0px" y="0px"
	 viewBox="0 0 24 24" style="enable-background:new 0 0 24 24;" xml:space="preserve">
<style type="text/css">
	.st0{fill:#3F434C;}
</style>
<g id="guides">
</g>
<g id="Ebene_1">
	<path class="st0" d="M20,12c0-0.6-0.4-1-1-1s-1,0.4-1,1c0,3.3-2.7,6-6,6c-2.9,0-5.3-2-5.9-4.8c0,0,0,0,0,0c0-0.2-0.1-0.3-0.1-0.5
		c0,0,0-0.1,0-0.1c0-0.2,0-0.4,0-0.6c0-3,2.2-5.4,5-5.9V7c0,0.4,0.2,0.8,0.6,0.9C11.7,8,11.9,8,12,8c0.3,0,0.5-0.1,0.7-0.3l2-2
		c0.4-0.4,0.4-1,0-1.4l-2-2C12.4,2,12,1.9,11.6,2.1C11.2,2.2,11,2.6,11,3v1.1C7.1,4.6,4,7.9,4,12c0,0.3,0,0.5,0,0.8c0,0,0,0.1,0,0.1
		c0,0.2,0.1,0.5,0.1,0.7c0,0,0,0,0,0c0.3,1.5,1.1,2.9,2.2,4c0,0,0,0,0,0C7.8,19.1,9.8,20,12,20C16.4,20,20,16.4,20,12z"/>
</g>
</svg>
