<?xml version="1.0" encoding="utf-8"?>
<!-- Generator: Adobe Illustrator 24.1.2, SVG Export Plug-In . SVG Version: 6.00 Build 0)  -->
<svg version="1.1" xmlns="http://www.w3.org/2000/svg" xmlns:xlink="http://www.w3.org/1999/xlink" x="0px" y="0px"
	 viewBox="0 0 24 24" style="enable-background:new 0 0 24 24;" xml:space="preserve">
<style type="text/css">
	.st0{fill:#3F434C;}
</style>
<g id="guides">
</g>
<g id="Ebene_1">
	<path class="st0" d="M11.6,21.9C11.7,22,11.8,22,12,22s0.3,0,0.4-0.1C18.4,19,21,14.1,21,6c0-0.7,0-0.7-4.7-2.5l-4-1.5
		c-0.2-0.1-0.5-0.1-0.7,0l-4,1.5C3,5.3,3,5.3,3,6C3,14.1,5.6,19,11.6,21.9z M12,4.1c2.3,0.9,5.7,2.1,7,2.6c-0.1,6.7-2.3,10.7-7,13.2
		c-4.7-2.5-6.9-6.5-7-13.2C6.3,6.2,9.7,4.9,12,4.1z"/>
	<path class="st0" d="M11,15c0.3,0,0.5-0.1,0.7-0.3l4-4c0.4-0.4,0.4-1,0-1.4s-1-0.4-1.4,0L11,12.6l-1.3-1.3c-0.4-0.4-1-0.4-1.4,0
		s-0.4,1,0,1.4l2,2C10.5,14.9,10.7,15,11,15z"/>
</g>
</svg>
