<?xml version="1.0" encoding="utf-8"?>
<!-- Generator: Adobe Illustrator 24.1.2, SVG Export Plug-In . SVG Version: 6.00 Build 0)  -->
<svg version="1.1" xmlns="http://www.w3.org/2000/svg" xmlns:xlink="http://www.w3.org/1999/xlink" x="0px" y="0px"
	 viewBox="0 0 24 24" style="enable-background:new 0 0 24 24;" xml:space="preserve">
<style type="text/css">
	.st0{fill:#3F434C;}
</style>
<g id="guides">
</g>
<g id="Ebene_1">
	<path class="st0" d="M11.4,5.8c2.3,0,4.3,1.3,5.6,2.8V6c-1.5-1.2-3.4-2-5.6-2C8.9,4,6,5.7,6,8.8c0,6,8.5,3.8,8.5,7.3
		c0,0.9-1.1,1.8-2.6,1.8c-2.3,0-4.6-1.5-5.9-3.4v3.2C7.4,19,9.9,20,12,20c3.8,0,6-2.9,6-5.3c0-6.1-8.7-3.5-8.7-7.2
		C9.3,6.6,10.1,5.8,11.4,5.8z"/>
</g>
</svg>
