<?xml version="1.0" encoding="utf-8"?>
<!-- Generator: Adobe Illustrator 24.1.2, SVG Export Plug-In . SVG Version: 6.00 Build 0)  -->
<svg version="1.1" xmlns="http://www.w3.org/2000/svg" xmlns:xlink="http://www.w3.org/1999/xlink" x="0px" y="0px"
	 viewBox="0 0 24 24" style="enable-background:new 0 0 24 24;" xml:space="preserve">
<style type="text/css">
	.st0{fill:#3F434C;}
</style>
<g id="guides">
</g>
<g id="Ebene_1">
	<path class="st0" d="M9,3C5.7,3,3,5.7,3,9s2.7,6,6,6c1.3,0,2.5-0.4,3.5-1.1l5.8,5.8c0.2,0.2,0.5,0.3,0.7,0.3s0.5-0.1,0.7-0.3
		c0.4-0.4,0.4-1,0-1.4l-5.8-5.8c0.7-1,1.1-2.2,1.1-3.5C15,5.7,12.3,3,9,3z M9,13c-2.2,0-4-1.8-4-4s1.8-4,4-4s4,1.8,4,4S11.2,13,9,13
		z"/>
</g>
</svg>
