<?xml version="1.0" encoding="utf-8"?>
<!-- Generator: Adobe Illustrator 24.1.2, SVG Export Plug-In . SVG Version: 6.00 Build 0)  -->
<svg version="1.1" xmlns="http://www.w3.org/2000/svg" xmlns:xlink="http://www.w3.org/1999/xlink" x="0px" y="0px"
	 viewBox="0 0 24 24" style="enable-background:new 0 0 24 24;" xml:space="preserve">
<style type="text/css">
	.st0{fill:#3F434C;}
</style>
<g id="guides">
</g>
<g id="Ebene_1">
	<circle class="st0" cx="9" cy="5" r="2"/>
	<path class="st0" d="M8.9,8.1C8.2,8.4,7.8,9.2,8.1,9.9l2,4.7c0.2,0.6,0.8,0.9,1.4,0.9c0.1,0,3.8,0,3.8,0l2.7,6.4
		c0.2,0.4,0.5,0.6,0.9,0.6c0.1,0,0.3,0,0.4-0.1c0.5-0.2,0.7-0.8,0.5-1.3l-3-7c-0.2-0.4-0.5-0.6-0.9-0.6h-3.1l-2-4.6
		C10.6,8.2,9.7,7.8,8.9,8.1z"/>
	<path class="st0" d="M4,4.5v2.1C4,8,4.3,9.4,4.9,10.7l2.7,6.1c0.5,1.1,1.6,1.8,2.7,1.8H14c0.6,0,1-0.4,1-1s-0.4-1-1-1h-3.7
		c-0.4,0-0.8-0.2-0.9-0.6L6.7,9.8C6.2,8.8,6,7.7,6,6.6V4.5c0-0.6-0.4-1-1-1S4,3.9,4,4.5z"/>
	<path class="st0" d="M18,3h-5c-0.6,0-1,0.4-1,1s0.4,1,1,1h5c0.6,0,1,0.4,1,1v2c0,0.6-0.4,1-1,1h-4c-0.6,0-1,0.4-1,1s0.4,1,1,1h4
		c1.7,0,3-1.3,3-3V6C21,4.3,19.7,3,18,3z"/>
</g>
</svg>
