<?xml version="1.0" encoding="utf-8"?>
<!-- Generator: Adobe Illustrator 24.1.2, SVG Export Plug-In . SVG Version: 6.00 Build 0)  -->
<svg version="1.1" xmlns="http://www.w3.org/2000/svg" xmlns:xlink="http://www.w3.org/1999/xlink" x="0px" y="0px"
	 viewBox="0 0 24 24" style="enable-background:new 0 0 24 24;" xml:space="preserve">
<style type="text/css">
	.st0{fill:#3F434C;}
</style>
<g id="guides">
</g>
<g id="Ebene_1">
	<circle class="st0" cx="9" cy="5" r="2"/>
	<path class="st0" d="M16.9,14.1c-0.2-0.4-0.5-0.6-0.9-0.6h-3.1l-2-4.6c-0.3-0.7-1.2-1.1-1.9-0.8C8.2,8.4,7.8,9.2,8.1,9.9l2,4.7
		c0.2,0.6,0.8,0.9,1.4,0.9c0.1,0,3.8,0,3.8,0l2.7,6.4c0.2,0.4,0.5,0.6,0.9,0.6c0.1,0,0.3,0,0.4-0.1c0.5-0.2,0.7-0.8,0.5-1.3
		L16.9,14.1z"/>
	<path class="st0" d="M10.3,18.5H14c0.6,0,1-0.4,1-1s-0.4-1-1-1h-3.7c-0.4,0-0.8-0.2-0.9-0.6L6.7,9.8C6.2,8.8,6,7.7,6,6.6V4.5
		c0-0.6-0.4-1-1-1s-1,0.4-1,1v2.1C4,8,4.3,9.4,4.9,10.7l2.7,6.1C8,17.8,9.1,18.5,10.3,18.5z"/>
</g>
</svg>
