<?xml version="1.0" encoding="utf-8"?>
<!-- Generator: Adobe Illustrator 24.1.2, SVG Export Plug-In . SVG Version: 6.00 Build 0)  -->
<svg version="1.1" xmlns="http://www.w3.org/2000/svg" xmlns:xlink="http://www.w3.org/1999/xlink" x="0px" y="0px"
	 viewBox="0 0 24 24" style="enable-background:new 0 0 24 24;" xml:space="preserve">
<style type="text/css">
	.st0{fill:#3F434C;}
</style>
<g id="guides">
</g>
<g id="Ebene_1">
	<path class="st0" d="M21,6h-6.6l1.3-1.3c0.4-0.4,0.4-1,0-1.4s-1-0.4-1.4,0L12,5.6L8.7,2.3c-0.4-0.4-1-0.4-1.4,0s-0.4,1,0,1.4L9.6,6
		H3C2.4,6,2,6.4,2,7v12c0,0.6,0.4,1,1,1h2c0,0.6,0.4,1,1,1h1c0.6,0,1-0.4,1-1h8c0,0.6,0.4,1,1,1h1c0.6,0,1-0.4,1-1h2
		c0.6,0,1-0.4,1-1V7C22,6.4,21.6,6,21,6z M20,18H4V8h16V18z"/>
	<path class="st0" d="M6,17h9c0.6,0,1-0.4,1-1v-6c0-0.6-0.4-1-1-1H6c-0.6,0-1,0.4-1,1v6C5,16.6,5.4,17,6,17z M7,11h7v4H7V11z"/>
	<circle class="st0" cx="18" cy="11" r="1"/>
	<circle class="st0" cx="18" cy="15" r="1"/>
</g>
</svg>
