<?xml version="1.0" encoding="utf-8"?>
<!-- Generator: Adobe Illustrator 24.1.2, SVG Export Plug-In . SVG Version: 6.00 Build 0)  -->
<svg version="1.1" xmlns="http://www.w3.org/2000/svg" xmlns:xlink="http://www.w3.org/1999/xlink" x="0px" y="0px"
	 viewBox="0 0 24 24" style="enable-background:new 0 0 24 24;" xml:space="preserve">
<style type="text/css">
	.st0{fill:#3F434C;}
</style>
<g id="guides">
</g>
<g id="Ebene_1">
	<path class="st0" d="M19.9,12.2c0-0.1,0-0.2,0-0.2s0-0.2,0-0.2l1.1-1.4c0.5-0.6,0.6-1.6,0.2-2.3l-1.3-2.3c-0.4-0.7-1.2-1.1-2.1-1
		l-1.7,0.3C16,5.1,15.9,5,15.8,5l-0.6-1.7c-0.3-0.8-1-1.3-1.9-1.3h-2.6C9.9,2,9.1,2.5,8.8,3.3L8.2,5C8.1,5,8,5.1,7.8,5.2L6.1,4.9
		c-0.8-0.1-1.6,0.2-2.1,1L2.8,8.1C2.4,8.9,2.4,9.8,3,10.4l1.1,1.4c0,0.1,0,0.2,0,0.2s0,0.2,0,0.2L3,13.6c-0.5,0.6-0.6,1.6-0.2,2.3
		l1.3,2.3c0.4,0.7,1.2,1.1,2.1,1l1.7-0.3C8,18.9,8.1,19,8.2,19l0.6,1.7c0.3,0.8,1,1.3,1.9,1.3h2.6c0.8,0,1.6-0.5,1.9-1.3l0.6-1.7
		c0.1-0.1,0.3-0.2,0.4-0.2l1.7,0.3c0.8,0.1,1.6-0.3,2.1-1l1.3-2.3c0.4-0.7,0.3-1.6-0.2-2.3L19.9,12.2z M18,12c0,0.2,0,0.3,0,0.5
		c0,0.3,0.1,0.5,0.2,0.7l1.4,1.7l-1.3,2.3l-2.1-0.4c-0.3,0-0.5,0-0.7,0.2c-0.2,0.2-0.5,0.3-0.8,0.5c-0.2,0.1-0.4,0.3-0.5,0.6l-0.7,2
		h-2.6L10,18c-0.1-0.2-0.3-0.4-0.5-0.6c-0.3-0.1-0.6-0.3-0.8-0.5c-0.2-0.1-0.4-0.2-0.6-0.2c-0.1,0-0.1,0-0.2,0l-2.1,0.4l-1.3-2.3
		l1.4-1.7C6,13,6.1,12.8,6.1,12.5c0-0.2,0-0.3,0-0.5s0-0.3,0-0.5c0-0.3-0.1-0.5-0.2-0.7L4.5,9.1l1.3-2.3l2.1,0.4
		c0.3,0,0.5,0,0.7-0.2c0.3-0.2,0.5-0.3,0.8-0.5C9.7,6.5,9.9,6.3,10,6l0.7-2h2.6L14,6c0.1,0.2,0.3,0.4,0.5,0.6
		c0.3,0.1,0.6,0.3,0.8,0.5c0.2,0.1,0.5,0.2,0.7,0.2l2.1-0.4l1.3,2.3l-1.4,1.7c-0.2,0.2-0.2,0.5-0.2,0.7C17.9,11.7,18,11.8,18,12z"/>
	<path class="st0" d="M12,8c-2.2,0-4,1.8-4,4s1.8,4,4,4s4-1.8,4-4S14.2,8,12,8z M12,14c-1.1,0-2-0.9-2-2s0.9-2,2-2s2,0.9,2,2
		S13.1,14,12,14z"/>
</g>
</svg>
