<?xml version="1.0" encoding="utf-8"?>
<!-- Generator: Adobe Illustrator 24.1.2, SVG Export Plug-In . SVG Version: 6.00 Build 0)  -->
<svg version="1.1" xmlns="http://www.w3.org/2000/svg" xmlns:xlink="http://www.w3.org/1999/xlink" x="0px" y="0px"
	 viewBox="0 0 24 24" style="enable-background:new 0 0 24 24;" xml:space="preserve">
<style type="text/css">
	.st0{fill:#3F434C;}
</style>
<g id="guides">
</g>
<g id="Ebene_1">
	<path class="st0" d="M12,17c0.6,0,1-0.4,1-1V5.4l2.3,2.3C15.5,7.9,15.7,8,16,8c0.3,0,0.5-0.1,0.7-0.3c0.4-0.4,0.4-1,0-1.4l-4-4
		c-0.4-0.4-1-0.4-1.4,0l-4,4c-0.4,0.4-0.4,1,0,1.4c0.4,0.4,1,0.4,1.4,0L11,5.4V16C11,16.6,11.4,17,12,17z"/>
	<path class="st0" d="M4,11v9c0,0.6,0.4,1,1,1h14c0.6,0,1-0.4,1-1v-9c0-0.6-0.4-1-1-1h-3v2h2v7H6v-7h2v-2H5C4.4,10,4,10.4,4,11z"/>
</g>
</svg>
