<?xml version="1.0" encoding="utf-8"?>
<!-- Generator: Adobe Illustrator 24.1.2, SVG Export Plug-In . SVG Version: 6.00 Build 0)  -->
<svg version="1.1" xmlns="http://www.w3.org/2000/svg" xmlns:xlink="http://www.w3.org/1999/xlink" x="0px" y="0px"
	 viewBox="0 0 24 24" style="enable-background:new 0 0 24 24;" xml:space="preserve">
<style type="text/css">
	.st0{fill:#3F434C;}
</style>
<g id="guides">
</g>
<g id="Ebene_1">
	<path class="st0" d="M20,12V7c0-0.6-0.4-1-1-1H7.2L7,4.8C6.9,4.3,6.5,4,6,4H4C3.4,4,3,4.4,3,5s0.4,1,1,1h1.2L7,15.2
		C7.1,15.7,7.5,16,8,16h11c0.6,0,1-0.4,1-1s-0.4-1-1-1H8.8l-0.2-1H19C19.6,13,20,12.6,20,12z M18,11H8.2L7.6,8H18V11z"/>
	<circle class="st0" cx="10.5" cy="18.5" r="1.5"/>
	<circle class="st0" cx="16.5" cy="18.5" r="1.5"/>
</g>
</svg>
