<?xml version="1.0" encoding="utf-8"?>
<!-- Generator: Adobe Illustrator 24.1.2, SVG Export Plug-In . SVG Version: 6.00 Build 0)  -->
<svg version="1.1" xmlns="http://www.w3.org/2000/svg" xmlns:xlink="http://www.w3.org/1999/xlink" x="0px" y="0px"
	 viewBox="0 0 24 24" style="enable-background:new 0 0 24 24;" xml:space="preserve">
<style type="text/css">
	.st0{fill:#3F434C;}
</style>
<g id="guides">
</g>
<g id="Ebene_1">
	<path class="st0" d="M18,6h-2c0-2.2-1.8-4-4-4S8,3.8,8,6H6C5.5,6,5,6.4,5,6.9l-1,13c0,0.3,0.1,0.6,0.3,0.8C4.5,20.9,4.7,21,5,21h14
		c0.3,0,0.5-0.1,0.7-0.3c0.2-0.2,0.3-0.5,0.3-0.8l-1-13C19,6.4,18.5,6,18,6z M12,4c1.1,0,2,0.9,2,2h-4C10,4.9,10.9,4,12,4z M6.1,19
		L6.9,8H9h6h2.1l0.8,11H6.1z"/>
	<path class="st0" d="M15,10c-0.6,0-1,0.4-1,1c0,1.1-0.9,2-2,2s-2-0.9-2-2c0-0.6-0.4-1-1-1s-1,0.4-1,1c0,2.2,1.8,4,4,4s4-1.8,4-4
		C16,10.4,15.6,10,15,10z"/>
</g>
</svg>
