<?xml version="1.0" encoding="utf-8"?>
<!-- Generator: Adobe Illustrator 24.1.2, SVG Export Plug-In . SVG Version: 6.00 Build 0)  -->
<svg version="1.1" xmlns="http://www.w3.org/2000/svg" xmlns:xlink="http://www.w3.org/1999/xlink" x="0px" y="0px"
	 viewBox="0 0 24 24" style="enable-background:new 0 0 24 24;" xml:space="preserve">
<style type="text/css">
	.st0{fill:#3F434C;}
</style>
<g id="guides">
</g>
<g id="Ebene_1">
	<path class="st0" d="M6.7,17l4.8,2.9C11.6,20,11.8,20,12,20c0.2,0,0.3,0,0.5-0.1c0.3-0.2,0.5-0.5,0.5-0.9V5c0-0.4-0.2-0.7-0.5-0.9
		s-0.7-0.2-1,0L6.7,7H3C2.4,7,2,7.4,2,8v8c0,0.6,0.4,1,1,1H6.7z M8,8.6l3-1.8v10.5l-3-1.8V8.6z M4,9h2v6H4V9z"/>
	<path class="st0" d="M18.4,4.3c-0.5-0.4-1.3-0.4-1.7,0c-0.5,0.4-0.5,1.1,0,1.5c1.9,1.6,2.9,3.8,2.9,6.1c0,2.3-1,4.5-2.9,6.1
		c-0.2,0.2-0.4,0.5-0.4,0.8c0,0.3,0.1,0.6,0.4,0.8c0.5,0.4,1.3,0.4,1.7,0c2.3-2,3.6-4.8,3.6-7.7S20.7,6.4,18.4,4.3z"/>
	<path class="st0" d="M14,15.8c0,0.3,0.1,0.6,0.3,0.8c0.4,0.4,1.1,0.4,1.5,0c2.5-2.5,2.5-6.7,0-9.2c-0.4-0.4-1.1-0.4-1.5,0
		c-0.4,0.4-0.4,1.1,0,1.5c1.7,1.7,1.7,4.5,0,6.1C14.1,15.3,14,15.6,14,15.8z"/>
</g>
</svg>
