<?xml version="1.0" encoding="utf-8"?>
<!-- Generator: Adobe Illustrator 24.1.2, SVG Export Plug-In . SVG Version: 6.00 Build 0)  -->
<svg version="1.1" xmlns="http://www.w3.org/2000/svg" xmlns:xlink="http://www.w3.org/1999/xlink" x="0px" y="0px"
	 viewBox="0 0 24 24" style="enable-background:new 0 0 24 24;" xml:space="preserve">
<style type="text/css">
	.st0{fill:#3F434C;}
</style>
<g id="guides">
</g>
<g id="Ebene_1">
	<path class="st0" d="M20,10c-0.1-0.4-0.4-0.6-0.8-0.7l-4.3-0.7l-1.9-4.1c-0.3-0.7-1.4-0.7-1.7,0L9.2,8.7L4.8,9.3
		C4.5,9.4,4.2,9.6,4,10c-0.1,0.4,0,0.8,0.2,1l3.1,3.2l-0.7,4.5c-0.1,0.4,0.1,0.8,0.4,1c0.3,0.2,0.7,0.3,1,0.1l3.9-2.1l3.9,2.1
		C16,20,16.2,20,16.3,20c0.2,0,0.4-0.1,0.6-0.2c0.3-0.2,0.5-0.6,0.4-1l-0.7-4.5l3.1-3.2C20,10.8,20.1,10.4,20,10z M14.8,13.2
		c-0.2,0.2-0.3,0.6-0.3,0.9l0.5,3l-2.6-1.4c-0.1-0.1-0.3-0.1-0.5-0.1s-0.3,0-0.5,0.1L9,17.1l0.5-3c0.1-0.3-0.1-0.7-0.3-0.9L7.1,11
		l2.9-0.4c0.3,0,0.6-0.3,0.7-0.6L12,7.3l1.3,2.8c0.1,0.3,0.4,0.5,0.7,0.6l2.9,0.4L14.8,13.2z"/>
</g>
</svg>
