<?xml version="1.0" encoding="utf-8"?>
<!-- Generator: Adobe Illustrator 24.1.2, SVG Export Plug-In . SVG Version: 6.00 Build 0)  -->
<svg version="1.1" xmlns="http://www.w3.org/2000/svg" xmlns:xlink="http://www.w3.org/1999/xlink" x="0px" y="0px"
	 viewBox="0 0 24 24" style="enable-background:new 0 0 24 24;" xml:space="preserve">
<style type="text/css">
	.st0{fill:#3F434C;}
</style>
<g id="guides">
</g>
<g id="Ebene_1">
	<path class="st0" d="M21,11h-5V4c0-0.6-0.4-1-1-1H9C8.4,3,8,3.4,8,4v7H3c-0.6,0-1,0.4-1,1v8c0,0.6,0.4,1,1,1h18c0.6,0,1-0.4,1-1v-8
		C22,11.4,21.6,11,21,11z M5,19H4v-6h1V19z M8,19H6v-6h2V19z M14,12v7h-1v-2c0-0.6-0.4-1-1-1s-1,0.4-1,1v2h-1v-7V5h4V12z M18,19h-2
		v-6h2V19z M20,19h-1v-6h1V19z"/>
	<circle class="st0" cx="12" cy="8" r="1"/>
</g>
</svg>
