<?xml version="1.0" encoding="utf-8"?>
<!-- Generator: Adobe Illustrator 24.1.2, SVG Export Plug-In . SVG Version: 6.00 Build 0)  -->
<svg version="1.1" xmlns="http://www.w3.org/2000/svg" xmlns:xlink="http://www.w3.org/1999/xlink" x="0px" y="0px"
	 viewBox="0 0 24 24" style="enable-background:new 0 0 24 24;" xml:space="preserve">
<style type="text/css">
	.st0{fill:#3F434C;}
</style>
<g id="guides">
</g>
<g id="Ebene_1">
	<path class="st0" d="M6,8c0,3,2.8,6.2,5.3,8.7c0.2,0.2,0.5,0.3,0.7,0.3s0.5-0.1,0.7-0.3C15.2,14.2,18,11,18,8c0-3.3-2.7-6-6-6
		S6,4.7,6,8z M12,4c2.2,0,4,1.8,4,4c0,2.2-2.5,5-4,6.6C10.5,13,8,10.2,8,8C8,5.8,9.8,4,12,4z"/>
	<circle class="st0" cx="12" cy="8" r="1"/>
	<circle class="st0" cx="6" cy="20" r="1"/>
	<circle class="st0" cx="10" cy="20" r="1"/>
	<circle class="st0" cx="14" cy="20" r="1"/>
	<circle class="st0" cx="18" cy="20" r="1"/>
</g>
</svg>
