<?xml version="1.0" encoding="utf-8"?>
<!-- Generator: Adobe Illustrator 24.1.2, SVG Export Plug-In . SVG Version: 6.00 Build 0)  -->
<svg version="1.1" xmlns="http://www.w3.org/2000/svg" xmlns:xlink="http://www.w3.org/1999/xlink" x="0px" y="0px"
	 viewBox="0 0 24 24" style="enable-background:new 0 0 24 24;" xml:space="preserve">
<style type="text/css">
	.st0{fill:#3F434C;}
</style>
<g id="guides">
</g>
<g id="Ebene_1">
	<path class="st0" d="M7.3,20.7c0.4,0.4,1,0.4,1.4,0l4-4c0.4-0.4,0.4-1,0-1.4c-0.4-0.4-1-0.4-1.4,0L9,17.6V9c0-0.6-0.4-1-1-1
		C7.4,8,7,8.4,7,9v8.6l-2.3-2.3C4.5,15.1,4.3,15,4,15c-0.3,0-0.5,0.1-0.7,0.3c-0.4,0.4-0.4,1,0,1.4L7.3,20.7z"/>
	<path class="st0" d="M11.3,8.7c0.4,0.4,1,0.4,1.4,0L15,6.4V15c0,0.6,0.4,1,1,1c0.6,0,1-0.4,1-1V6.4l2.3,2.3C19.5,8.9,19.7,9,20,9
		c0.3,0,0.5-0.1,0.7-0.3c0.4-0.4,0.4-1,0-1.4l-4-4c-0.4-0.4-1-0.4-1.4,0l-4,4C10.9,7.7,10.9,8.3,11.3,8.7z"/>
</g>
</svg>
