<?xml version="1.0" encoding="utf-8"?>
<!-- Generator: Adobe Illustrator 24.1.2, SVG Export Plug-In . SVG Version: 6.00 Build 0)  -->
<svg version="1.1" xmlns="http://www.w3.org/2000/svg" xmlns:xlink="http://www.w3.org/1999/xlink" x="0px" y="0px"
	 viewBox="0 0 24 24" style="enable-background:new 0 0 24 24;" xml:space="preserve">
<style type="text/css">
	.st0{fill:#3F434C;}
</style>
<g id="guides">
</g>
<g id="Ebene_1">
	<path class="st0" d="M5,13v3c0,0.6,0.4,1,1,1v1.5C6,18.8,6.2,19,6.5,19h1C7.8,19,8,18.8,8,18.5V17h8v1.5c0,0.3,0.2,0.5,0.5,0.5h1
		c0.3,0,0.5-0.2,0.5-0.5V17c0.6,0,1-0.4,1-1v-3c0-0.6-0.4-1-1-1l-0.7-3.4c-0.2-0.9-1-1.6-2-1.6H15V6c0-0.6-0.4-1-1-1h-3.7
		c-0.6,0-1,0.4-1,1v1H8.6c-1,0-1.8,0.7-2,1.6L6,12C5.4,12,5,12.4,5,13z M16,15c-0.6,0-1-0.4-1-1c0-0.6,0.4-1,1-1s1,0.4,1,1
		C17,14.6,16.6,15,16,15z M7.7,8.8C7.8,8.3,8.2,8,8.6,8h6.7c0.5,0,0.9,0.3,1,0.8L17,12H7L7.7,8.8z M8,13c0.6,0,1,0.4,1,1
		c0,0.6-0.4,1-1,1s-1-0.4-1-1C7,13.4,7.4,13,8,13z"/>
</g>
</svg>
