<?xml version="1.0" encoding="utf-8"?>
<!-- Generator: Adobe Illustrator 24.1.2, SVG Export Plug-In . SVG Version: 6.00 Build 0)  -->
<svg version="1.1" xmlns="http://www.w3.org/2000/svg" xmlns:xlink="http://www.w3.org/1999/xlink" x="0px" y="0px"
	 viewBox="0 0 24 24" style="enable-background:new 0 0 24 24;" xml:space="preserve">
<style type="text/css">
	.st0{fill:#3F434C;}
</style>
<g id="guides">
</g>
<g id="Ebene_1">
	<path class="st0" d="M20,5H4C2.9,5,2,5.9,2,7v2.9l0.7,0.2C3.5,10.4,4,11.2,4,12s-0.5,1.6-1.3,1.9L2,14.1V17c0,1.1,0.9,2,2,2h16
		c1.1,0,2-0.9,2-2v-2.9l-0.7-0.2c-0.8-0.3-1.3-1-1.3-1.9s0.5-1.6,1.3-1.9L22,9.9V7C22,5.9,21.1,5,20,5z M20,8.5c-1.2,0.7-2,2-2,3.5
		s0.8,2.7,2,3.5V17H4v-1.5c1.2-0.7,2-2,2-3.5S5.2,9.3,4,8.5V7h16V8.5z"/>
	<circle class="st0" cx="9" cy="12" r="1"/>
	<circle class="st0" cx="9" cy="15" r="1"/>
	<circle class="st0" cx="9" cy="9" r="1"/>
</g>
</svg>
