<?xml version="1.0" encoding="UTF-8"?>
<svg width="24px" height="24px" viewBox="0 0 24 24" version="1.1" xmlns="http://www.w3.org/2000/svg" xmlns:xlink="http://www.w3.org/1999/xlink">
    <!-- Generator: Sketch 64 (93537) - https://sketch.com -->
    <title>ic-db_ticket_my-travel_24</title>
    <desc>Created with Sketch.</desc>
    <g id="Symbols" stroke="none" stroke-width="1" fill="none" fill-rule="evenodd">
        <g id="24dp-Icon/Ticket/My-Travel" fill="#282D37">
            <path d="M2,20.9984 L2,15.0203 C2,12.7042 3.6901,11.0141 5.8906,11.0155099 C6.0781,11.0155099 6.3281,11.0469 6.5469,11.1719 C7.1719,11.4844 8.8281,12 9.7656,12 C10.2969,12 10.7344,12.4688 10.7344,13 C10.7344,13.5625 10.2969,14 9.7656,14 C8.7344,14 6.8281,13.5156 5.7344,12.9844 C5.1299,12.9859 3.9718,13.4241 3.9718,15.0203 L3.9718,20.9984 C3.9718,21.5618 3.5336,22 2.9703,22 C2.4382,22 2,21.5618 2,20.9984 Z M6,5.9531 C5.99062699,3.7527 7.76411206,2 9.98099369,2 C12.1662041,2 14.0031328,3.7527 14,5.9531 C14,8.1094 12.1660018,9.8906 9.98423163,9.8906 C7.77079032,9.8906 6,8.1094 6,5.9531 Z M8,6.02235378 C8,7.10686945 8.89603745,8 9.98404227,8 C11.103996,8 12,7.10686945 12,6.02235378 C12,4.89455956 11.1025624,4 9.98076545,4 C8.89112223,4 7.99368465,4.89455956 8,6.02235378 Z M12.9859,19.5274 L12.9844,12.4844 C12.9844,11.1094 14.1094,10 15.4844,10 L19.5274,10 C20.9045,10 22,11.108 22,12.4851 L22,19.5274 C22,20.9045 20.9045,22 19.5274,22 L15.4898,22 C14.1127,22 12.9859,20.9045 12.9859,19.5274 Z M14.989,19.5274 C14.989,19.8091 15.2081,20.0282 15.4898,20.0282 L19.5274,20.0282 C19.8091,20.0282 20.0282,19.8091 20.0282,19.5274 L20.0282,12.4851 C20.0282,12.2034 19.8091,11.9531 19.5274,11.9531 L15.4844,11.9531 C15.2031,11.9531 14.9844,12.2031 14.9844,12.4844 L14.989,19.5274 Z M15.990552,18.4863146 L15.9844,17.4816898 C15.9844,17.2330449 16.2014073,16.9844 16.4805302,16.9844 C16.7595538,16.9844 16.9766604,17.2330449 16.9766604,17.4816898 L16.9844,18.4863146 C16.9844,18.7664876 16.7669958,18.9844 16.487476,18.9844 C16.2079563,18.9844 15.990552,18.7664876 15.990552,18.4863146 Z M17.9935997,18.5158318 L17.9844,17.4596465 C17.9844,17.2060971 18.2007419,16.9842921 18.4889999,16.9922029 C18.7676624,16.9922029 18.9844,17.2144136 18.9844,17.4683686 L18.9844,18.5158318 C18.9844,18.8015312 18.7676624,18.9919975 18.4889999,18.9919975 C18.2103373,18.9919975 17.9935997,18.8015312 17.9935997,18.5158318 Z" id="🎨-Color"></path>
        </g>
    </g>
</svg>