<?xml version="1.0" encoding="UTF-8"?>
<svg width="24px" height="24px" viewBox="0 0 24 24" version="1.1" xmlns="http://www.w3.org/2000/svg" xmlns:xlink="http://www.w3.org/1999/xlink">
    <!-- Generator: Sketch 64 (93537) - https://sketch.com -->
    <title>ic-db_ticket_qr-code_24</title>
    <desc>Created with Sketch.</desc>
    <g id="Symbols" stroke="none" stroke-width="1" fill="none" fill-rule="evenodd">
        <g id="24dp-Icon/Ticket/Qr-Code" fill="#282D37">
            <path d="M8.5,13 C9.875,13 11,14.125 11,15.5 L11,18.5 C11,19.875 9.875,21 8.5,21 L5.5,21 C4.125,21 3,19.875 3,18.5 L3,15.5 C3,14.125 4.125,13 5.5,13 L8.5,13 Z M8.5,15 L5.5,15 C5.21875,15 5,15.21875 5,15.5 L5,18.5 C5,18.78125 5.21875,19 5.5,19 L8.5,19 C8.78125,19 9,18.78125 9,18.5 L9,15.5 C9,15.21875 8.78125,15 8.5,15 Z M8.5,3 C9.875,3 11,4.125 11,5.5 L11,8.5 C11,9.875 9.875,11 8.5,11 L5.5,11 C4.125,11 3,9.875 3,8.5 L3,5.5 C3,4.125 4.125,3 5.5,3 L8.5,3 Z M8.5,5 L5.5,5 C5.21875,5 5,5.21875 5,5.5 L5,8.5 C5,8.78125 5.21875,9 5.5,9 L8.5,9 C8.78125,9 9,8.78125 9,8.5 L9,5.5 C9,5.21875 8.78125,5 8.5,5 Z M17,13 C17.53125,13 18,13.46875 18,14 L18,16 L20,16 C20.5625,16 21,16.4375 21,17 L21,20 C21,20.5625 20.5625,21 20,21 L17,21 C16.4375,21 16,20.5625 16,20 L16,18 L14,18 C13.46875,18 13,17.53125 13,17 L13,14 C13,13.46875 13.46875,13 14,13 L17,13 Z M18.5,3 C19.875,3 21,4.125 21,5.5 L21,8.5 C21,9.875 19.875,11 18.5,11 L15.5,11 C14.125,11 13,9.875 13,8.5 L13,5.5 C13,4.125 14.125,3 15.5,3 L18.5,3 Z M18.5,5 L15.5,5 C15.21875,5 15,5.21875 15,5.5 L15,8.5 C15,8.78125 15.21875,9 15.5,9 L18.5,9 C18.78125,9 19,8.78125 19,8.5 L19,5.5 C19,5.21875 18.78125,5 18.5,5 Z" id="🎨-Color"></path>
        </g>
    </g>
</svg>