<?xml version="1.0" encoding="UTF-8"?>
<svg width="24px" height="24px" viewBox="0 0 24 24" version="1.1" xmlns="http://www.w3.org/2000/svg" xmlns:xlink="http://www.w3.org/1999/xlink">
    <!-- Generator: Sketch 64 (93537) - https://sketch.com -->
    <title>ic-db_ticket_bahnbonus_24</title>
    <desc>Created with Sketch.</desc>
    <g id="Symbols" stroke="none" stroke-width="1" fill="none" fill-rule="evenodd">
        <g id="24dp-Icon/Ticket/BahnBonus" fill="#282D37">
            <path d="M3.87401785,7.43307 C3.87401785,5.54331 5.41732515,4 7.30708915,4 C9.19685215,4 10.7086631,5.54331 10.7086631,7.43307 C10.7086631,9.32283 9.19685215,10.834646 7.30708915,10.834646 C5.41732515,10.834646 3.87401785,9.32283 3.87401785,7.43307 Z M8.88189215,17.700787 C8.88189215,18.96063 9.88976615,20 11.1811042,20 C12.4409472,20 13.4803122,18.96063 13.4803122,17.700787 C13.4803122,16.440945 12.4409472,15.401575 11.1811042,15.401575 C9.88976615,15.401575 8.88189215,16.440945 8.88189215,17.700787 Z M11.3437419,10.84375 C11.3385852,8.40945 13.2913422,6.45669 15.7480322,6.45669 C18.1417322,6.45669 20.1259822,8.40945 20.1259822,10.834646 C20.1259822,13.291339 18.1417322,15.244094 15.7480322,15.244094 C13.3543322,15.244094 11.3437419,13.25 11.3437419,10.84375 Z" id="🎨-Color"></path>
        </g>
    </g>
</svg>