<?xml version="1.0" encoding="utf-8"?>
<!-- Generator: Adobe Illustrator 24.1.2, SVG Export Plug-In . SVG Version: 6.00 Build 0)  -->
<svg version="1.1" xmlns="http://www.w3.org/2000/svg" xmlns:xlink="http://www.w3.org/1999/xlink" x="0px" y="0px"
	 viewBox="0 0 24 24" style="enable-background:new 0 0 24 24;" xml:space="preserve">
<style type="text/css">
	.st0{fill:#3F434C;}
</style>
<g id="guides">
</g>
<g id="Ebene_1">
	<path class="st0" d="M16.3,5.7L16,5.6c-2.6-0.8-5.4-0.8-8,0L7.7,5.7C7,6,6.5,6.7,6.4,7.5L6,16c0,1.7,1.3,3,3,3h6c1.7,0,3-1.3,3-3
		l-0.4-8.5C17.5,6.7,17,6,16.3,5.7z M9.3,15c-0.3,0-0.5-0.1-0.6-0.4l-0.2-1c0-0.3,0.1-0.5,0.4-0.6s0.5,0.1,0.6,0.4l0.2,1
		C9.8,14.7,9.6,14.9,9.3,15z M14,17.5c0,0.3-0.2,0.5-0.5,0.5h-3c-0.3,0-0.5-0.2-0.5-0.5v-1c0-0.3,0.2-0.5,0.5-0.5h3
		c0.3,0,0.5,0.2,0.5,0.5V17.5z M15.3,14.6c0,0.3-0.3,0.5-0.6,0.4c-0.3,0-0.5-0.3-0.4-0.6l0.2-1c0-0.3,0.3-0.5,0.6-0.4
		s0.5,0.3,0.4,0.6L15.3,14.6z M15.6,11.1c-0.1,0.5-0.5,0.9-1,0.9H9.5c-0.5,0-0.9-0.4-1-0.9L8.1,7.9C8,7.4,8.4,6.9,8.9,6.8
		c2.1-0.5,4.2-0.5,6.3,0l0,0c0.5,0.1,0.8,0.6,0.8,1.1L15.6,11.1z"/>
</g>
</svg>
