<?xml version="1.0" encoding="utf-8"?>
<!-- Generator: Adobe Illustrator 24.1.2, SVG Export Plug-In . SVG Version: 6.00 Build 0)  -->
<svg version="1.1" xmlns="http://www.w3.org/2000/svg" xmlns:xlink="http://www.w3.org/1999/xlink" x="0px" y="0px"
	 viewBox="0 0 24 24" style="enable-background:new 0 0 24 24;" xml:space="preserve">
<style type="text/css">
	.st0{fill:#3F434C;}
</style>
<g id="guides">
</g>
<g id="Ebene_1">
	<path class="st0" d="M14,12l2.4,1.8c0.2,0.1,0.4,0.2,0.6,0.2c0.3,0,0.6-0.1,0.8-0.4c0.3-0.4,0.2-1.1-0.2-1.4L14,9.5V9
		c0-1.1-0.9-2-2-2h-2v0c-0.2,0-0.4,0-0.6,0.2l-3,2C6.2,9.4,6,9.7,6,10v3c0,0.6,0.4,1,1,1s1-0.4,1-1v-2.5l2-1.3V14l-2.9,6.6
		c-0.2,0.5,0,1.1,0.5,1.3C7.7,22,7.9,22,8,22c0.4,0,0.7-0.2,0.9-0.6l3.1-6.9l0,0l3.1,6.9c0.2,0.4,0.5,0.6,0.9,0.6
		c0.1,0,0.3,0,0.4-0.1c0.5-0.2,0.7-0.8,0.5-1.3L14,14l0,0V12z"/>
	<circle class="st0" cx="12" cy="4" r="2"/>
</g>
</svg>
