<?xml version="1.0" encoding="utf-8"?>
<!-- Generator: Adobe Illustrator 24.1.2, SVG Export Plug-In . SVG Version: 6.00 Build 0)  -->
<svg version="1.1" xmlns="http://www.w3.org/2000/svg" xmlns:xlink="http://www.w3.org/1999/xlink" x="0px" y="0px"
	 viewBox="0 0 24 24" style="enable-background:new 0 0 24 24;" xml:space="preserve">
<style type="text/css">
	.st0{fill:#3F434C;}
</style>
<g id="guides">
</g>
<g id="Ebene_1">
	<path class="st0" d="M18,6c0-1.1-0.9-2-2-2H8C6.9,4,6,4.9,6,6C5.4,6,5,6.4,5,7v2c0,0.6,0.4,1,1,1v7c0,0.6,0.4,1,1,1v1.5
		C7,19.8,7.2,20,7.5,20h2c0.3,0,0.5-0.2,0.5-0.5V18h4v1.5c0,0.3,0.2,0.5,0.5,0.5h2c0.3,0,0.5-0.2,0.5-0.5V18c0.6,0,1-0.4,1-1v-7
		c0.6,0,1-0.4,1-1V7C19,6.4,18.6,6,18,6z M9.5,17h-1C8.2,17,8,16.8,8,16.5S8.2,16,8.5,16h1c0.3,0,0.5,0.2,0.5,0.5S9.8,17,9.5,17z
		 M15.5,17h-1c-0.3,0-0.5-0.2-0.5-0.5s0.2-0.5,0.5-0.5h1c0.3,0,0.5,0.2,0.5,0.5S15.8,17,15.5,17z M17,7v2v4c0,0.6-0.4,1-1,1H8
		c-0.6,0-1-0.4-1-1V9V7V6.8c0-0.5,0.3-0.9,0.8-1c2.8-0.6,5.6-0.6,8.4,0c0.5,0.1,0.8,0.5,0.8,1V7z"/>
</g>
</svg>
