<?xml version="1.0" encoding="utf-8"?>
<!-- Generator: Adobe Illustrator 24.1.2, SVG Export Plug-In . SVG Version: 6.00 Build 0)  -->
<svg version="1.1" xmlns="http://www.w3.org/2000/svg" xmlns:xlink="http://www.w3.org/1999/xlink" x="0px" y="0px"
	 viewBox="0 0 24 24" style="enable-background:new 0 0 24 24;" xml:space="preserve">
<style type="text/css">
	.st0{fill:#3F434C;}
</style>
<g id="guides">
</g>
<g id="Ebene_1">
	<path class="st0" d="M18,11l-0.7-3.4c-0.2-0.9-1-1.6-2-1.6H8.6c-1,0-1.8,0.7-2,1.6L6,11c-0.6,0-1,0.4-1,1v3c0,0.6,0.4,1,1,1v1.5
		C6,17.8,6.2,18,6.5,18h1C7.8,18,8,17.8,8,17.5V16h8v1.5c0,0.3,0.2,0.5,0.5,0.5h1c0.3,0,0.5-0.2,0.5-0.5V16c0.6,0,1-0.4,1-1v-3
		C19,11.4,18.6,11,18,11z M8,14c-0.6,0-1-0.4-1-1c0-0.6,0.4-1,1-1s1,0.4,1,1C9,13.6,8.6,14,8,14z M16,14c-0.6,0-1-0.4-1-1
		c0-0.6,0.4-1,1-1s1,0.4,1,1C17,13.6,16.6,14,16,14z M7,11l0.7-3.2C7.8,7.3,8.2,7,8.6,7h6.7c0.5,0,0.9,0.3,1,0.8L17,11H7z"/>
</g>
</svg>
