<?xml version="1.0" encoding="utf-8"?>
<!-- Generator: Adobe Illustrator 24.1.2, SVG Export Plug-In . SVG Version: 6.00 Build 0)  -->
<svg version="1.1" xmlns="http://www.w3.org/2000/svg" xmlns:xlink="http://www.w3.org/1999/xlink" x="0px" y="0px"
	 viewBox="0 0 24 24" style="enable-background:new 0 0 24 24;" xml:space="preserve">
<style type="text/css">
	.st0{fill:#3F434C;}
</style>
<g id="guides">
</g>
<g id="Ebene_1">
	<path class="st0" d="M6,18c0,1.1,0.9,2,2,2h8c1.1,0,2-0.9,2-2V8c0-1.1-0.9-2-2-2h-2.8L14,5.2c0.4-0.4,0.4-1,0-1.4l-1.6-1.6
		c-0.2-0.2-0.5-0.2-0.7,0L10,3.8c-0.4,0.4-0.4,1,0,1.4L10.8,6H8C6.9,6,6,6.9,6,8V18z M15.5,18h-1c-0.3,0-0.5-0.2-0.5-0.5
		s0.2-0.5,0.5-0.5h1c0.3,0,0.5,0.2,0.5,0.5S15.8,18,15.5,18z M10.7,4.5L12,3.2l1.3,1.3L12,5.8L10.7,4.5z M9.5,7h5
		C14.8,7,15,7.2,15,7.5S14.8,8,14.5,8h-5C9.2,8,9,7.8,9,7.5S9.2,7,9.5,7z M8,10c0-0.6,0.4-1,1-1h6c0.6,0,1,0.4,1,1v4
		c0,0.6-0.4,1-1,1H9c-0.6,0-1-0.4-1-1V10z M8.5,17h1c0.3,0,0.5,0.2,0.5,0.5S9.8,18,9.5,18h-1C8.2,18,8,17.8,8,17.5S8.2,17,8.5,17z"
		/>
</g>
</svg>
