<?xml version="1.0" encoding="utf-8"?>
<!-- Generator: Adobe Illustrator 24.1.2, SVG Export Plug-In . SVG Version: 6.00 Build 0)  -->
<svg version="1.1" xmlns="http://www.w3.org/2000/svg" xmlns:xlink="http://www.w3.org/1999/xlink" x="0px" y="0px"
	 viewBox="0 0 24 24" style="enable-background:new 0 0 24 24;" xml:space="preserve">
<style type="text/css">
	.st0{fill:#3F434C;}
</style>
<g id="guides">
</g>
<g id="Ebene_1">
	<path class="st0" d="M21,13l-5-0.6c-0.1-0.5-0.2-1-0.4-1.4h1.9c0.3,0,0.5-0.2,0.5-0.5S17.8,10,17.5,10h-2.4
		c-0.5-0.9-1.3-1.6-2.2-1.8l-0.4-3.2c0-0.2-0.2-0.4-0.4-0.4c-0.3,0-0.5,0.2-0.6,0.4l-0.4,3.2c-0.9,0.3-1.6,1-2.2,1.8H6.5
		C6.2,10,6,10.2,6,10.5S6.2,11,6.5,11h1.9c-0.2,0.5-0.3,1-0.4,1.4L3,13c-0.3,0-0.5,0.2-0.5,0.5C2.5,13.8,2.7,14,3,14v0h2.4
		C5.1,14.3,5,14.6,5,15c0,0.8,0.7,1.5,1.5,1.5S8,15.8,8,15c0-0.4-0.2-0.7-0.4-1h0.5c0.4,1.7,2,3,3.9,3s3.4-1.3,3.9-3h0.5
		c-0.2,0.3-0.4,0.6-0.4,1c0,0.8,0.7,1.5,1.5,1.5S19,15.8,19,15c0-0.4-0.2-0.7-0.4-1H21v0c0.3,0,0.5-0.2,0.5-0.5
		C21.5,13.2,21.3,13,21,13z M6.5,15.5C6.2,15.5,6,15.3,6,15s0.2-0.5,0.5-0.5S7,14.7,7,15S6.8,15.5,6.5,15.5z M14.1,12H9.9
		c-0.4,0-0.6-0.4-0.5-0.7c0.1-0.3,0.3-0.6,0.5-0.9c0.2-0.3,0.5-0.5,0.8-0.5h2.5c0.3,0,0.6,0.2,0.8,0.5c0.2,0.3,0.4,0.6,0.5,0.9
		C14.7,11.6,14.5,12,14.1,12z M17.5,15.5c-0.3,0-0.5-0.2-0.5-0.5s0.2-0.5,0.5-0.5S18,14.7,18,15S17.8,15.5,17.5,15.5z"/>
</g>
</svg>
