<?xml version="1.0" encoding="utf-8"?>
<!-- Generator: Adobe Illustrator 24.1.2, SVG Export Plug-In . SVG Version: 6.00 Build 0)  -->
<svg version="1.1" xmlns="http://www.w3.org/2000/svg" xmlns:xlink="http://www.w3.org/1999/xlink" x="0px" y="0px"
	 viewBox="0 0 24 24" style="enable-background:new 0 0 24 24;" xml:space="preserve">
<style type="text/css">
	.st0{fill:#3F434C;}
</style>
<g id="guides">
</g>
<g id="Ebene_1">
	<path class="st0" d="M17,11H7c-2.2,0-4,1.8-4,4s1.8,4,4,4h8.2c0.4,1.2,1.5,2,2.8,2c1.7,0,3-1.3,3-3s-1.3-3-3-3
		c-1.3,0-2.4,0.8-2.8,2H7c-1.1,0-2-0.9-2-2s0.9-2,2-2h10c2.2,0,4-1.8,4-4s-1.8-4-4-4H8.8C8.4,3.8,7.3,3,6,3C4.3,3,3,4.3,3,6
		s1.3,3,3,3c1.3,0,2.4-0.8,2.8-2H17c1.1,0,2,0.9,2,2S18.1,11,17,11z M18,17c0.6,0,1,0.4,1,1s-0.4,1-1,1s-1-0.4-1-1S17.4,17,18,17z
		 M6,7C5.4,7,5,6.6,5,6s0.4-1,1-1s1,0.4,1,1S6.6,7,6,7z"/>
</g>
</svg>
