<?xml version="1.0" encoding="utf-8"?>
<!-- Generator: Adobe Illustrator 24.1.2, SVG Export Plug-In . SVG Version: 6.00 Build 0)  -->
<svg version="1.1" xmlns="http://www.w3.org/2000/svg" xmlns:xlink="http://www.w3.org/1999/xlink" x="0px" y="0px"
	 viewBox="0 0 24 24" style="enable-background:new 0 0 24 24;" xml:space="preserve">
<style type="text/css">
	.st0{fill:#3F434C;}
</style>
<g id="guides">
</g>
<g id="Ebene_1">
	<path class="st0" d="M20,4H4C2.9,4,2,4.9,2,6v8c0,1.1,0.9,2,2,2h7v2H6c-0.6,0-1,0.4-1,1s0.4,1,1,1h12c0.6,0,1-0.4,1-1s-0.4-1-1-1
		h-5v-2h7c1.1,0,2-0.9,2-2V6C22,4.9,21.1,4,20,4z M4,14V6h16l0,8H4z"/>
</g>
</svg>
