<?xml version="1.0" encoding="utf-8"?>
<!-- Generator: Adobe Illustrator 24.1.2, SVG Export Plug-In . SVG Version: 6.00 Build 0)  -->
<svg version="1.1" xmlns="http://www.w3.org/2000/svg" xmlns:xlink="http://www.w3.org/1999/xlink" x="0px" y="0px"
	 viewBox="0 0 24 24" style="enable-background:new 0 0 24 24;" xml:space="preserve">
<style type="text/css">
	.st0{fill:#3F434C;}
</style>
<g id="guides">
</g>
<g id="Ebene_1">
	<path class="st0" d="M19.7,5.6C19,6,18.3,6.2,17.5,6.4C16.9,5.7,16,5.3,15,5.3c-1.9,0-3.5,1.6-3.5,3.5c0,0.3,0,0.5,0.1,0.8
		C8.7,9.4,6.2,8,4.5,5.9C4.2,6.5,4,7,4,7.7c0,1.2,0.6,2.3,1.5,2.9c-0.6,0-1.1-0.2-1.6-0.4c0,0,0,0,0,0c0,1.7,1.2,3.1,2.8,3.4
		c-0.3,0.1-0.6,0.1-0.9,0.1c-0.2,0-0.4,0-0.7-0.1C5.7,15,6.9,16,8.4,16c-1.2,0.9-2.7,1.5-4.3,1.5c-0.3,0-0.6,0-0.8,0
		c1.5,1,3.3,1.6,5.3,1.6c6.4,0,9.8-5.3,9.8-9.8c0-0.2,0-0.3,0-0.4c0.7-0.5,1.3-1.1,1.7-1.8c-0.6,0.3-1.3,0.5-2,0.5
		C18.9,7,19.5,6.4,19.7,5.6z"/>
</g>
</svg>
