<?xml version="1.0" encoding="utf-8"?>
<!-- Generator: Adobe Illustrator 24.1.2, SVG Export Plug-In . SVG Version: 6.00 Build 0)  -->
<svg version="1.1" xmlns="http://www.w3.org/2000/svg" xmlns:xlink="http://www.w3.org/1999/xlink" x="0px" y="0px"
	 viewBox="0 0 24 24" style="enable-background:new 0 0 24 24;" xml:space="preserve">
<style type="text/css">
	.st0{fill:#3F434C;}
</style>
<g id="guides">
</g>
<g id="Ebene_1">
	<path class="st0" d="M12,2C6.5,2,2,6.5,2,12s4.5,10,10,10s10-4.5,10-10S17.5,2,12,2z M12,20c-4.4,0-8-3.6-8-8s3.6-8,8-8s8,3.6,8,8
		S16.4,20,12,20z"/>
	<path class="st0" d="M16.6,11.2l-6-4c-0.3-0.2-0.7-0.2-1,0C9.2,7.3,9,7.6,9,8v8c0,0.4,0.2,0.7,0.5,0.9C9.7,17,9.8,17,10,17
		c0.2,0,0.4-0.1,0.6-0.2l6-4c0.3-0.2,0.4-0.5,0.4-0.8S16.8,11.4,16.6,11.2z M11,14.1V9.9l3.2,2.1L11,14.1z"/>
</g>
</svg>
