<?xml version="1.0" encoding="utf-8"?>
<!-- Generator: Adobe Illustrator 24.1.2, SVG Export Plug-In . SVG Version: 6.00 Build 0)  -->
<svg version="1.1" xmlns="http://www.w3.org/2000/svg" xmlns:xlink="http://www.w3.org/1999/xlink" x="0px" y="0px"
	 viewBox="0 0 24 24" style="enable-background:new 0 0 24 24;" xml:space="preserve">
<style type="text/css">
	.st0{fill:#3F434C;}
</style>
<g id="guides">
</g>
<g id="Ebene_1">
	<path class="st0" d="M12,18c4.9,0,8.7-5.2,8.8-5.4c0.2-0.3,0.2-0.8,0-1.2C20.7,11.2,16.9,6,12,6s-8.7,5.2-8.8,5.4
		c-0.2,0.3-0.2,0.8,0,1.2C3.3,12.8,7.1,18,12,18z M12,8c3,0,5.7,2.8,6.7,4c-1,1.2-3.7,4-6.7,4s-5.7-2.8-6.7-4C6.3,10.8,9,8,12,8z"/>
	<circle class="st0" cx="12" cy="12" r="2"/>
</g>
</svg>
