<?xml version="1.0" encoding="utf-8"?>
<!-- Generator: Adobe Illustrator 24.1.2, SVG Export Plug-In . SVG Version: 6.00 Build 0)  -->
<svg version="1.1" xmlns="http://www.w3.org/2000/svg" xmlns:xlink="http://www.w3.org/1999/xlink" x="0px" y="0px"
	 viewBox="0 0 24 24" style="enable-background:new 0 0 24 24;" xml:space="preserve">
<style type="text/css">
	.st0{fill:#3F434C;}
</style>
<g id="guides">
</g>
<g id="Ebene_1">
	<path class="st0" d="M6,9c-0.6,0-1,0.4-1,1v0.9c0,3.6,2.6,6.6,6,7.1V19H9c-0.6,0-1,0.4-1,1s0.4,1,1,1h6c0.6,0,1-0.4,1-1s-0.4-1-1-1
		h-2v-1.1c3.4-0.5,6-3.5,6-7.1V10c0-0.6-0.4-1-1-1s-1,0.4-1,1v0.9c0,2.8-2.2,5.1-5,5.1s-5-2.3-5-5.1V10C7,9.4,6.6,9,6,9z"/>
	<path class="st0" d="M15,11V6c0-1.7-1.3-3-3-3S9,4.3,9,6v5c0,1.7,1.3,3,3,3S15,12.7,15,11z M11,11V6c0-0.6,0.4-1,1-1s1,0.4,1,1v5
		c0,0.6-0.4,1-1,1S11,11.6,11,11z"/>
</g>
</svg>
