<?xml version="1.0" encoding="utf-8"?>
<!-- Generator: Adobe Illustrator 24.1.2, SVG Export Plug-In . SVG Version: 6.00 Build 0)  -->
<svg version="1.1" xmlns="http://www.w3.org/2000/svg" xmlns:xlink="http://www.w3.org/1999/xlink" x="0px" y="0px"
	 viewBox="0 0 24 24" style="enable-background:new 0 0 24 24;" xml:space="preserve">
<style type="text/css">
	.st0{fill:#3F434C;}
</style>
<g id="guides">
</g>
<g id="Ebene_1">
	<path class="st0" d="M7.1,20.6c-0.2,0.5,0,1.1,0.5,1.3C7.7,22,7.9,22,8,22c0.4,0,0.7-0.2,0.9-0.6l3.1-6.9l2-2V12l2.4,1.8
		c0.2,0.1,0.4,0.2,0.6,0.2c0.3,0,0.6-0.1,0.8-0.4c0.3-0.4,0.2-1.1-0.2-1.4L14,9.5V9c0-1.1-0.9-2-2-2h-2v0c-0.2,0-0.4,0-0.6,0.2l-3,2
		C6.2,9.4,6,9.7,6,10v3c0,0.6,0.4,1,1,1s1-0.4,1-1v-2.5l2-1.3V14L7.1,20.6z"/>
	<circle class="st0" cx="12" cy="4" r="2"/>
	<path class="st0" d="M15.5,20h3.8l-0.6,0.6c-0.2,0.2-0.2,0.5,0,0.7c0.1,0.1,0.2,0.1,0.4,0.1s0.3,0,0.4-0.1l1.5-1.5
		c0.2-0.2,0.2-0.5,0-0.7l-1.5-1.5c-0.2-0.2-0.5-0.2-0.7,0s-0.2,0.5,0,0.7l0.6,0.6h-3.8c-0.3,0-0.5,0.2-0.5,0.5
		C15,19.8,15.2,20,15.5,20z"/>
	<path class="st0" d="M15,18.5c0.1,0,0.3,0,0.4-0.1c0.2-0.2,0.2-0.5,0-0.7L14.7,17h3.8c0.3,0,0.5-0.2,0.5-0.5c0-0.3-0.2-0.5-0.5-0.5
		h-3.8l0.6-0.6c0.2-0.2,0.2-0.5,0-0.7s-0.5-0.2-0.7,0l-1.5,1.5c-0.1,0.1-0.1,0.2-0.1,0.4s0.1,0.3,0.1,0.4l1.5,1.5
		C14.7,18.4,14.9,18.5,15,18.5z"/>
</g>
</svg>
