<?xml version="1.0" encoding="utf-8"?>
<!-- Generator: Adobe Illustrator 24.1.2, SVG Export Plug-In . SVG Version: 6.00 Build 0)  -->
<svg version="1.1" xmlns="http://www.w3.org/2000/svg" xmlns:xlink="http://www.w3.org/1999/xlink" x="0px" y="0px"
	 viewBox="0 0 24 24" style="enable-background:new 0 0 24 24;" xml:space="preserve">
<style type="text/css">
	.st0{fill:#3F434C;}
</style>
<g id="guides">
</g>
<g id="Ebene_1">
	<circle class="st0" cx="13" cy="4" r="2"/>
	<path class="st0" d="M16.8,17.8l0.2,0.6c0.2,0.4,0.5,0.6,0.9,0.6h1c0.6,0,1-0.4,1-1s-0.4-1-1-1h-0.3l-1.7-4.4
		c-0.1-0.2-0.2-0.3-0.4-0.5l-2.1-1.4l0.2-1.5c0.2-1.2-0.8-2.3-2-2.3H11C8.8,7,6.7,8.1,5.5,9.9l-0.3,0.5c-0.3,0.5-0.2,1.1,0.3,1.4
		C5.6,11.9,5.8,12,6,12c0.3,0,0.6-0.2,0.8-0.4l0.3-0.5c0.8-1.2,2-1.9,3.4-2l-0.4,2.1C7.8,11.8,6,13.9,6,16.5c0,3,2.5,5.5,5.5,5.5
		C14.1,22,16.3,20.2,16.8,17.8z M11.5,20C9.6,20,8,18.4,8,16.5S9.6,13,11.5,13s3.5,1.6,3.5,3.5S13.4,20,11.5,20z"/>
</g>
</svg>
