<?xml version="1.0" encoding="utf-8"?>
<!-- Generator: Adobe Illustrator 24.1.2, SVG Export Plug-In . SVG Version: 6.00 Build 0)  -->
<svg version="1.1" xmlns="http://www.w3.org/2000/svg" xmlns:xlink="http://www.w3.org/1999/xlink" x="0px" y="0px"
	 viewBox="0 0 24 24" style="enable-background:new 0 0 24 24;" xml:space="preserve">
<style type="text/css">
	.st0{fill:#3F434C;}
</style>
<g id="guides">
</g>
<g id="Ebene_1">
	<path class="st0" d="M2.3,8.1c-0.4,0.4-0.4,1,0,1.4c0.4,0.4,1,0.4,1.4,0c4.6-4.7,12.1-4.7,16.7,0c0.2,0.2,0.4,0.3,0.7,0.3
		s0.5-0.1,0.7-0.3c0.4-0.4,0.4-1,0-1.4C16.4,2.6,7.6,2.6,2.3,8.1z"/>
	<path class="st0" d="M18.2,12.6c0.3,0,0.5-0.1,0.7-0.3c0.4-0.4,0.4-1,0-1.4C17.1,9,14.6,8,12,8s-5.1,1-6.9,2.9
		c-0.4,0.4-0.4,1,0,1.4c0.4,0.4,1,0.4,1.4,0C7.9,10.8,9.9,10,12,10s4.1,0.8,5.5,2.3C17.7,12.5,18,12.6,18.2,12.6z"/>
	<path class="st0" d="M15.5,15.5c0.3,0,0.5-0.1,0.7-0.3c0.4-0.4,0.4-1,0-1.4c-2.3-2.3-6-2.3-8.3,0c-0.4,0.4-0.4,1,0,1.4s1,0.4,1.4,0
		c1.5-1.6,4-1.6,5.6,0C15,15.4,15.2,15.5,15.5,15.5z"/>
	<circle class="st0" cx="12" cy="18" r="2"/>
</g>
</svg>
