<?xml version="1.0" encoding="utf-8"?>
<!-- Generator: Adobe Illustrator 24.1.2, SVG Export Plug-In . SVG Version: 6.00 Build 0)  -->
<svg version="1.1" xmlns="http://www.w3.org/2000/svg" xmlns:xlink="http://www.w3.org/1999/xlink" x="0px" y="0px"
	 viewBox="0 0 24 24" style="enable-background:new 0 0 24 24;" xml:space="preserve">
<style type="text/css">
	.st0{fill:#3F434C;}
</style>
<g id="guides">
</g>
<g id="Ebene_1">
	<path class="st0" d="M21,7h-5V5c0-0.6-0.4-1-1-1H9C8.4,4,8,4.4,8,5v2H3C2.4,7,2,7.4,2,8v11c0,0.6,0.4,1,1,1h18c0.6,0,1-0.4,1-1V8
		C22,7.4,21.6,7,21,7z M6,18H4V9h2V18z M10,6h4v1h-4V6z M16,18H8V9h1h6h1V18z M20,18h-2V9h2V18z"/>
</g>
</svg>
