<?xml version="1.0" encoding="utf-8"?>
<!-- Generator: Adobe Illustrator 24.1.2, SVG Export Plug-In . SVG Version: 6.00 Build 0)  -->
<svg version="1.1" xmlns="http://www.w3.org/2000/svg" xmlns:xlink="http://www.w3.org/1999/xlink" x="0px" y="0px"
	 viewBox="0 0 24 24" style="enable-background:new 0 0 24 24;" xml:space="preserve">
<style type="text/css">
	.st0{fill:#3F434C;}
</style>
<g id="guides">
</g>
<g id="Ebene_1">
	<path class="st0" d="M9.1,7C8.9,6.7,8.7,6.5,8.4,6.5H5.8c-0.2,0-0.3,0.1-0.3,0.2C5.4,6.8,5.4,7,5.5,7.1l1.8,3c0,0,0,0,0,0L4.5,15
		c-0.1,0.1-0.1,0.3,0,0.4c0.1,0.1,0.2,0.2,0.3,0.2h2.6c0.3,0,0.5-0.2,0.7-0.5c1.8-3.2,2.7-4.8,2.8-5L9.1,7z"/>
	<path class="st0" d="M19.4,3h-2.6c-0.3,0-0.5,0.2-0.7,0.5c-3.7,6.6-5.6,10-5.8,10.3l3.7,6.8c0.2,0.3,0.4,0.5,0.7,0.5h2.6
		c0.2,0,0.3-0.1,0.3-0.2c0.1-0.1,0.1-0.3,0-0.4l-3.7-6.7v0l5.7-10.2c0.1-0.2,0.1-0.3,0-0.4C19.6,3.1,19.5,3,19.4,3z"/>
</g>
</svg>
