<?xml version="1.0" encoding="utf-8"?>
<!-- Generator: Adobe Illustrator 24.1.2, SVG Export Plug-In . SVG Version: 6.00 Build 0)  -->
<svg version="1.1" xmlns="http://www.w3.org/2000/svg" xmlns:xlink="http://www.w3.org/1999/xlink" x="0px" y="0px"
	 viewBox="0 0 24 24" style="enable-background:new 0 0 24 24;" xml:space="preserve">
<style type="text/css">
	.st0{fill:#3F434C;}
</style>
<g id="guides">
</g>
<g id="Ebene_1">
	<path class="st0" d="M19.7,18.3l-3.1-3.1C17.5,14,18,12.6,18,11c0-3.9-3.1-7-7-7s-7,3.1-7,7s3.1,7,7,7c1.6,0,3-0.5,4.2-1.4l3.1,3.1
		c0.2,0.2,0.5,0.3,0.7,0.3s0.5-0.1,0.7-0.3C20.1,19.3,20.1,18.7,19.7,18.3z M6,11c0-2.8,2.2-5,5-5s5,2.2,5,5s-2.2,5-5,5S6,13.8,6,11
		z"/>
	<path class="st0" d="M13,10H9c-0.6,0-1,0.4-1,1s0.4,1,1,1h4c0.6,0,1-0.4,1-1S13.6,10,13,10z"/>
</g>
</svg>
