<?xml version="1.0" encoding="utf-8"?>
<!-- Generator: Adobe Illustrator 24.1.2, SVG Export Plug-In . SVG Version: 6.00 Build 0)  -->
<svg version="1.1" xmlns="http://www.w3.org/2000/svg" xmlns:xlink="http://www.w3.org/1999/xlink" x="0px" y="0px"
	 viewBox="0 0 24 24" style="enable-background:new 0 0 24 24;" xml:space="preserve">
<style type="text/css">
	.st0{fill:#3F434C;}
</style>
<g id="guides">
</g>
<g id="Ebene_1">
	<path class="st0" d="M19.7,19.7c0.4-0.4,0.4-1,0-1.4l-3.1-3.1C17.5,14,18,12.6,18,11c0-3.9-3.1-7-7-7s-7,3.1-7,7s3.1,7,7,7
		c1.6,0,3-0.5,4.2-1.4l3.1,3.1c0.2,0.2,0.5,0.3,0.7,0.3S19.5,19.9,19.7,19.7z M11,16c-2.8,0-5-2.2-5-5s2.2-5,5-5s5,2.2,5,5
		S13.8,16,11,16z"/>
	<path class="st0" d="M13,10h-1V9c0-0.6-0.4-1-1-1s-1,0.4-1,1v1H9c-0.6,0-1,0.4-1,1s0.4,1,1,1h1v1c0,0.6,0.4,1,1,1s1-0.4,1-1v-1h1
		c0.6,0,1-0.4,1-1S13.6,10,13,10z"/>
</g>
</svg>
