<?xml version="1.0" encoding="UTF-8"?>
<svg width="24px" height="24px" viewBox="0 0 24 24" version="1.1" xmlns="http://www.w3.org/2000/svg" xmlns:xlink="http://www.w3.org/1999/xlink">
    <!-- Generator: Sketch 64 (93537) - https://sketch.com -->
    <title>ic-db_facilities_wc_24</title>
    <desc>Created with Sketch.</desc>
    <g id="Symbols:Icon" stroke="none" stroke-width="1" fill="none" fill-rule="evenodd">
        <g id="24dp-Icon/Facilities/WC" fill="#282D37">
            <path d="M2.01923112,14.9688 L2.80053112,10.4375 C2.92553112,9.5938 3.64423112,9 4.48803112,9 L8.01923112,9 C8.86303112,9 9.58173112,9.5938 9.70673112,10.4375 L10.4567311,14.9688 C10.6130311,16.0312 9.89423112,16.9688 8.67553112,16.9688 L8.67553112,21.0325 C8.67553112,21.5638 8.23803112,22.0012 7.70673112,22.0012 C7.17553112,22.0012 6.73803112,21.5638 6.73803112,21.0325 L6.73803112,15.9688 C6.73803112,15.4375 7.17553112,15 7.70673112,15 L8.48803112,15 L7.80053112,10.9375 L4.67553112,10.9375 L4.01923112,15 L4.83173112,15 C5.36303112,15 5.80053112,15.4375 5.80053112,15.9688 L5.80053112,21.0325 C5.80053112,21.5638 5.33173112,22.0012 4.80053112,22.0012 C4.30053112,22.0012 3.83173112,21.5638 3.83173112,21.0325 L3.83173112,16.9688 C2.67553112,16.9688 1.86303112,16.0938 2.01923112,14.9688 Z M6.22290325,2 C7.89136672,2 9.23897183,3.34750244 9.23897183,4.98393141 C9.23897183,6.65239489 7.89136672,8 6.22290325,8 C4.58657695,8 3.23897183,6.65239489 3.23897183,4.98393141 C3.23897183,3.34750244 4.58657695,2 6.22290325,2 Z M6.25487065,4 C5.71512361,4 5.23897183,4.44453474 5.23897183,4.98415278 C5.23897183,5.52377082 5.71512361,6 6.25487065,6 C6.7945161,6 7.23897183,5.52377082 7.23897183,4.98415278 C7.23897183,4.44453474 6.7945161,4 6.25487065,4 Z M13.0278739,10.9688 C12.8403739,9.9376 13.6216739,9 14.6841739,9 L19.8716739,9 C20.9028739,9 21.7153739,9.9063 21.5591739,10.9063 L20.8091739,15.5 C20.7153739,16.0938 20.3403739,16.5938 19.7466739,16.8126 L19.7466739,21.0313 C19.7466739,21.5626 19.3091739,22 18.7778739,22 C18.2466739,22 17.8091739,21.5626 17.8091739,21.0313 L17.8091739,15.9376 C17.8091739,15.4063 18.1528739,14.9688 18.9341739,14.9688 L19.5903739,10.9376 L14.9966739,10.9376 L15.6841739,14.9688 C16.4341739,14.9688 16.8403739,15.375 16.8403739,15.9376 L16.8403739,21.0313 C16.8403739,21.5626 16.4028739,22 15.8716739,22 C15.3403739,22 14.9028739,21.5626 14.9028739,21.0313 L14.9028739,16.8126 C14.3403739,16.5938 13.9028739,16.0938 13.8091739,15.5313 L13.0278739,10.9688 Z M17.2732214,2 C18.9416563,2 20.2892383,3.34750244 20.2892383,4.98393141 C20.2892383,6.65239489 18.9416563,8 17.2732214,8 C15.6368204,8 14.2892383,6.65239489 14.2892383,4.98393141 C14.2892383,3.34750244 15.6368204,2 17.2732214,2 Z M17.3050856,4 C16.7654675,4 16.2892383,4.44453474 16.2892383,4.98415278 C16.2892383,5.52377082 16.7654675,6 17.3050856,6 C17.8448052,6 18.2892383,5.52377082 18.2892383,4.98415278 C18.2892383,4.44453474 17.8448052,4 17.3050856,4 Z" id="🎨-Color"></path>
        </g>
    </g>
</svg>