<svg xmlns="http://www.w3.org/2000/svg" viewBox="0 0 24 24"><path d="M6 6v2c-.6 0-1 .4-1 1v2c0 .6.4 1 1 1v5c0 .6.4 1 1 1v1.5c0 .3.2.5.5.5h2c.3 0 .5-.2.5-.5V18h4v1.5c0 .3.2.5.5.5h2c.3 0 .5-.2.5-.5V18c.6 0 1-.4 1-1v-5c.6 0 1-.4 1-1V9c0-.6-.4-1-1-1V6c0-1.1-.9-2-2-2H8c-1.1 0-2 .9-2 2zm3.5 11h-1c-.3 0-.5-.2-.5-.5s.2-.5.5-.5h1c.3 0 .5.2.5.5s-.2.5-.5.5zm6 0h-1c-.3 0-.5-.2-.5-.5s.2-.5.5-.5h1c.3 0 .5.2.5.5s-.2.5-.5.5zM17 9v4c0 .6-.4 1-1 1H8c-.6 0-1-.4-1-1V9c0-.6.4-1 1-1h8c.6 0 1 .4 1 1zM9.5 5h5c.3 0 .5.2.5.5s-.2.5-.5.5h-5c-.3 0-.5-.2-.5-.5s.2-.5.5-.5z" fill="#3f434c"/></svg>