<?xml version="1.0" encoding="UTF-8"?>
<svg width="24px" height="24px" viewBox="0 0 24 24" version="1.1" xmlns="http://www.w3.org/2000/svg" xmlns:xlink="http://www.w3.org/1999/xlink">
    <!-- Generator: Sketch 64 (93537) - https://sketch.com -->
    <title>ic-db_action_search_24</title>
    <desc>Created with Sketch.</desc>
    <g id="Symbols:Icon" stroke="none" stroke-width="1" fill="none" fill-rule="evenodd">
        <g id="24dp-Icon/Action/Search" fill="#282D37">
            <path d="M9.5,2 C13.6563,2 17.0313,5.37358379 17.0313,9.49685286 C17.0313,11.2149316 16.4688,12.8079629 15.5,14.0887252 L21.7188,20.3048157 C22.0938,20.6796584 22.0938,21.3043961 21.7188,21.7105256 C21.3438,22.0853683 20.7813,22.0853683 20.375,21.7729994 L14.0938,15.4943351 C12.8125,16.4627286 11.2188,17.0249926 9.5,17.0249926 C5.375,17.0249926 2,13.6514088 2,9.49685286 C2,5.37358379 5.375,2 9.5,2 Z M9.5,3.99916076 C6.4688,3.99916076 4,6.46692481 4,9.49685286 C4,12.5580678 6.4688,15.0258318 9.5,15.0258318 C12.5625,15.0258318 15.0313,12.5580678 15.0313,9.49685286 C15.0313,6.46692481 12.5625,3.99916076 9.5,3.99916076 Z" id="🎨-Color"></path>
        </g>
    </g>
</svg>