<?xml version="1.0" encoding="UTF-8"?>
<svg width="24px" height="24px" viewBox="0 0 24 24" version="1.1" xmlns="http://www.w3.org/2000/svg" xmlns:xlink="http://www.w3.org/1999/xlink">
    <!-- Generator: Sketch 64 (93537) - https://sketch.com -->
    <title>ic-db_facilities_wc-woman_24</title>
    <desc>Created with Sketch.</desc>
    <g id="Symbols:Icon" stroke="none" stroke-width="1" fill="none" fill-rule="evenodd">
        <g id="24dp-Icon/Facilities/WC-Woman" fill="#282D37">
            <path d="M7.78025928,14.9688 L8.56155928,10.4375 C8.68655928,9.5938 9.40525928,9 10.2490593,9 L13.7802593,9 C14.6240593,9 15.3427593,9.5938 15.4677593,10.4375 L16.2177593,14.9688 C16.3740593,16.0312 15.6552593,16.9688 14.4365593,16.9688 L14.4365593,21.0325 C14.4365593,21.5638 13.9990593,22.0012 13.4677593,22.0012 C12.9365593,22.0012 12.4990593,21.5638 12.4990593,21.0325 L12.4990593,15.9688 C12.4990593,15.4375 12.9365593,15 13.4677593,15 L14.2490593,15 L13.5615593,10.9375 L10.4365593,10.9375 L9.78025928,15 L10.5927593,15 C11.1240593,15 11.5615593,15.4375 11.5615593,15.9688 L11.5615593,21.0325 C11.5615593,21.5638 11.0927593,22.0012 10.5615593,22.0012 C10.0615593,22.0012 9.59275928,21.5638 9.59275928,21.0325 L9.59275928,16.9688 C8.43655928,16.9688 7.62405928,16.0938 7.78025928,14.9688 Z M11.9839314,2 C13.6523949,2 15,3.34750244 15,4.98393141 C15,6.65239489 13.6523949,8 11.9839314,8 C10.3476051,8 9,6.65239489 9,4.98393141 C9,3.34750244 10.3476051,2 11.9839314,2 Z M12.0158988,4 C11.4761518,4 11,4.44453474 11,4.98415278 C11,5.52377082 11.4761518,6 12.0158988,6 C12.5555443,6 13,5.52377082 13,4.98415278 C13,4.44453474 12.5555443,4 12.0158988,4 Z" id="🎨-Color"></path>
        </g>
    </g>
</svg>