<?xml version="1.0" encoding="UTF-8"?>
<svg width="24px" height="24px" viewBox="0 0 24 24" version="1.1" xmlns="http://www.w3.org/2000/svg" xmlns:xlink="http://www.w3.org/1999/xlink">
    <!-- Generator: Sketch 64 (93537) - https://sketch.com -->
    <title>ic-db_feature_luggage-rack_24</title>
    <desc>Created with Sketch.</desc>
    <g id="Symbols:Icon" stroke="none" stroke-width="1" fill="none" fill-rule="evenodd">
        <g id="24dp-Icon/Feature/Luggage-Rack" fill="#282D37">
            <path d="M21.02625,19.998375 C21.5788109,19.998375 22,20.4720641 22,21.024625 C22,21.5771859 21.5788109,21.998375 21.02625,21.998375 L3.00375,21.998375 C2.45118911,21.998375 2.00325,21.5771859 2.00325,21.024625 C2.00325,20.4720641 2.45118911,19.998375 3.00375,19.998375 L21.02625,19.998375 Z M14.3025,2.001625 C15.2424213,2.00534602 16.0018259,2.76944861 15.99975,3.709375 L15.99975,3.709375 L15.99975,5.005375 L19.35,5.005375 C20.281466,5.01198082 21.0041579,5.77114487 21.0000531,6.702625 L21.0000531,6.702625 L21.0000531,16.322875 C21.0041579,17.2543551 20.281466,17.9917692 19.35,17.998375 L19.35,17.998375 L4.68225,17.998375 C3.75090411,17.991769 2.99542726,17.2542331 2.99987884,16.322875 L2.99987884,16.322875 L2.99987884,6.702625 C2.99542726,5.77126691 3.75090411,5.01198096 4.68225,5.005375 L4.68225,5.005375 L7.9995,5.005375 L7.9995,3.709375 C7.99742413,2.76944861 8.75682868,2.00534602 9.69675,2.001625 L9.69675,2.001625 Z M19,6.998375 L5,6.998375 L5,15.998375 L19,15.998375 L19,6.998375 Z M8.51776197,9.12162784 C8.8313011,9.3064855 9.01971449,9.64703459 9.00975,10.010875 L9.00975,13.014625 C9.00994901,13.2799051 8.90470637,13.5343882 8.7171953,13.7220399 C8.52968423,13.9096916 8.27528018,14.015125 8.01,14.015125 C7.45743911,14.015125 7.0095,13.5671859 7.0095,13.014625 L7.0095,10.010875 C6.99953551,9.64703459 7.1879489,9.3064855 7.50148803,9.12162784 C7.81502715,8.93677018 8.20422285,8.93677018 8.51776197,9.12162784 Z M16.528512,9.12162784 C16.8420511,9.3064855 17.0304645,9.64703459 17.0205,10.010875 L17.0205,13.014625 C17.0205,13.5671859 16.5725609,14.015125 16.02,14.015125 C15.7547198,14.015125 15.5003158,13.9096916 15.3128047,13.7220399 C15.1252936,13.5343882 15.020051,13.2799051 15.02025,13.014625 L15.02025,10.010875 C15.0102855,9.64703459 15.1986989,9.3064855 15.512238,9.12162784 C15.8257772,8.93677018 16.2149728,8.93677018 16.528512,9.12162784 Z M13.9995,4.002625 L9.99975,4.002625 L9.99975,5.005375 L13.9995,5.005375 L13.9995,4.002625 Z" id="🎨-Color"></path>
        </g>
    </g>
</svg>