<?xml version="1.0" encoding="UTF-8"?>
<svg width="24px" height="24px" viewBox="0 0 24 24" version="1.1" xmlns="http://www.w3.org/2000/svg" xmlns:xlink="http://www.w3.org/1999/xlink">
    <!-- Generator: Sketch 64 (93537) - https://sketch.com -->
    <title>ic-db_journey_alternative-connection_24</title>
    <desc>Created with Sketch.</desc>
    <g id="Symbols:Icon" stroke="none" stroke-width="1" fill="none" fill-rule="evenodd">
        <g id="24dp-Icon/Journey/Alternative-Connection" fill="#282D37">
            <path d="M3.5,18.0194 C3.5,18.5696 3.9531,19.0227 4.5032,19.0227 L10.0227,19.0227 C11.6731,19.0227 13,17.6634 13,16.0129 L13,10.9968 C13,10.4466 13.4531,9.9935 14.0356,9.9935 L18.6343,9.9935 L17.3074,11.288 C17.1133,11.4822 17.0162,11.7411 17.0162,12 C17.0162,12.2589 17.1133,12.5178 17.3074,12.712 C17.5016,12.9061 17.7605,13.0032 18.0194,13.0032 C18.2783,13.0032 18.5372,12.9061 18.7314,12.712 L21.7411,9.6699 C21.9029,9.4757 22,9.2168 22,8.9579 C22,8.699 21.9353,8.4725 21.7411,8.2783 L18.7314,5.2686 C18.5372,5.0744 18.3107,4.9773 18.0518,4.9773 L17.9871,4.9773 C17.7282,4.9773 17.5016,5.0744 17.3074,5.2686 C17.1133,5.4628 17.0162,5.7217 17.0162,5.9806 C17.0162,6.2718 17.1133,6.4984 17.3074,6.6926 L18.6343,7.9871 L14.0356,7.9871 C12.3528,7.9871 10.9935,9.3463 10.9935,10.9968 L10.9935,16.0129 C10.9935,16.5631 10.5728,17.0162 10.0227,17.0162 L4.5032,17.0162 C3.9531,17.0162 3.5,17.4369 3.5,18.0194 Z M3.5,8.9773 C3.5,8.42885502 3.9516322,7.9773 4.49995016,7.9773 C5.0483678,7.9773 5.5,8.42885502 5.5,8.9773 C5.5,9.52574498 5.0483678,9.9773 4.49995016,9.9773 C3.9516322,9.9773 3.5,9.52574498 3.5,8.9773 Z M7.5,8.9773 C7.5,8.42885502 7.97616245,7.9773 8.5158917,7.9773 C9.02383755,7.9773 9.5,8.42885502 9.5,8.9773 C9.5,9.52574498 9.02383755,9.9773 8.5158917,9.9773 C7.97616245,9.9773 7.5,9.52574498 7.5,8.9773 Z" id="🎨-Color"></path>
        </g>
    </g>
</svg>