<?xml version="1.0" encoding="UTF-8"?>
<svg width="24px" height="24px" viewBox="0 0 24 24" version="1.1" xmlns="http://www.w3.org/2000/svg" xmlns:xlink="http://www.w3.org/1999/xlink">
    <!-- Generator: Sketch 64 (93537) - https://sketch.com -->
    <title>ic-db_journey_capacity-indicator-filled_24</title>
    <desc>Created with Sketch.</desc>
    <g id="Symbols:Icon" stroke="none" stroke-width="1" fill="none" fill-rule="evenodd">
        <g id="24dp-Icon/Journey/Capacity-Indicator-Filled" fill="#282D37">
            <path d="M2,20.4672 C2,21.0306 2.446,21.4766 3.0094,21.4766 L8.9953,21.4766 C9.5587,21.4766 10.0047,21.0541 10.0047,20.4907 L10.0047,14.5986 C10.0047,13.4484 9.0423,12.5094 7.892,12.5094 L4.1361,12.5094 C2.9624,12.5094 2,13.378 2,14.4578 L2,20.4672 Z M12,20.4907 C12,21.0306 12.4461,21.4766 12.986,21.4766 L15.0987,21.4766 C15.5916,21.4766 15.9672,21.0071 15.9672,20.4907 L15.9672,14.4578 C15.9672,13.378 14.9813,12.5564 13.878,12.5564 L12.986,12.5564 C12.3522,12.5564 12,13.0024 12,13.5188 L12,20.4907 Z M17.986,20.4907 C17.986,21.0306 18.432,21.4766 18.9719,21.4766 L21.0846,21.4766 C21.6011,21.4766 21.9062,21.0071 21.9062,20.4907 L21.9062,14.5986 C21.9062,13.3073 20.9673,12.5564 19.864,12.5564 L18.9719,12.5564 C18.3381,12.5564 17.986,13.0024 17.986,13.5188 L17.986,20.4907 Z M3.7723,8.7534 C3.7723,10.0446 4.683,10.9601 5.9907,10.9601 C7.2983,10.9601 8.2324,10.0446 8.2324,8.7534 C8.2324,7.439 7.2983,6.5 5.9907,6.5 C4.683,6.5 3.7723,7.439 3.7723,8.7534 Z M10.1104,8.7536 C10.1104,10.0613 11.0444,10.9953 12.3521,10.9953 C13.6598,10.9953 14.5705,10.0613 14.5705,8.7536 C14.5705,7.4459 13.6598,6.5352 12.3521,6.5352 C11.0444,6.5352 10.1104,7.4459 10.1104,8.7536 Z M16.4836,8.7535 C16.4836,10.0446 17.4226,10.9601 18.7372,10.9601 C20.0048,10.9601 20.9438,10.0448 20.9438,8.7535 C20.9438,7.439 20.0518,6.5 18.7372,6.5 C17.4226,6.5 16.4836,7.439 16.4836,8.7535 Z" id="🎨-Color"></path>
        </g>
    </g>
</svg>