<?xml version="1.0" encoding="UTF-8"?>
<svg width="24px" height="24px" viewBox="0 0 24 24" version="1.1" xmlns="http://www.w3.org/2000/svg" xmlns:xlink="http://www.w3.org/1999/xlink">
    <!-- Generator: Sketch 64 (93537) - https://sketch.com -->
    <title>ic-db_maps_stop_24</title>
    <desc>Created with Sketch.</desc>
    <g id="Symbols:Icon" stroke="none" stroke-width="1" fill="none" fill-rule="evenodd">
        <g id="24dp-Icon/Maps/Stop" fill="#282D37">
            <path d="M17.305562,3 C17.9898527,3 18.6119354,3.21803279 19.078547,3.6852459 L21.846764,6.36393443 C22.3133756,6.8 22.5,7.39180328 22.5,7.98360656 C22.5,8.51311475 22.3133756,9.13606557 21.846764,9.57213115 L19.078547,12.2508197 C18.5808811,12.7491803 17.9898527,13 17.305562,13 L13,13 L13,20 L16.0326767,20 C16.561397,20 16.9968548,20.4737705 16.9968548,20.9409836 C16.9968548,21.5639344 16.561397,22 16.0326767,22 L7.695605,22 C7.16678517,22 6.762481,21.5639344 6.762481,20.9409836 C6.762481,20.4737705 7.16678517,20 7.695605,20 L10.993809,20 L11,13 L5.58169187,13 C4.11974838,13 3,11.8770492 3,10.4442623 L3,5.52295082 C3,4.12131148 4.11974838,3 5.58169187,3 L17.305562,3 Z M17.150091,5 L5.95494133,5 C5.33285889,5 5.02181768,5.30491803 5.02181768,5.89672131 L5.02181768,10.0704918 C5.02181768,10.6622951 5.33285889,11.004918 5.95494133,11.004918 L17.150091,11.004918 C17.6477569,11.004918 17.9898528,10.8803279 18.300894,10.5377049 L20.167141,8.63770492 C20.3849196,8.41967213 20.5,8.20163934 20.5,7.95245902 C20.5,7.73442623 20.3849196,7.51639344 20.167141,7.29836066 L18.300894,5.46065574 C17.9587984,5.11803279 17.6477569,5 17.150091,5 Z" id="🎨-Color"></path>
        </g>
    </g>
</svg>