<?xml version="1.0" encoding="UTF-8"?>
<svg width="24px" height="24px" viewBox="0 0 24 24" version="1.1" xmlns="http://www.w3.org/2000/svg" xmlns:xlink="http://www.w3.org/1999/xlink">
    <!-- Generator: Sketch 64 (93537) - https://sketch.com -->
    <title>ic-db_journey_destination-filled_24</title>
    <desc>Created with Sketch.</desc>
    <g id="Symbols:Icon" stroke="none" stroke-width="1" fill="none" fill-rule="evenodd">
        <g id="24dp-Icon/Journey/Destination-Filled" fill="#282D37">
            <path d="M12,2 C15.8125,2 19,4.7812 19,8.25 C19,9.6875 18.5312,11.0938 17.8438,12.3438 L12.875,21.4688 C12.6875,21.8125 12.3438,22 12,22 C11.625,22 11.2812,21.8125 11.0938,21.4688 L6.1875,12.3438 C5.5312,11.125 5,9.7812 5,8.375 C5,4.8438 8.125,2 12,2 Z M12,7 C10.9062,7 10,7.9062 10,9 C10,10.0938 10.9062,11 12,11 C13.0938,11 14,10.0938 14,9 C14,7.9062 13.0938,7 12,7 Z" id="🎨-Color"></path>
        </g>
    </g>
</svg>