<?xml version="1.0" encoding="UTF-8"?>
<svg width="24px" height="24px" viewBox="0 0 24 24" version="1.1" xmlns="http://www.w3.org/2000/svg" xmlns:xlink="http://www.w3.org/1999/xlink">
    <!-- Generator: Sketch 64 (93537) - https://sketch.com -->
    <title>ic-db_journey_capacity-indicator-low_24</title>
    <desc>Created with Sketch.</desc>
    <g id="Symbols:Icon" stroke="none" stroke-width="1" fill="none" fill-rule="evenodd">
        <g id="24dp-Icon/Journey/Capacity-Indicator-Low" fill="#282D37">
            <path d="M2,20.9688 C2,21.5312 2.4375,21.9688 3,21.9688 C3.5312,21.9688 4,21.5312 4,20.9688 L4,15.125 C4,15.0312 4.0312,15.0312 4.125,15.0312 L7.875,15.0312 C7.9375,15.0312 8,15.0625 8,15.125 L8,20.9688 C8,21.5312 8.4375,22 9,22 C9.5625,22 10,21.5312 10,20.9688 L10,15.125 C10,13.9688 9.0312,13.0312 7.875,13.0312 L4.125,13.0312 C2.9688,13.0312 2,13.9062 2,14.9688 L2,20.9688 Z M3.75,9.25 C3.75,10.5 4.75,11.5312 6,11.5312 C7.2188,11.5312 8.25,10.5 8.25,9.25 C8.25,8.0312 7.2188,7 6,7 C4.75,7 3.75,8.0312 3.75,9.25 Z" id="🎨-Color"></path>
        </g>
    </g>
</svg>